SplineFontDB: 3.2
FontName: Inconsolata-SemiCondensed
FullName: Inconsolata Semi Condensed
FamilyName: Inconsolata Semi Condensed
Weight: Book
Copyright: Copyright 2006 The Inconsolata Project Authors (https://github.com/cyrealtype/Inconsolata)
Version: 3.000; ttfautohint (v1.8.3)
ItalicAngle: 0
UnderlinePosition: -297
UnderlineWidth: 102
Ascent: 1802
Descent: 246
InvalidEm: 0
sfntRevision: 0x00030000
LayerCount: 2
Layer: 0 1 "Back" 1
Layer: 1 1 "Fore" 0
XUID: [1021 771 -2115194757 16451]
StyleMap: 0x0040
FSType: 0
OS2Version: 4
OS2_WeightWidthSlopeOnly: 0
OS2_UseTypoMetrics: 1
CreationTime: 1576097233
ModificationTime: 1732392372
PfmFamily: 81
TTFWeight: 400
TTFWidth: 4
LineGap: 0
VLineGap: 0
Panose: 0 0 0 0 0 0 0 0 0 0
OS2TypoAscent: 1759
OS2TypoAOffset: 0
OS2TypoDescent: -389
OS2TypoDOffset: 0
OS2TypoLinegap: 0
OS2WinAscent: 2056
OS2WinAOffset: 0
OS2WinDescent: 930
OS2WinDOffset: 0
HheadAscent: 1759
HheadAOffset: 0
HheadDescent: -389
HheadDOffset: 0
OS2SubXSize: 1331
OS2SubYSize: 1229
OS2SubXOff: 0
OS2SubYOff: 154
OS2SupXSize: 1331
OS2SupYSize: 1229
OS2SupXOff: 0
OS2SupYOff: 717
OS2StrikeYSize: 102
OS2StrikeYPos: 561
OS2CapHeight: 1276
OS2XHeight: 936
OS2Vendor: 'CYRE'
OS2CodePages: 60000193.cdd40000
OS2UnicodeRanges: a00000ff.0000f9eb.00000020.00000000
Lookup: 1 0 0 "'aalt' Access All Alternates in Latin lookup 0" { "'aalt' Access All Alternates in Latin lookup 0 subtable"  } ['aalt' ('DFLT' <'dflt' > 'latn' <'AZE ' 'CAT ' 'CRT ' 'KAZ ' 'MOL ' 'ROM ' 'TAT ' 'TRK ' 'dflt' > ) ]
Lookup: 3 0 0 "'aalt' Access All Alternates in Latin lookup 1" { "'aalt' Access All Alternates in Latin lookup 1 subtable"  } ['aalt' ('DFLT' <'dflt' > 'latn' <'AZE ' 'CAT ' 'CRT ' 'KAZ ' 'MOL ' 'ROM ' 'TAT ' 'TRK ' 'dflt' > ) ]

StartChar: A
Encoding: 65 65 1
Width: 922
VWidth: 2441
GlyphClass: 2
Flags: HW
AnchorPoint: "Anchor-3" 785 0 basechar 0
AnchorPoint: "Anchor-2" 475 0 basechar 0
AnchorPoint: "Anchor-0" 475 1521 basechar 0
LayerCount: 2
Fore
SplineSet
473 1140 m 1,0,-1
 322 576 l 1,1,-1
 622 576 l 1,2,-1
 473 1140 l 1,0,-1
777 0 m 1,3,-1
 658 445 l 1,4,-1
 287 445 l 1,5,-1
 169 0 l 1,6,-1
 30 0 l 1,7,-1
 463 1547 l 1,8,-1
 487 1547 l 1,9,-1
 920 0 l 1,10,-1
 777 0 l 1,3,-1
EndSplineSet
Substitution2: "Single Substitution lookup 29 subtable" ordfeminine
Substitution2: "'aalt' Access All Alternates in Latin lookup 0 subtable" ordfeminine
EndChar

StartChar: AE
Encoding: 198 198 26
Width: 922
VWidth: 2441
GlyphClass: 1
Flags: HW
LayerCount: 2
Fore
SplineSet
272 552 m 1,0,-1
 477 552 l 1,1,-1
 486 1372 l 1,2,-1
 465 1372 l 1,3,-1
 272 552 l 1,0,-1
20 0 m 1,4,-1
 382 1523 l 1,5,-1
 910 1523 l 1,6,-1
 910 1374 l 1,7,-1
 601 1374 l 1,8,-1
 601 869 l 1,9,-1
 861 869 l 1,10,-1
 861 718 l 1,11,-1
 601 718 l 1,12,-1
 601 149 l 1,13,-1
 906 149 l 1,14,-1
 906 0 l 1,15,-1
 477 0 l 1,16,-1
 477 415 l 1,17,-1
 247 415 l 1,18,-1
 146 0 l 1,19,-1
 20 0 l 1,4,-1
EndSplineSet
EndChar

StartChar: B
Encoding: 66 66 28
Width: 922
VWidth: 2441
GlyphClass: 2
Flags: HW
AnchorPoint: "Anchor-2" 544 0 basechar 0
AnchorPoint: "Anchor-0" 544 1521 basechar 0
LayerCount: 2
Fore
SplineSet
263 147 m 1,0,-1
 512 147 l 2,1,2
 652 147 652 147 739 212.5 c 128,-1,3
 826 278 826 278 826 437 c 0,4,5
 826 574 826 574 746.5 660.5 c 128,-1,6
 667 747 667 747 476 747 c 2,7,-1
 263 747 l 1,8,-1
 263 147 l 1,0,-1
263 892 m 1,9,-1
 469 892 l 2,10,11
 646 892 646 892 713.5 960 c 128,-1,12
 781 1028 781 1028 781 1132 c 0,13,14
 781 1232 781 1232 714.5 1305.5 c 128,-1,15
 648 1379 648 1379 491 1379 c 2,16,-1
 263 1379 l 1,17,-1
 263 892 l 1,9,-1
104 0 m 1,18,-1
 104 1521 l 1,19,-1
 491 1521 l 2,20,21
 719 1521 719 1521 830 1423.5 c 128,-1,22
 941 1326 941 1326 941 1153 c 0,23,24
 941 1034 941 1034 889 943 c 128,-1,25
 837 852 837 852 740 815 c 1,26,27
 853 773 853 773 923.5 667 c 128,-1,28
 994 561 994 561 994 427 c 0,29,30
 994 229 994 229 872 114.5 c 128,-1,31
 750 0 750 0 489 0 c 2,32,-1
 104 0 l 1,18,-1
EndSplineSet
EndChar

StartChar: C
Encoding: 67 67 29
Width: 922
VWidth: 2441
GlyphClass: 2
Flags: HW
AnchorPoint: "Anchor-2" 583 0 basechar 0
AnchorPoint: "Anchor-0" 562 1521 basechar 0
LayerCount: 2
Fore
SplineSet
594 -24 m 0,0,1
 453 -24 453 -24 339 55.5 c 128,-1,2
 225 135 225 135 156.5 306.5 c 128,-1,3
 88 478 88 478 86 752 c 0,4,5
 86 978 86 978 131 1129.5 c 128,-1,6
 176 1281 176 1281 249 1369.5 c 128,-1,7
 322 1458 322 1458 410.5 1495.5 c 128,-1,8
 499 1533 499 1533 587 1533 c 0,9,10
 726 1533 726 1533 826.5 1456 c 128,-1,11
 927 1379 927 1379 976 1248 c 1,12,-1
 852 1174 l 1,13,-1
 830 1162 l 1,14,-1
 823 1179 l 1,15,16
 828 1198 828 1198 823.5 1215.5 c 128,-1,17
 819 1233 819 1233 801 1270 c 1,18,19
 750 1345 750 1345 695 1370.5 c 128,-1,20
 640 1396 640 1396 583 1396 c 0,21,22
 424 1396 424 1396 330 1232.5 c 128,-1,23
 236 1069 236 1069 236 764 c 0,24,25
 236 566 236 566 283.5 422 c 128,-1,26
 331 278 331 278 410.5 200 c 128,-1,27
 490 122 490 122 590 122 c 0,28,29
 667 122 667 122 736 168.5 c 128,-1,30
 805 215 805 215 847 300 c 1,31,-1
 958 212 l 1,32,33
 896 95 896 95 807.5 35.5 c 128,-1,34
 719 -24 719 -24 594 -24 c 0,0,1
EndSplineSet
EndChar

StartChar: D
Encoding: 68 68 36
Width: 922
VWidth: 2441
GlyphClass: 2
Flags: HW
AnchorPoint: "Anchor-4" 547 762 basechar 0
AnchorPoint: "Anchor-2" 547 0 basechar 0
AnchorPoint: "Anchor-0" 482 1521 basechar 0
LayerCount: 2
Fore
SplineSet
272 132 m 1,0,-1
 403 132 l 2,1,2
 634 132 634 132 741 292 c 0,3,4
 846.036697248 449.064220183 846.036697248 449.064220183 846.036697248 732.365204949 c 0,5,6
 846.036697248 737.660550459 846.036697248 737.660550459 846 743 c 0,7,8
 846 1039 846 1039 750 1209 c 128,-1,9
 654 1379 654 1379 427 1379 c 2,10,-1
 272 1379 l 1,11,-1
 272 132 l 1,0,-1
116 -2 m 1,12,-1
 116 1521 l 1,13,-1
 436 1521 l 2,14,15
 610 1521 610 1521 708.5 1468.5 c 128,-1,16
 807 1416 807 1416 875 1316 c 0,17,18
 1006.0075188 1119.4887218 1006.0075188 1119.4887218 1006.0075188 757.494261971 c 0,19,20
 1006.0075188 754.751879699 1006.0075188 754.751879699 1006 752 c 1,21,22
 999 517 999 517 938 349 c 128,-1,23
 877 181 877 181 749.5 89.5 c 128,-1,24
 622 -2 622 -2 408 -2 c 2,25,-1
 116 -2 l 1,12,-1
EndSplineSet
EndChar

StartChar: Eth
Encoding: 208 208 37
Width: 922
VWidth: 2441
GlyphClass: 1
Flags: HW
LayerCount: 2
Fore
SplineSet
298 139 m 1,0,-1
 414 139 l 2,1,2
 608 139 608 139 707 299 c 128,-1,3
 806 459 806 459 806 747 c 0,4,5
 806 1040 806 1040 717 1208.5 c 128,-1,6
 628 1377 628 1377 436 1377 c 2,7,-1
 298 1377 l 1,8,-1
 298 876 l 1,9,-1
 504 876 l 1,10,-1
 504 734 l 1,11,-1
 298 734 l 1,12,-1
 298 139 l 1,0,-1
158 -2 m 1,13,-1
 158 734 l 1,14,-1
 61 734 l 1,15,-1
 61 876 l 1,16,-1
 158 876 l 1,17,-1
 158 1521 l 1,18,-1
 442 1521 l 2,19,20
 569 1521 569 1521 651.5 1479.5 c 128,-1,21
 734 1438 734 1438 786 1372.5 c 128,-1,22
 838 1307 838 1307 869 1235 c 0,23,24
 897 1177 897 1177 924 1058 c 128,-1,25
 951 939 951 939 951 755 c 0,26,27
 951 387 951 387 811 192.5 c 128,-1,28
 671 -2 671 -2 418 -2 c 2,29,-1
 158 -2 l 1,13,-1
EndSplineSet
EndChar

StartChar: E
Encoding: 69 69 42
Width: 922
VWidth: 2441
GlyphClass: 2
Flags: HW
AnchorPoint: "Anchor-3" 988 24 basechar 0
AnchorPoint: "Anchor-2" 550 0 basechar 0
AnchorPoint: "Anchor-0" 571 1521 basechar 0
LayerCount: 2
Fore
SplineSet
130 0 m 1,0,-1
 130 1523 l 1,1,-1
 969 1523 l 1,2,-1
 969 1374 l 1,3,-1
 284 1374 l 1,4,-1
 284 869 l 1,5,-1
 850 869 l 1,6,-1
 850 718 l 1,7,-1
 284 718 l 1,8,-1
 284 149 l 1,9,-1
 964 149 l 1,10,-1
 964 0 l 1,11,-1
 130 0 l 1,0,-1
EndSplineSet
EndChar

StartChar: uni01B8
Encoding: 440 440 65
Width: 922
VWidth: 2441
GlyphClass: 1
Flags: HW
LayerCount: 2
Fore
SplineSet
589 -27 m 0,0,1
 445 -27 445 -27 348.5 33 c 128,-1,2
 252 93 252 93 203 195.5 c 128,-1,3
 154 298 154 298 154 420 c 0,4,5
 154 555 154 555 207.5 662 c 128,-1,6
 261 769 261 769 356.5 835 c 128,-1,7
 452 901 452 901 576 908 c 1,8,-1
 193 1370 l 1,9,-1
 193 1521 l 1,10,-1
 864 1521 l 1,11,-1
 864 1370 l 1,12,-1
 368 1370 l 1,13,-1
 743 908 l 1,14,-1
 743 781 l 1,15,16
 717.68852459 782.573770492 717.68852459 782.573770492 693.710024187 782.573770492 c 0,17,18
 534.852459016 782.573770492 534.852459016 782.573770492 434.5 713.5 c 0,19,20
 319 634 319 634 319 432 c 0,21,22
 319 285 319 285 392.5 201 c 128,-1,23
 466 117 466 117 606 117 c 0,24,25
 667 117 667 117 708.5 135.5 c 128,-1,26
 750 154 750 154 783 191 c 0,27,28
 807 223 807 223 816 238.5 c 128,-1,29
 825 254 825 254 823 275 c 1,30,-1
 832 291 l 1,31,-1
 852 273 l 1,32,-1
 943 142 l 1,33,34
 873 56 873 56 783.5 14.5 c 128,-1,35
 694 -27 694 -27 589 -27 c 0,0,1
EndSplineSet
EndChar

StartChar: F
Encoding: 70 70 66
Width: 922
VWidth: 2441
GlyphClass: 2
Flags: HW
AnchorPoint: "Anchor-2" 550 0 basechar 0
AnchorPoint: "Anchor-0" 550 1521 basechar 0
LayerCount: 2
Fore
SplineSet
170 0 m 1,0,-1
 170 1523 l 1,1,-1
 960 1523 l 1,2,-1
 960 1377 l 1,3,-1
 333 1377 l 1,4,-1
 333 894 l 1,5,-1
 837 894 l 1,6,-1
 837 750 l 1,7,-1
 333 750 l 1,8,-1
 333 0 l 1,9,-1
 170 0 l 1,0,-1
EndSplineSet
EndChar

StartChar: G
Encoding: 71 71 67
Width: 922
VWidth: 2441
GlyphClass: 2
Flags: HW
AnchorPoint: "Anchor-2" 556 0 basechar 0
AnchorPoint: "Anchor-0" 576 1521 basechar 0
LayerCount: 2
Fore
SplineSet
580 -24 m 0,0,1
 424 -24 424 -24 311 68.5 c 128,-1,2
 198 161 198 161 136.5 333 c 128,-1,3
 75 505 75 505 75 743 c 0,4,5
 74.9215686275 752.764705882 74.9215686275 752.764705882 74.9215686275 762.38638985 c 0,6,7
 74.9215686275 998.117647059 74.9215686275 998.117647059 122 1148 c 0,8,9
 171 1304 171 1304 249 1389.5 c 128,-1,10
 327 1475 327 1475 414 1506.5 c 128,-1,11
 501 1538 501 1538 576 1538 c 0,12,13
 694 1536 694 1536 801.5 1468 c 128,-1,14
 909 1400 909 1400 960 1289 c 1,15,-1
 856 1197 l 1,16,-1
 836 1179 l 1,17,-1
 827 1193 l 1,18,19
 829 1212 829 1212 822.5 1230 c 128,-1,20
 816 1248 816 1248 792 1279 c 0,21,22
 745 1335 745 1335 694 1362 c 128,-1,23
 643 1389 643 1389 574 1389 c 0,24,25
 481 1389 481 1389 401.5 1334 c 128,-1,26
 322 1279 322 1279 275.5 1146 c 128,-1,27
 229 1013 229 1013 229 778 c 0,28,29
 229 461 229 461 323.5 292.5 c 128,-1,30
 418 124 418 124 580 124 c 0,31,32
 636 124 636 124 704 145 c 128,-1,33
 772 166 772 166 820 212 c 1,34,-1
 820 583 l 1,35,-1
 587 583 l 1,36,-1
 587 727 l 1,37,-1
 965 727 l 1,38,-1
 965 132 l 1,39,40
 780 -24 780 -24 580 -24 c 0,0,1
EndSplineSet
EndChar

StartChar: H
Encoding: 72 72 74
Width: 922
VWidth: 2441
GlyphClass: 2
Flags: HW
AnchorPoint: "Anchor-4" 610 762 basechar 0
AnchorPoint: "Anchor-2" 610 0 basechar 0
AnchorPoint: "Anchor-0" 610 1521 basechar 0
LayerCount: 2
Fore
SplineSet
110 1521 m 1,0,-1
 298 1521 l 1,1,-1
 298 1504 l 1,2,3
 284 1490 284 1490 281 1473 c 128,-1,4
 278 1456 278 1456 278 1414 c 2,5,-1
 278 871 l 1,6,-1
 799 871 l 1,7,-1
 799 1521 l 1,8,-1
 986 1521 l 1,9,-1
 986 1504 l 1,10,11
 974 1490 974 1490 970.5 1473 c 128,-1,12
 967 1456 967 1456 967 1414 c 2,13,-1
 967 0 l 1,14,-1
 796 0 l 1,15,-1
 796 725 l 1,16,-1
 278 725 l 1,17,-1
 278 0 l 1,18,-1
 110 0 l 1,19,-1
 110 1521 l 1,0,-1
EndSplineSet
EndChar

StartChar: Hbar
Encoding: 294 294 75
Width: 922
VWidth: 2441
GlyphClass: 2
Flags: HW
AnchorPoint: "Anchor-4" 519 762 basechar 0
AnchorPoint: "Anchor-2" 519 0 basechar 0
AnchorPoint: "Anchor-0" 519 1521 basechar 0
LayerCount: 2
Fore
SplineSet
238 871 m 1,0,-1
 678 871 l 1,1,-1
 678 1216 l 1,2,-1
 238 1216 l 1,3,-1
 238 871 l 1,0,-1
16 1216 m 1,4,-1
 16 1351 l 1,5,-1
 96 1351 l 1,6,-1
 96 1521 l 1,7,-1
 255 1521 l 1,8,-1
 255 1504 l 1,9,10
 243 1490 243 1490 240.5 1473 c 128,-1,11
 238 1456 238 1456 238 1414 c 2,12,-1
 238 1351 l 1,13,-1
 678 1351 l 1,14,-1
 678 1521 l 1,15,-1
 836 1521 l 1,16,-1
 836 1504 l 1,17,18
 826 1490 826 1490 823 1473 c 128,-1,19
 820 1456 820 1456 820 1414 c 2,20,-1
 820 1351 l 1,21,-1
 906 1351 l 1,22,-1
 906 1216 l 1,23,-1
 820 1216 l 1,24,-1
 820 0 l 1,25,-1
 676 0 l 1,26,-1
 676 725 l 1,27,-1
 238 725 l 1,28,-1
 238 0 l 1,29,-1
 96 0 l 1,30,-1
 96 1216 l 1,31,-1
 16 1216 l 1,4,-1
EndSplineSet
EndChar

StartChar: I
Encoding: 73 73 79
Width: 922
VWidth: 2441
GlyphClass: 2
Flags: HW
AnchorPoint: "Anchor-3" 776 0 basechar 0
AnchorPoint: "Anchor-2" 550 0 basechar 0
AnchorPoint: "Anchor-0" 525 1521 basechar 0
LayerCount: 2
Fore
SplineSet
179 0 m 1,0,-1
 179 142 l 1,1,-1
 445 142 l 1,2,-1
 445 1379 l 1,3,-1
 193 1379 l 1,4,-1
 193 1521 l 1,5,-1
 871 1521 l 1,6,-1
 871 1379 l 1,7,-1
 606 1379 l 1,8,-1
 606 139 l 1,9,-1
 886 139 l 1,10,-1
 886 0 l 1,11,-1
 179 0 l 1,0,-1
EndSplineSet
EndChar

StartChar: J
Encoding: 74 74 94
Width: 922
VWidth: 2441
GlyphClass: 2
Flags: HW
AnchorPoint: "Anchor-2" 542 0 basechar 0
AnchorPoint: "Anchor-0" 715 1521 basechar 0
LayerCount: 2
Fore
SplineSet
423 -27 m 0,0,1
 229 -27 229 -27 104 132 c 1,2,-1
 191 263 l 1,3,-1
 205 284 l 1,4,-1
 220 275 l 1,5,6
 222 254 222 254 229.5 234.5 c 128,-1,7
 237 215 237 215 266 186 c 0,8,9
 338 123 338 123 423 122 c 0,10,11
 529 122 529 122 578.5 209 c 128,-1,12
 628 296 628 296 628 508 c 2,13,-1
 628 1379 l 1,14,-1
 369 1379 l 1,15,-1
 369 1521 l 1,16,-1
 994 1521 l 1,17,-1
 994 1379 l 1,18,-1
 786 1379 l 1,19,-1
 786 510 l 1,20,21
 786.446428571 492.321428571 786.446428571 492.321428571 786.446428571 475.276626276 c 0,22,23
 786.446428571 301.419642857 786.446428571 301.419642857 740 193.5 c 0,24,25
 689 75 689 75 604.5 24 c 128,-1,26
 520 -27 520 -27 423 -27 c 0,0,1
EndSplineSet
EndChar

StartChar: K
Encoding: 75 75 96
Width: 922
VWidth: 2441
GlyphClass: 1
Flags: HW
LayerCount: 2
Fore
SplineSet
350 755 m 1,0,-1
 249 622 l 1,1,-1
 249 0 l 1,2,-1
 88 0 l 1,3,-1
 88 1521 l 1,4,-1
 270 1521 l 1,5,-1
 270 1504 l 1,6,7
 256 1490 256 1490 252.5 1473 c 128,-1,8
 249 1456 249 1456 249 1414 c 2,9,-1
 249 823 l 1,10,-1
 777 1533 l 1,11,12
 830 1521 830 1521 893 1521 c 2,13,-1
 946 1521 l 1,14,-1
 464 859 l 1,15,-1
 978 0 l 1,16,-1
 786 -10 l 1,17,-1
 350 755 l 1,0,-1
EndSplineSet
EndChar

StartChar: uni0198
Encoding: 408 408 98
Width: 922
VWidth: 2441
GlyphClass: 1
Flags: HW
LayerCount: 2
Fore
SplineSet
90 1521 m 1,0,-1
 273 1521 l 1,1,-1
 273 1504 l 1,2,3
 259 1490 259 1490 255 1473 c 128,-1,4
 251 1456 251 1456 251 1414 c 2,5,-1
 251 806 l 1,6,7
 385 1081 385 1081 498.5 1238.5 c 128,-1,8
 612 1396 612 1396 711 1463.5 c 128,-1,9
 810 1531 810 1531 898 1531 c 0,10,11
 940 1531 940 1531 969 1521 c 1,12,-1
 967 1345 l 1,13,-1
 967 1321 l 1,14,-1
 953 1321 l 1,15,16
 942 1335 942 1335 926.5 1345 c 128,-1,17
 911 1355 911 1355 876 1358 c 2,18,-1
 870 1358 l 2,19,20
 847 1358 847 1358 814.5 1344 c 128,-1,21
 782 1330 782 1330 732.5 1285 c 128,-1,22
 683 1240 683 1240 612.5 1147.5 c 128,-1,23
 542 1055 542 1055 443 899 c 1,24,-1
 980 0 l 1,25,-1
 789 -10 l 1,26,-1
 353 750 l 1,27,28
 305 667 305 667 251 571 c 1,29,-1
 251 0 l 1,30,-1
 90 0 l 1,31,-1
 90 1521 l 1,0,-1
EndSplineSet
EndChar

StartChar: L
Encoding: 76 76 99
Width: 922
VWidth: 2441
GlyphClass: 2
Flags: HW
AnchorPoint: "Anchor-4" 235 762 basechar 0
AnchorPoint: "Anchor-2" 550 0 basechar 0
AnchorPoint: "Anchor-1" 396 1116 basechar 0
AnchorPoint: "Anchor-0" 440 1521 basechar 0
LayerCount: 2
Fore
SplineSet
144 1521 m 1,0,-1
 333 1521 l 1,1,-1
 333 1504 l 1,2,3
 319 1490 319 1490 314.5 1473 c 128,-1,4
 310 1456 310 1456 310 1414 c 2,5,-1
 310 147 l 1,6,-1
 967 147 l 1,7,-1
 967 0 l 1,8,-1
 144 0 l 1,9,-1
 144 1521 l 1,0,-1
EndSplineSet
EndChar

StartChar: uni01C7
Encoding: 455 455 100
Width: 922
VWidth: 2380
GlyphClass: 1
Flags: HW
LayerCount: 2
Fore
SplineSet
135 98 m 1,0,-1
 135 1521 l 1,1,-1
 311 1521 l 1,2,3
 311 1505 311 1505 306 1501.5 c 128,-1,4
 301 1498 301 1498 295.5 1489 c 128,-1,5
 290 1480 290 1480 290 1443 c 2,6,-1
 290 236 l 1,7,-1
 630 236 l 1,8,-1
 630 98 l 1,9,-1
 135 98 l 1,0,-1
589 -246 m 0,10,11
 406 -246 406 -246 283 -98 c 1,12,-1
 384 33 l 1,13,14
 404 17 404 17 404 0 c 128,-1,15
 404 -17 404 -17 425 -41 c 0,16,17
 441 -61 441 -61 483 -82.5 c 128,-1,18
 525 -104 525 -104 584 -104 c 0,19,20
 680 -104 680 -104 729 -24.5 c 128,-1,21
 778 55 778 55 778 253 c 2,22,-1
 778 1388 l 1,23,-1
 521 1388 l 1,24,-1
 521 1521 l 1,25,-1
 930 1521 l 1,26,-1
 930 256 l 1,27,28
 930.316831683 241.504950495 930.316831683 241.504950495 930.316831683 227.464758357 c 0,0,0
 930.316831683 64.2475247525 930.316831683 64.2475247525 887.5 -37.5 c 128,-1,29
 841 -148 841 -148 760.5 -197 c 128,-1,30
 680 -246 680 -246 589 -246 c 0,10,11
EndSplineSet
EndChar

StartChar: Lcaron
Encoding: 317 317 102
Width: 922
VWidth: 2441
GlyphClass: 2
Flags: HW
AnchorPoint: "Anchor-4" 235 762 basechar 0
AnchorPoint: "Anchor-2" 550 0 basechar 0
AnchorPoint: "Anchor-1" 396 1116 basechar 0
AnchorPoint: "Anchor-0" 440 1521 basechar 0
LayerCount: 2
Fore
SplineSet
144 1521 m 1,0,-1
 333 1521 l 1,1,-1
 333 1504 l 1,2,3
 319 1490 319 1490 314.5 1473 c 128,-1,4
 310 1456 310 1456 310 1414 c 2,5,-1
 310 147 l 1,6,-1
 967 147 l 1,7,-1
 967 0 l 1,8,-1
 144 0 l 1,9,-1
 144 1521 l 1,0,-1
745 1006 m 1,10,-1
 681 1062 l 1,11,12
 732 1113 732 1113 764 1169 c 128,-1,13
 796 1225 796 1225 796 1262 c 0,14,15
 796 1289 796 1289 773 1309.5 c 128,-1,16
 750 1330 750 1330 728 1354.5 c 128,-1,17
 706 1379 706 1379 706 1414 c 0,18,19
 706 1463 706 1463 736.5 1494.5 c 128,-1,20
 767 1526 767 1526 813 1526 c 128,-1,21
 859 1526 859 1526 895.5 1484 c 128,-1,22
 932.005291005 1441.99391172 932.005291005 1441.99391172 932.005291005 1368.38985471 c 0,23,24
 932.005291005 1216.87830688 932.005291005 1216.87830688 745 1006 c 1,10,-1
EndSplineSet
EndChar

StartChar: uni01C8
Encoding: 456 456 106
Width: 922
VWidth: 2365
GlyphClass: 1
Flags: HW
LayerCount: 2
Fore
SplineSet
494 -246 m 0,0,1
 403 -246 403 -246 333 -210.5 c 128,-1,2
 263 -175 263 -175 210 -106 c 1,3,-1
 310 34 l 1,4,5
 323 19 323 19 326 1 c 128,-1,6
 329 -17 329 -17 345 -38 c 128,-1,7
 361 -59 361 -59 410 -86 c 0,8,9
 452 -108 452 -108 505 -108 c 0,10,11
 592 -108 592 -108 652 -45 c 128,-1,12
 712 18 712 18 712 181 c 2,13,-1
 712 1029 l 1,14,-1
 431 1029 l 1,15,-1
 431 1158 l 1,16,-1
 864 1158 l 1,17,-1
 864 190 l 2,18,19
 864 35 864 35 815 -60 c 128,-1,20
 766 -155 766 -155 682 -198.5 c 128,-1,21
 598 -242 598 -242 494 -246 c 0,0,1
129 141 m 1,22,-1
 129 1528 l 1,23,-1
 300 1528 l 1,24,25
 300 1506 300 1506 291.5 1489 c 128,-1,26
 283 1472 283 1472 283 1451 c 2,27,-1
 283 277 l 1,28,-1
 599 277 l 1,29,-1
 599 141 l 1,30,-1
 129 141 l 1,22,-1
768 1374 m 0,31,32
 726 1374 726 1374 694.5 1406 c 128,-1,33
 663 1438 663 1438 663 1483 c 0,34,35
 663 1530 663 1530 693.5 1562 c 128,-1,36
 724 1594 724 1594 768 1594 c 0,37,38
 813 1594 813 1594 844 1561 c 128,-1,39
 875 1528 875 1528 875 1483 c 128,-1,40
 875 1438 875 1438 844 1406 c 128,-1,41
 813 1374 813 1374 768 1374 c 0,31,32
EndSplineSet
EndChar

StartChar: Lslash
Encoding: 321 321 108
Width: 922
VWidth: 2441
GlyphClass: 1
Flags: HW
LayerCount: 2
Fore
SplineSet
151 0 m 1,0,-1
 151 594 l 1,1,-1
 42 552 l 1,2,-1
 42 701 l 1,3,-1
 151 745 l 1,4,-1
 151 1521 l 1,5,-1
 326 1521 l 2,6,7
 333 1521 333 1521 333 1516 c 0,8,9
 333 1506 333 1506 323 1494 c 128,-1,10
 313 1482 313 1482 309 1438 c 1,11,-1
 309 801 l 1,12,-1
 653 932 l 2,13,14
 669 939 669 939 683 945.5 c 128,-1,15
 697 952 697 952 705 957 c 1,16,-1
 705 801 l 1,17,-1
 309 652 l 1,18,-1
 309 147 l 1,19,-1
 932 147 l 1,20,-1
 932 0 l 1,21,-1
 151 0 l 1,0,-1
EndSplineSet
EndChar

StartChar: M
Encoding: 77 77 109
Width: 922
VWidth: 2441
GlyphClass: 2
Flags: HW
AnchorPoint: "Anchor-2" 530 0 basechar 0
AnchorPoint: "Anchor-0" 530 1521 basechar 0
LayerCount: 2
Fore
SplineSet
87 0 m 1,0,-1
 87 1521 l 1,1,-1
 209 1521 l 1,2,-1
 530 792 l 1,3,-1
 857 1523 l 1,4,-1
 977 1523 l 1,5,-1
 977 0 l 1,6,-1
 831 0 l 1,7,-1
 831 1132 l 1,8,-1
 548 535 l 1,9,-1
 492 535 l 1,10,-1
 231 1125 l 1,11,-1
 231 0 l 1,12,-1
 87 0 l 1,0,-1
EndSplineSet
EndChar

StartChar: N
Encoding: 78 78 111
Width: 922
VWidth: 2441
GlyphClass: 2
Flags: HW
AnchorPoint: "Anchor-2" 546 0 basechar 0
AnchorPoint: "Anchor-0" 546 1521 basechar 0
LayerCount: 2
Fore
SplineSet
109 1521 m 1,0,-1
 262 1521 l 1,1,-1
 824 408 l 1,2,-1
 824 1521 l 1,3,-1
 999 1521 l 1,4,-1
 999 1504 l 1,5,6
 985 1490 985 1490 980.5 1473 c 128,-1,7
 976 1456 976 1456 976 1414 c 2,8,-1
 976 0 l 1,9,-1
 851 0 l 1,10,-1
 259 1181 l 1,11,-1
 259 0 l 1,12,-1
 109 0 l 1,13,-1
 109 1521 l 1,0,-1
EndSplineSet
EndChar

StartChar: Eng
Encoding: 330 330 117
Width: 922
VWidth: 2344
GlyphClass: 2
Flags: HW
AnchorPoint: "Anchor-2" 492 159 basechar 0
AnchorPoint: "Anchor-0" 492 1521 basechar 0
LayerCount: 2
Fore
SplineSet
745 1521 m 1,0,-1
 897 1521 l 1,1,2
 897 1508 897 1508 890 1497 c 128,-1,3
 883 1486 883 1486 883 1462 c 2,4,-1
 883 159 l 2,5,6
 883 -49 883 -49 800.5 -147.5 c 128,-1,7
 718 -246 718 -246 582 -246 c 0,8,9
 488 -246 488 -246 409 -192 c 1,10,-1
 479 -56 l 1,11,12
 496 -62 496 -62 503.5 -74 c 128,-1,13
 511 -86 511 -86 528 -97 c 128,-1,14
 545 -108 545 -108 586 -108 c 0,15,16
 678 -108 678 -108 710.5 -31.5 c 128,-1,17
 743 45 743 45 745 207 c 1,18,-1
 234 1217 l 1,19,-1
 234 159 l 1,20,-1
 98 159 l 1,21,-1
 98 1521 l 1,22,-1
 238 1521 l 1,23,-1
 745 524 l 1,24,-1
 745 1521 l 1,0,-1
EndSplineSet
EndChar

StartChar: O
Encoding: 79 79 120
Width: 922
VWidth: 2441
GlyphClass: 2
Flags: HW
AnchorPoint: "Anchor-4" 499 762 basechar 0
AnchorPoint: "Anchor-3" 571 24 basechar 0
AnchorPoint: "Anchor-2" 499 0 basechar 0
AnchorPoint: "Anchor-1" 755 1426 basechar 0
AnchorPoint: "Anchor-0" 499 1521 basechar 0
LayerCount: 2
Fore
SplineSet
499 119 m 128,-1,1
 636 119 636 119 714.5 274 c 128,-1,2
 793 429 793 429 793 752 c 0,3,4
 793 1057 793 1057 714.5 1220.5 c 128,-1,5
 636 1384 636 1384 499 1384 c 128,-1,6
 362 1384 362 1384 282.5 1220.5 c 128,-1,7
 203 1057 203 1057 203 752 c 0,8,9
 203 430 203 430 282.5 274.5 c 128,-1,0
 362 119 362 119 499 119 c 128,-1,1
499 -27 m 0,10,11
 284 -27 284 -27 168.5 168.5 c 128,-1,12
 53 364 53 364 53 752 c 0,13,14
 53 1128 53 1128 168 1329.5 c 128,-1,15
 283 1531 283 1531 499 1531 c 0,16,17
 712 1531 712 1531 827.5 1329.5 c 128,-1,18
 943 1128 943 1128 943 752 c 0,19,20
 943 363 943 363 827.5 168 c 128,-1,21
 712 -27 712 -27 499 -27 c 0,10,11
EndSplineSet
Substitution2: "Single Substitution lookup 29 subtable" ordmasculine
Substitution2: "'aalt' Access All Alternates in Latin lookup 0 subtable" ordmasculine
EndChar

StartChar: Oslash
Encoding: 216 216 148
Width: 922
VWidth: 2441
GlyphClass: 2
Flags: HW
AnchorPoint: "Anchor-4" 499 762 basechar 0
AnchorPoint: "Anchor-3" 571 24 basechar 0
AnchorPoint: "Anchor-2" 499 0 basechar 0
AnchorPoint: "Anchor-1" 755 1426 basechar 0
AnchorPoint: "Anchor-0" 499 1521 basechar 0
LayerCount: 2
Fore
SplineSet
499 119 m 0,0,1
 636 119 636 119 714.5 274 c 128,-1,2
 793 429 793 429 793 752 c 0,3,4
 793 1025 793 1025 729 1186 c 1,5,-1
 313 219 l 1,6,7
 387 119 387 119 499 119 c 0,0,1
203 752 m 0,8,9
 203 498 203 498 255 345 c 1,10,-1
 666 1299 l 1,11,12
 598.781609195 1384.01149425 598.781609195 1384.01149425 501.271766416 1384.01149425 c 0,13,14
 500.137931034 1384.01149425 500.137931034 1384.01149425 499 1384 c 0,15,16
 362 1384 362 1384 282.5 1220.5 c 128,-1,17
 203 1057 203 1057 203 752 c 0,8,9
175 -103 m 1,18,-1
 82 -56 l 1,19,-1
 175 159 l 1,20,21
 53 357 53 357 53 752 c 0,22,23
 53 1128 53 1128 168 1329.5 c 128,-1,24
 283 1531 283 1531 499 1531 c 0,25,26
 634 1531 634 1531 731 1447 c 1,27,-1
 824 1665 l 1,28,-1
 913 1614 l 1,29,-1
 806 1365 l 1,30,31
 943 1162 943 1162 943 752 c 0,32,33
 943 363 943 363 826.5 168 c 128,-1,34
 710 -27 710 -27 499 -27 c 0,35,36
 349 -27 349 -27 248 68 c 1,37,-1
 175 -103 l 1,18,-1
EndSplineSet
EndChar

StartChar: OE
Encoding: 338 338 154
Width: 922
VWidth: 2441
GlyphClass: 1
Flags: HW
LayerCount: 2
Fore
SplineSet
335 132 m 0,0,1
 383 132 383 132 419.5 183.5 c 128,-1,2
 456 235 456 235 468 315 c 1,3,-1
 468 1184 l 1,4,5
 448 1270 448 1270 413.5 1336 c 128,-1,6
 379 1402 379 1402 320 1402 c 0,7,8
 272 1402 272 1402 232.5 1345.5 c 128,-1,9
 193 1289 193 1289 169 1150 c 128,-1,10
 145 1011 145 1011 145 764 c 0,11,12
 145 464 145 464 194.5 298 c 128,-1,13
 244 132 244 132 335 132 c 0,0,1
318 -17 m 0,14,15
 181 -17 181 -17 98.5 165 c 128,-1,16
 16 347 16 347 16 762 c 0,17,18
 16 1163 16 1163 96.5 1353 c 128,-1,19
 177 1543 177 1543 320 1543 c 0,20,21
 360 1543 360 1543 398 1523.5 c 128,-1,22
 436 1504 436 1504 470 1456 c 1,23,-1
 470 1523 l 1,24,-1
 906 1523 l 1,25,-1
 906 1374 l 1,26,-1
 595 1374 l 1,27,-1
 595 869 l 1,28,-1
 859 869 l 1,29,-1
 859 718 l 1,30,-1
 595 718 l 1,31,-1
 595 149 l 1,32,-1
 902 149 l 1,33,-1
 902 0 l 1,34,-1
 468 0 l 1,35,-1
 468 73 l 1,36,37
 435 24 435 24 398.5 3.5 c 128,-1,38
 362 -17 362 -17 318 -17 c 0,14,15
EndSplineSet
EndChar

StartChar: P
Encoding: 80 80 155
Width: 922
VWidth: 2441
GlyphClass: 2
Flags: HW
AnchorPoint: "Anchor-2" 205 0 basechar 0
AnchorPoint: "Anchor-0" 550 1521 basechar 0
LayerCount: 2
Fore
SplineSet
293 820 m 1,0,-1
 557 820 l 2,1,2
 706 820 706 820 773 893.5 c 128,-1,3
 840 967 840 967 840 1088 c 0,4,5
 840 1207 840 1207 773 1286 c 128,-1,6
 706 1365 706 1365 559 1365 c 2,7,-1
 293 1365 l 1,8,-1
 293 820 l 1,0,-1
126 0 m 1,9,-1
 126 1521 l 1,10,-1
 564 1521 l 2,11,12
 796 1521 796 1521 900 1399 c 128,-1,13
 1004 1277 1004 1277 1004 1094 c 0,14,15
 1004 908 1004 908 900 789.5 c 128,-1,16
 796 671 796 671 576 671 c 2,17,-1
 293 671 l 1,18,-1
 293 0 l 1,19,-1
 126 0 l 1,9,-1
EndSplineSet
EndChar

StartChar: Thorn
Encoding: 222 222 156
Width: 922
VWidth: 2441
GlyphClass: 1
Flags: HW
LayerCount: 2
Fore
SplineSet
288 532 m 1,0,-1
 576 532 l 2,1,2
 720 532 720 532 781.5 610.5 c 128,-1,3
 843 689 843 689 843 801 c 128,-1,4
 843 913 843 913 776.5 994.5 c 128,-1,5
 710 1076 710 1076 561 1076 c 2,6,-1
 288 1076 l 1,7,-1
 288 532 l 1,0,-1
126 0 m 1,8,-1
 126 1521 l 1,9,-1
 308 1521 l 1,10,11
 313 1516 313 1516 312 1514 c 0,12,13
 312 1507 312 1507 302.5 1491 c 128,-1,14
 293 1475 293 1475 288 1453 c 1,15,-1
 288 1233 l 1,16,-1
 571 1233 l 2,17,18
 722 1233 722 1233 819 1175.5 c 128,-1,19
 916 1118 916 1118 962.5 1020.5 c 128,-1,20
 1009 923 1009 923 1009 806 c 128,-1,21
 1009 689 1009 689 963.5 595 c 128,-1,22
 918 501 918 501 822.5 445 c 128,-1,23
 727 389 727 389 576 389 c 2,24,-1
 288 389 l 1,25,-1
 288 0 l 1,26,-1
 126 0 l 1,8,-1
EndSplineSet
EndChar

StartChar: Q
Encoding: 81 81 157
Width: 922
VWidth: 2388
GlyphClass: 2
Flags: HW
AnchorPoint: "Anchor-2" 503 87 basechar 0
AnchorPoint: "Anchor-0" 503 1522 basechar 0
LayerCount: 2
Fore
SplineSet
514 212 m 0,0,1
 583 212 583 212 650 266 c 128,-1,2
 717 320 717 320 762 441 c 128,-1,3
 807 562 807 562 807 764 c 0,4,5
 807 955 807 955 778 1078.5 c 128,-1,6
 749 1202 749 1202 703 1272 c 128,-1,7
 657 1342 657 1342 604.5 1370.5 c 128,-1,8
 552 1399 552 1399 505 1399 c 0,9,10
 405 1399 405 1399 338 1323.5 c 128,-1,11
 271 1248 271 1248 237 1119 c 128,-1,12
 203 990 203 990 203 832 c 0,13,14
 203 542 203 542 286 377 c 128,-1,15
 369 212 369 212 514 212 c 0,0,1
807 -245 m 1,16,17
 781.546511628 -246.406976744 781.546511628 -246.406976744 758.072606814 -246.406976744 c 0,18,19
 598.023255814 -246.406976744 598.023255814 -246.406976744 530 -181 c 0,20,21
 452 -106 452 -106 452 71 c 1,22,23
 349 89 349 89 259.5 170.5 c 128,-1,24
 170 252 170 252 114 407 c 128,-1,25
 58 562 58 562 58 797 c 0,26,27
 58 1014 58 1014 99.5 1156 c 128,-1,28
 141 1298 141 1298 209 1382.5 c 128,-1,29
 277 1467 277 1467 354 1502.5 c 128,-1,30
 431 1538 431 1538 505 1538 c 0,31,32
 619 1538 619 1538 722 1464 c 128,-1,33
 825 1390 825 1390 888.5 1229 c 0,34,35
 948.237037037 1077.54074074 948.237037037 1077.54074074 948.237037037 834.042194787 c 0,36,37
 948.237037037 818.703703704 948.237037037 818.703703704 948 803 c 1,38,39
 948 474 948 474 855 296 c 128,-1,40
 762 118 762 118 581 71 c 1,41,42
 585 -5 585 -5 613.5 -53.5 c 128,-1,43
 642 -102 642 -102 727 -102 c 1,44,-1
 890 -93 l 1,45,-1
 885 -245 l 1,46,-1
 807 -245 l 1,16,17
EndSplineSet
EndChar

StartChar: R
Encoding: 82 82 158
Width: 922
VWidth: 2441
GlyphClass: 2
Flags: HW
AnchorPoint: "Anchor-2" 544 0 basechar 0
AnchorPoint: "Anchor-0" 544 1521 basechar 0
LayerCount: 2
Fore
SplineSet
283 820 m 1,0,-1
 537 820 l 2,1,2
 677 820 677 820 743.5 893.5 c 128,-1,3
 810 967 810 967 810 1088 c 0,4,5
 810 1210 810 1210 743 1287.5 c 128,-1,6
 676 1365 676 1365 537 1365 c 2,7,-1
 283 1365 l 1,8,-1
 283 820 l 1,0,-1
120 0 m 1,9,-1
 120 1521 l 1,10,-1
 519 1521 l 2,11,12
 759 1521 759 1521 865 1402.5 c 128,-1,13
 971 1284 971 1284 971 1088 c 0,14,15
 971 997 971 997 937.5 912 c 128,-1,16
 904 827 904 827 842.5 765 c 128,-1,17
 781 703 781 703 696 681 c 1,18,-1
 1010 0 l 1,19,-1
 835 0 l 1,20,-1
 530 674 l 1,21,-1
 283 674 l 1,22,-1
 283 0 l 1,23,-1
 120 0 l 1,9,-1
EndSplineSet
EndChar

StartChar: S
Encoding: 83 83 166
Width: 922
VWidth: 2441
GlyphClass: 2
Flags: HW
AnchorPoint: "Anchor-2" 542 0 basechar 0
AnchorPoint: "Anchor-0" 573 1521 basechar 0
LayerCount: 2
Fore
SplineSet
542 -24 m 0,0,1
 276 -24 276 -24 114 163 c 1,2,-1
 193 322 l 1,3,-1
 203 345 l 1,4,-1
 219 337 l 1,5,6
 226 318 226 318 230.5 295.5 c 128,-1,7
 235 273 235 273 261 242 c 1,8,9
 315 191 315 191 390.5 158.5 c 128,-1,10
 466 126 466 126 561 126 c 0,11,12
 683 126 683 126 763 200.5 c 128,-1,13
 843 275 843 275 843 391 c 0,14,15
 843 459 843 459 819.5 508 c 128,-1,16
 796 557 796 557 729 604.5 c 128,-1,17
 662 652 662 652 535 713 c 1,18,19
 320 806 320 806 239.5 920.5 c 128,-1,20
 159 1035 159 1035 159 1165 c 0,21,22
 159 1340 159 1340 269.5 1440 c 128,-1,23
 380 1540 380 1540 576 1540 c 0,24,25
 688 1540 688 1540 785.5 1491 c 128,-1,26
 883 1442 883 1442 955 1355 c 1,27,-1
 869 1223 l 1,28,-1
 857 1204 l 1,29,-1
 843 1211 l 1,30,31
 838 1230 838 1230 832.5 1252 c 128,-1,32
 827 1274 827 1274 803 1304 c 1,33,34
 749 1358 749 1358 690.5 1379 c 128,-1,35
 632 1400 632 1400 552 1400 c 0,36,37
 445 1400 445 1400 383.5 1337 c 128,-1,38
 322 1274 322 1274 322 1177 c 0,39,40
 322 1109 322 1109 349 1055 c 128,-1,41
 376 1001 376 1001 446.5 950 c 128,-1,42
 517 899 517 899 654 840 c 0,43,44
 789 779 789 779 864 715.5 c 128,-1,45
 939 652 939 652 969 580 c 128,-1,46
 999 508 999 508 999 415 c 0,47,48
 999 305 999 305 952.5 204 c 128,-1,49
 906 103 906 103 804.5 39.5 c 128,-1,50
 703 -24 703 -24 542 -24 c 0,0,1
EndSplineSet
EndChar

StartChar: uni1E9E
Encoding: 7838 7838 177
Width: 922
VWidth: 2441
GlyphClass: 1
Flags: HW
LayerCount: 2
Fore
SplineSet
615 -24 m 0,0,1
 482 -24 482 -24 384 49 c 1,2,-1
 434 186 l 1,3,4
 473 156 473 156 516 141 c 128,-1,5
 559 126 559 126 600 126 c 0,6,7
 706 126 706 126 781 213 c 128,-1,8
 856 300 856 300 856 464 c 0,9,10
 856 545 856 545 830.5 619.5 c 128,-1,11
 805 694 805 694 735 741.5 c 128,-1,12
 665 789 665 789 531 789 c 2,13,-1
 465 789 l 1,14,-1
 465 927 l 1,15,-1
 759 1223 l 1,16,17
 759 1293 759 1293 738.5 1354.5 c 128,-1,18
 718 1416 718 1416 668.5 1455 c 128,-1,19
 619 1494 619 1494 536 1494 c 0,20,21
 469 1494 469 1494 409.5 1462.5 c 128,-1,22
 350 1431 350 1431 311 1357.5 c 128,-1,23
 272 1284 272 1284 272 1160 c 2,24,-1
 272 0 l 1,25,-1
 118 0 l 1,26,-1
 118 1128 l 2,27,28
 118 1321 118 1321 179.5 1430.5 c 128,-1,29
 241 1540 241 1540 336.5 1586.5 c 128,-1,30
 432 1633 432 1633 536 1633 c 0,31,32
 664 1633 664 1633 748 1574.5 c 128,-1,33
 832 1516 832 1516 874 1418.5 c 128,-1,34
 916 1321 916 1321 916 1204 c 1,35,-1
 622 920 l 1,36,37
 808 899 808 899 908 780.5 c 128,-1,38
 1008 662 1008 662 1008 442 c 0,39,40
 1008 279 1008 279 955 174.5 c 128,-1,41
 902 70 902 70 811.5 23 c 128,-1,42
 721 -24 721 -24 615 -24 c 0,0,1
EndSplineSet
EndChar

StartChar: T
Encoding: 84 84 179
Width: 922
VWidth: 2441
GlyphClass: 2
Flags: HW
AnchorPoint: "Anchor-4" 504 762 basechar 0
AnchorPoint: "Anchor-2" 515 0 basechar 0
AnchorPoint: "Anchor-0" 515 1521 basechar 0
LayerCount: 2
Fore
SplineSet
425 0 m 1,0,-1
 425 1372 l 1,1,-1
 64 1372 l 1,2,-1
 64 1523 l 1,3,-1
 954 1523 l 1,4,-1
 954 1372 l 1,5,-1
 578 1372 l 1,6,-1
 578 0 l 1,7,-1
 425 0 l 1,0,-1
EndSplineSet
EndChar

StartChar: Tbar
Encoding: 358 358 180
Width: 922
VWidth: 2441
GlyphClass: 2
Flags: HW
AnchorPoint: "Anchor-4" 504 762 basechar 0
AnchorPoint: "Anchor-2" 515 0 basechar 0
AnchorPoint: "Anchor-0" 515 1521 basechar 0
LayerCount: 2
Fore
SplineSet
425 0 m 1,0,-1
 425 691 l 1,1,-1
 181 691 l 1,2,-1
 181 830 l 1,3,-1
 425 830 l 1,4,-1
 425 1372 l 1,5,-1
 64 1372 l 1,6,-1
 64 1523 l 1,7,-1
 954 1523 l 1,8,-1
 954 1372 l 1,9,-1
 578 1372 l 1,10,-1
 578 830 l 1,11,-1
 849 830 l 1,12,-1
 849 691 l 1,13,-1
 578 691 l 1,14,-1
 578 0 l 1,15,-1
 425 0 l 1,0,-1
EndSplineSet
EndChar

StartChar: U
Encoding: 85 85 186
Width: 922
VWidth: 2441
GlyphClass: 2
Flags: HW
AnchorPoint: "Anchor-3" 664 24 basechar 0
AnchorPoint: "Anchor-2" 550 0 basechar 0
AnchorPoint: "Anchor-1" 999 1521 basechar 0
AnchorPoint: "Anchor-0" 550 1521 basechar 0
LayerCount: 2
Fore
SplineSet
552 -27 m 0,0,1
 328 -27 328 -27 219 113.5 c 128,-1,2
 110 254 110 254 110 515 c 2,3,-1
 110 1521 l 1,4,-1
 291 1521 l 1,5,-1
 291 1504 l 1,6,7
 277 1490 277 1490 272.5 1473 c 128,-1,8
 268 1456 268 1456 268 1414 c 2,9,-1
 268 513 l 2,10,11
 268 327 268 327 332 220.5 c 128,-1,12
 396 114 396 114 554 114 c 0,13,14
 715 114 715 114 779 223.5 c 128,-1,15
 843 333 843 333 843 520 c 2,16,-1
 843 1521 l 1,17,-1
 999 1521 l 1,18,-1
 999 522 l 2,19,20
 999 234 999 234 879 103.5 c 128,-1,21
 759 -27 759 -27 552 -27 c 0,0,1
EndSplineSet
EndChar

StartChar: V
Encoding: 86 86 209
Width: 922
VWidth: 2441
GlyphClass: 2
Flags: HW
AnchorPoint: "Anchor-2" 492 0 basechar 0
AnchorPoint: "Anchor-0" 492 1521 basechar 0
LayerCount: 2
Fore
SplineSet
463 -10 m 1,0,-1
 50 1523 l 1,1,-1
 198 1523 l 1,2,-1
 507 373 l 1,3,-1
 798 1521 l 1,4,-1
 940 1521 l 1,5,-1
 534 -10 l 1,6,-1
 463 -10 l 1,0,-1
EndSplineSet
EndChar

StartChar: W
Encoding: 87 87 210
Width: 922
VWidth: 2441
GlyphClass: 2
Flags: HW
AnchorPoint: "Anchor-2" 481 0 basechar 0
AnchorPoint: "Anchor-0" 491 1521 basechar 0
LayerCount: 2
Fore
SplineSet
220 0 m 1,0,-1
 32 1521 l 1,1,-1
 160 1521 l 1,2,-1
 283 517 l 1,3,-1
 469 1409 l 1,4,-1
 515 1409 l 1,5,-1
 701 513 l 1,6,-1
 806 1521 l 1,7,-1
 922 1521 l 1,8,-1
 735 0 l 1,9,-1
 681 0 l 1,10,-1
 483 979 l 1,11,-1
 279 0 l 1,12,-1
 220 0 l 1,0,-1
EndSplineSet
EndChar

StartChar: X
Encoding: 88 88 215
Width: 922
VWidth: 2441
GlyphClass: 2
Flags: HW
AnchorPoint: "Anchor-2" 522 0 basechar 0
AnchorPoint: "Anchor-0" 522 1521 basechar 0
LayerCount: 2
Fore
SplineSet
86 0 m 1,0,-1
 436 776 l 1,1,-1
 93 1523 l 1,2,-1
 255 1523 l 1,3,-1
 522 955 l 1,4,-1
 786 1523 l 1,5,-1
 936 1523 l 1,6,-1
 613 778 l 1,7,-1
 976 0 l 1,8,-1
 807 0 l 1,9,-1
 524 594 l 1,10,-1
 248 0 l 1,11,-1
 86 0 l 1,0,-1
EndSplineSet
EndChar

StartChar: Y
Encoding: 89 89 216
Width: 922
VWidth: 2441
GlyphClass: 2
Flags: HW
AnchorPoint: "Anchor-2" 515 0 basechar 0
AnchorPoint: "Anchor-0" 500 1521 basechar 0
LayerCount: 2
Fore
SplineSet
437 0 m 1,0,-1
 437 596 l 1,1,-1
 55 1521 l 1,2,-1
 222 1521 l 1,3,-1
 521 794 l 1,4,-1
 792 1521 l 1,5,-1
 945 1521 l 1,6,-1
 595 596 l 1,7,-1
 595 0 l 1,8,-1
 437 0 l 1,0,-1
EndSplineSet
EndChar

StartChar: Z
Encoding: 90 90 226
Width: 922
VWidth: 2441
GlyphClass: 2
Flags: HW
AnchorPoint: "Anchor-2" 582 0 basechar 0
AnchorPoint: "Anchor-0" 559 1521 basechar 0
LayerCount: 2
Fore
SplineSet
107 117 m 1,0,-1
 780 1370 l 1,1,-1
 134 1370 l 1,2,-1
 134 1521 l 1,3,-1
 961 1521 l 1,4,-1
 961 1404 l 1,5,-1
 301 149 l 1,6,-1
 892 149 l 2,7,8
 931 149 931 149 948.5 154 c 128,-1,9
 966 159 966 159 981 173 c 1,10,-1
 997 173 l 1,11,-1
 997 0 l 1,12,-1
 107 0 l 1,13,-1
 107 117 l 1,0,-1
EndSplineSet
EndChar

StartChar: a
Encoding: 97 97 232
Width: 922
VWidth: 2441
GlyphClass: 2
Flags: HW
AnchorPoint: "Anchor-3" 852 0 basechar 0
AnchorPoint: "Anchor-2" 542 0 basechar 0
AnchorPoint: "Anchor-0" 550 1111 basechar 0
LayerCount: 2
Fore
SplineSet
268 293 m 0,0,1
 268 190 268 190 328.5 148.5 c 128,-1,2
 389 107 389 107 478 107 c 0,3,4
 637 107 637 107 730 214.5 c 128,-1,5
 823 322 823 322 832 522 c 1,6,7
 781 529 781 529 727.5 534.5 c 128,-1,8
 674 540 674 540 625 540 c 0,9,10
 466 540 466 540 367 482.5 c 128,-1,11
 268 425 268 425 268 293 c 0,0,1
464 -27 m 0,12,13
 291 -27 291 -27 199 61 c 128,-1,14
 107 149 107 149 107 284 c 0,15,16
 107 410 107 410 174.5 496.5 c 128,-1,17
 242 583 242 583 356.5 627 c 128,-1,18
 471 671 471 671 613 671 c 0,19,20
 662 671 662 671 716.5 667.5 c 128,-1,21
 771 664 771 664 832 657 c 1,22,23
 820 853 820 853 745.5 925 c 128,-1,24
 671 997 671 997 525 997 c 0,25,26
 374 997 374 997 256 879 c 1,27,-1
 179 991 l 1,28,29
 321 1140 321 1140 535 1140 c 0,30,31
 672 1140 672 1140 770.5 1091 c 128,-1,32
 869 1042 869 1042 922.5 924 c 128,-1,33
 976 806 976 806 976 594 c 2,34,-1
 976 0 l 1,35,-1
 803 0 l 1,36,-1
 803 170 l 1,37,38
 766 89 766 89 708 47 c 128,-1,39
 650 5 650 5 586 -11 c 128,-1,40
 522 -27 522 -27 464 -27 c 0,12,13
EndSplineSet
Substitution2: "Single Substitution lookup 29 subtable" ordfeminine
Substitution2: "'aalt' Access All Alternates in Latin lookup 0 subtable" ordfeminine
EndChar

StartChar: ae
Encoding: 230 230 257
Width: 922
VWidth: 2441
GlyphClass: 1
Flags: HW
LayerCount: 2
Fore
SplineSet
260 119 m 0,0,1
 323 119 323 119 352 175.5 c 128,-1,2
 381 232 381 232 388 327 c 128,-1,3
 395 422 395 422 395 535 c 1,4,5
 252 525 252 525 195 476 c 128,-1,6
 138 427 138 427 138 298 c 0,7,8
 138 195 138 195 169.5 157 c 128,-1,9
 201 119 201 119 260 119 c 0,0,1
515 681 m 1,10,-1
 778 694 l 1,11,12
 778 848 778 848 750 926 c 128,-1,13
 722 1004 722 1004 657 1004 c 0,14,15
 589 1004 589 1004 552 920.5 c 128,-1,16
 515 837 515 837 515 681 c 1,10,-1
254 -27 m 0,17,18
 123 -27 123 -27 67 68 c 128,-1,19
 11 163 11 163 11 300 c 0,20,21
 11 656 11 656 395 678 c 1,22,23
 395 837 395 837 363.5 920.5 c 128,-1,24
 332 1004 332 1004 254 1004 c 0,25,26
 172 1004 172 1004 116 904 c 1,27,-1
 50 1011 l 1,28,29
 129.389312977 1140.00763359 129.389312977 1140.00763359 259.987762951 1140.00763359 c 0,30,31
 260.992366412 1140.00763359 260.992366412 1140.00763359 262 1140 c 0,32,33
 330 1140 330 1140 384 1100 c 128,-1,34
 438 1060 438 1060 466 991 c 1,35,36
 497 1059 497 1059 550 1099.5 c 128,-1,37
 603 1140 603 1140 659 1140 c 0,38,39
 784 1140 784 1140 838.5 1014 c 128,-1,40
 893 888 893 888 893 654 c 2,41,-1
 893 561 l 1,42,-1
 515 547 l 1,43,-1
 515 427 l 2,44,45
 515 285 515 285 564.5 198.5 c 128,-1,46
 614 112 614 112 702 112 c 0,47,48
 786 112 786 112 834 200 c 1,49,-1
 901 98 l 1,50,51
 819 -26 819 -26 691 -27 c 0,52,53
 621 -27 621 -27 558 15.5 c 128,-1,54
 495 58 495 58 460 135 c 1,55,56
 429 60 429 60 374.5 16.5 c 128,-1,57
 320 -27 320 -27 254 -27 c 0,17,18
EndSplineSet
EndChar

StartChar: b
Encoding: 98 98 259
Width: 922
VWidth: 2441
GlyphClass: 2
Flags: HW
AnchorPoint: "Anchor-2" 610 0 basechar 0
AnchorPoint: "Anchor-0" 610 1116 basechar 0
LayerCount: 2
Fore
SplineSet
566 126 m 0,0,1
 636 126 636 126 699 164.5 c 128,-1,2
 762 203 762 203 801 297 c 128,-1,3
 840 391 840 391 840 559 c 0,4,5
 840 791 840 791 765.5 892.5 c 128,-1,6
 691 994 691 994 573 994 c 0,7,8
 451 994 451 994 374.5 878 c 128,-1,9
 298 762 298 762 298 554 c 0,10,11
 298 354 298 354 358.5 240 c 128,-1,12
 419 126 419 126 566 126 c 0,0,1
589 -27 m 0,13,14
 496 -27 496 -27 419 19.5 c 128,-1,15
 342 66 342 66 293 147 c 1,16,-1
 242 0 l 1,17,-1
 132 0 l 1,18,-1
 132 1624 l 1,19,-1
 317 1624 l 1,20,-1
 317 1607 l 1,21,22
 305 1593 305 1593 301.5 1575.5 c 128,-1,23
 298 1558 298 1558 298 1516 c 2,24,-1
 298 945 l 1,25,26
 344 1038 344 1038 429.5 1090 c 128,-1,27
 515 1142 515 1142 598 1142 c 0,28,29
 782 1142 782 1142 895.5 1005.5 c 128,-1,30
 1009 869 1009 869 1009 569 c 0,31,32
 1009 359 1009 359 947.5 228.5 c 128,-1,33
 886 98 886 98 790 35.5 c 128,-1,34
 694 -27 694 -27 589 -27 c 0,13,14
EndSplineSet
EndChar

StartChar: c
Encoding: 99 99 261
Width: 922
VWidth: 2441
GlyphClass: 2
Flags: HW
AnchorPoint: "Anchor-2" 627 0 basechar 0
AnchorPoint: "Anchor-0" 627 1116 basechar 0
LayerCount: 2
Fore
SplineSet
625 -27 m 0,0,1
 476 -27 476 -27 362.5 46 c 128,-1,2
 249 119 249 119 185.5 251.5 c 128,-1,3
 122 384 122 384 122 557 c 0,4,5
 122 736 122 736 188 866.5 c 128,-1,6
 254 997 254 997 367 1067 c 128,-1,7
 480 1137 480 1137 622 1137 c 0,8,9
 746 1137 746 1137 845.5 1084.5 c 128,-1,10
 945 1032 945 1032 1004 939 c 1,11,-1
 904 832 l 1,12,-1
 888 813 l 1,13,-1
 876 825 l 1,14,15
 874 844 874 844 866.5 862.5 c 128,-1,16
 859 881 859 881 832 913 c 1,17,18
 786 957 786 957 732 975.5 c 128,-1,19
 678 994 678 994 608 994 c 0,20,21
 525 994 525 994 452.5 945 c 128,-1,22
 380 896 380 896 335.5 801 c 128,-1,23
 291 706 291 706 291 566 c 0,24,25
 291 363 291 363 387.5 244.5 c 128,-1,26
 484 126 484 126 634 126 c 0,27,28
 788 126 788 126 896 259 c 1,29,-1
 988 137 l 1,30,31
 842 -27 842 -27 625 -27 c 0,0,1
EndSplineSet
EndChar

StartChar: d
Encoding: 100 100 268
Width: 922
VWidth: 2441
GlyphClass: 2
Flags: HW
AnchorPoint: "Anchor-4" 792 1340 basechar 0
AnchorPoint: "Anchor-2" 550 0 basechar 0
AnchorPoint: "Anchor-1" 1032 1116 basechar 0
AnchorPoint: "Anchor-0" 550 1116 basechar 0
LayerCount: 2
Fore
SplineSet
538 126 m 0,0,1
 677 126 677 126 736.5 246 c 128,-1,2
 796 366 796 366 796 564 c 128,-1,3
 796 762 796 762 730 881.5 c 128,-1,4
 664 1001 664 1001 525 1001 c 0,5,6
 393 1001 393 1001 324.5 897.5 c 128,-1,7
 256 794 256 794 256 596 c 0,8,9
 256 364 256 364 329.5 245 c 128,-1,10
 403 126 403 126 538 126 c 0,0,1
510 -24 m 0,11,12
 407 -24 407 -24 313 37 c 128,-1,13
 219 98 219 98 158.5 228.5 c 128,-1,14
 98 359 98 359 98 569 c 128,-1,15
 98 779 98 779 160 905.5 c 128,-1,16
 222 1032 222 1032 319.5 1089 c 128,-1,17
 417 1146 417 1146 520 1146 c 0,18,19
 625 1146 625 1146 698 1094 c 128,-1,20
 771 1042 771 1042 808 955 c 1,21,-1
 808 1624 l 1,22,-1
 983 1624 l 1,23,-1
 983 1607 l 1,24,25
 969 1593 969 1593 965.5 1575.5 c 128,-1,26
 962 1558 962 1558 962 1516 c 2,27,-1
 964 173 l 2,28,29
 964 129 964 129 966.5 86.5 c 128,-1,30
 969 44 969 44 986 0 c 1,31,-1
 825 0 l 1,32,33
 808 42 808 42 804.5 83 c 128,-1,34
 801 124 801 124 801 168 c 1,35,36
 755 82 755 82 681.5 29 c 128,-1,37
 608 -24 608 -24 510 -24 c 0,11,12
EndSplineSet
EndChar

StartChar: eth
Encoding: 240 240 269
Width: 922
VWidth: 2441
GlyphClass: 1
Flags: HW
LayerCount: 2
Fore
SplineSet
542 117 m 0,0,1
 614 117 614 117 676.5 161 c 128,-1,2
 739 205 739 205 778.5 304 c 128,-1,3
 818 403 818 403 818 566 c 0,4,5
 818 725 818 725 775 819 c 128,-1,6
 732 913 732 913 667.5 955 c 128,-1,7
 603 997 603 997 537 997 c 0,8,9
 467 997 467 997 401 950.5 c 128,-1,10
 335 904 335 904 293.5 808.5 c 128,-1,11
 252 713 252 713 252 566 c 0,12,13
 252 351 252 351 337 234 c 128,-1,14
 422 117 422 117 542 117 c 0,0,1
542 -30 m 0,15,16
 420 -30 420 -30 316 40 c 128,-1,17
 212 110 212 110 148.5 239 c 128,-1,18
 85 368 85 368 85 545 c 0,19,20
 85 720 85 720 146 854 c 128,-1,21
 207 988 207 988 304.5 1064 c 128,-1,22
 402 1140 402 1140 513 1140 c 0,23,24
 680 1140 680 1140 777 1020 c 1,25,26
 744 1111 744 1111 700.5 1192.5 c 128,-1,27
 657 1274 657 1274 598 1347 c 1,28,-1
 332 1262 l 1,29,-1
 290 1377 l 1,30,-1
 508 1445 l 1,31,32
 461 1491 461 1491 407 1530.5 c 128,-1,33
 353 1570 353 1570 292 1601 c 1,34,-1
 469 1640 l 1,35,36
 516 1608 516 1608 561.5 1571.5 c 128,-1,37
 607 1535 607 1535 652 1489 c 1,38,-1
 881 1560 l 1,39,-1
 919 1453 l 1,40,-1
 737 1394 l 1,41,42
 857 1238 857 1238 916 1047.5 c 128,-1,43
 975 857 975 857 975 617 c 0,44,45
 975 305 975 305 864.5 137.5 c 128,-1,46
 754 -30 754 -30 542 -30 c 0,15,16
EndSplineSet
EndChar

StartChar: dcaron
Encoding: 271 271 270
Width: 922
VWidth: 2441
GlyphClass: 1
Flags: HW
LayerCount: 2
Fore
SplineSet
389 124 m 0,0,1
 567 124 567 124 567 564 c 0,2,3
 567 999 567 999 384 999 c 0,4,5
 293 999 293 999 245.5 907 c 128,-1,6
 198 815 198 815 198 596 c 0,7,8
 198 417 198 417 222 314.5 c 128,-1,9
 246 212 246 212 288.5 168 c 128,-1,10
 331 124 331 124 389 124 c 0,0,1
363 -24 m 0,11,12
 287 -24 287 -24 220 29.5 c 128,-1,13
 153 83 153 83 110.5 212.5 c 128,-1,14
 68 342 68 342 68 569 c 0,15,16
 68 791 68 791 110.5 916.5 c 128,-1,17
 153 1042 153 1042 223 1094 c 128,-1,18
 293 1146 293 1146 373 1146 c 0,19,20
 528 1146 528 1146 573 964 c 1,21,-1
 573 1624 l 1,22,-1
 725 1624 l 1,23,-1
 725 1607 l 1,24,25
 712 1593 712 1593 708 1575.5 c 128,-1,26
 704 1558 704 1558 704 1516 c 2,27,-1
 704 173 l 2,28,29
 704 129 704 129 706.5 86.5 c 128,-1,30
 709 44 709 44 721 0 c 1,31,-1
 589 0 l 1,32,33
 578 37 578 37 573.5 74.5 c 128,-1,34
 569 112 569 112 569 156 c 1,35,36
 538 77 538 77 486.5 26.5 c 128,-1,37
 435 -24 435 -24 363 -24 c 0,11,12
869 1631 m 0,38,39
 905 1631 905 1631 931.5 1595.5 c 128,-1,40
 958 1560 958 1560 958 1504 c 0,41,42
 958 1429 958 1429 916 1327 c 128,-1,43
 874 1225 874 1225 821 1140 c 1,44,-1
 760 1189 l 1,45,46
 789 1231 789 1231 815.5 1280.5 c 128,-1,47
 842 1330 842 1330 842 1382 c 0,48,49
 842 1406 842 1406 825.5 1424 c 128,-1,50
 809 1442 809 1442 792.5 1466.5 c 128,-1,51
 776 1491 776 1491 776 1533 c 0,52,53
 776 1570 776 1570 800.5 1600.5 c 128,-1,54
 825 1631 825 1631 869 1631 c 0,38,39
EndSplineSet
EndChar

StartChar: e
Encoding: 101 101 274
Width: 922
VWidth: 2441
GlyphClass: 2
Flags: HW
AnchorPoint: "Anchor-3" 701 21 basechar 0
AnchorPoint: "Anchor-2" 617 0 basechar 0
AnchorPoint: "Anchor-0" 569 1116 basechar 0
LayerCount: 2
Fore
SplineSet
271 669 m 1,0,-1
 811 669 l 1,1,2
 811 830 811 830 743.5 920.5 c 128,-1,3
 676 1011 676 1011 557 1011 c 0,4,5
 452 1011 452 1011 372 932 c 128,-1,6
 292 853 292 853 271 669 c 1,0,-1
598 -24 m 0,7,8
 374 -24 374 -24 240.5 121 c 128,-1,9
 107 266 107 266 107 554 c 0,10,11
 107 750 107 750 168.5 880.5 c 128,-1,12
 230 1011 230 1011 333.5 1076.5 c 128,-1,13
 437 1142 437 1142 569 1142 c 0,14,15
 686 1142 686 1142 777.5 1087 c 128,-1,16
 869 1032 869 1032 922.5 916.5 c 128,-1,17
 976 801 976 801 976 613 c 0,18,19
 976 592 976 592 975 573 c 128,-1,20
 974 554 974 554 972 532 c 1,21,-1
 266 532 l 1,22,23
 273 310 273 310 368.5 212 c 128,-1,24
 464 114 464 114 601 114 c 0,25,26
 757 114 757 114 857 235 c 1,27,-1
 950 142 l 1,28,29
 817 -24 817 -24 598 -24 c 0,7,8
EndSplineSet
EndChar

StartChar: uni029A
Encoding: 666 666 296
Width: 922
VWidth: 2441
GlyphClass: 1
Flags: HW
LayerCount: 2
Fore
SplineSet
515 124 m 0,0,1
 653 124 653 124 735 233 c 128,-1,2
 817 342 817 342 817 561 c 0,3,4
 817 766 817 766 738.5 881.5 c 128,-1,5
 660 997 660 997 524 997 c 0,6,7
 425 997 425 997 378.5 950.5 c 128,-1,8
 332 904 332 904 332 827 c 0,9,10
 332 759 332 759 375 716.5 c 128,-1,11
 418 674 418 674 524 674 c 0,12,13
 538 674 538 674 550.5 674 c 128,-1,14
 563 674 563 674 577 676 c 1,15,-1
 577 517 l 1,16,17
 556 519 556 519 537.5 522 c 128,-1,18
 519 525 519 525 498 525 c 0,19,20
 401 525 401 525 335.5 477 c 128,-1,21
 270 429 270 429 270 335 c 0,22,23
 270 237 270 237 339.5 180.5 c 128,-1,24
 409 124 409 124 515 124 c 0,0,1
515 -19 m 0,25,26
 392 -17 392 -17 297.5 32 c 128,-1,27
 203 81 203 81 150 164 c 128,-1,28
 97 247 97 247 97 349 c 0,29,30
 97 452 97 452 150 523 c 128,-1,31
 203 594 203 594 290 615 c 1,32,33
 157 698 157 698 157 840 c 0,34,35
 157 977 157 977 264.5 1058.5 c 128,-1,36
 372 1140 372 1140 532 1140 c 0,37,38
 742 1140 742 1140 864.5 982.5 c 128,-1,39
 987 825 987 825 987 559 c 0,40,41
 987 384 987 384 928.5 253 c 128,-1,42
 870 122 870 122 764 51.5 c 128,-1,43
 658 -19 658 -19 515 -19 c 0,25,26
EndSplineSet
EndChar

StartChar: f
Encoding: 102 102 300
Width: 922
VWidth: 2441
GlyphClass: 1
Flags: HW
LayerCount: 2
Fore
SplineSet
340 981 m 1,0,-1
 130 981 l 1,1,-1
 130 1116 l 1,2,-1
 340 1116 l 1,3,-1
 340 1209 l 2,4,5
 340 1433 340 1433 444.5 1535.5 c 128,-1,6
 549 1638 549 1638 706 1638 c 0,7,8
 800 1638 800 1638 883.5 1600.5 c 128,-1,9
 967 1563 967 1563 1020 1484 c 1,10,-1
 937 1360 l 1,11,-1
 922 1340 l 1,12,-1
 908 1351 l 1,13,14
 903 1370 903 1370 898.5 1390.5 c 128,-1,15
 894 1411 894 1411 869 1440 c 0,16,17
 833 1475 833 1475 798.5 1488.5 c 128,-1,18
 764 1502 764 1502 711 1502 c 0,19,20
 617 1502 617 1502 555.5 1434.5 c 128,-1,21
 494 1367 494 1367 494 1209 c 2,22,-1
 494 1116 l 1,23,-1
 814 1116 l 1,24,-1
 814 981 l 1,25,-1
 494 981 l 1,26,-1
 494 0 l 1,27,-1
 340 0 l 1,28,-1
 340 981 l 1,0,-1
EndSplineSet
EndChar

StartChar: g
Encoding: 103 103 301
Width: 922
VWidth: 2298
GlyphClass: 2
Flags: HW
AnchorPoint: "Anchor-2" 473 -225 basechar 0
AnchorPoint: "Anchor-0" 443 1120 basechar 0
LayerCount: 2
Fore
SplineSet
213 28 m 0,0,1
 213 -46 213 -46 286 -86.5 c 128,-1,2
 359 -127 359 -127 487 -127 c 0,3,4
 620 -127 620 -127 678 -83.5 c 128,-1,5
 736 -40 736 -40 736 30 c 0,6,7
 736 78 736 78 721.5 109 c 128,-1,8
 707 140 707 140 658.5 154.5 c 128,-1,9
 610 169 610 169 515 169 c 0,10,11
 378 169 378 169 293 194 c 1,12,13
 250 161 250 161 231.5 126 c 128,-1,14
 213 91 213 91 213 28 c 0,0,1
443 592 m 0,15,16
 530 592 530 592 581 655 c 128,-1,17
 632 718 632 718 632 812 c 0,18,19
 632 905 632 905 581 968 c 128,-1,20
 530 1031 530 1031 443 1031 c 0,21,22
 358 1031 358 1031 306.5 968 c 128,-1,23
 255 905 255 905 255 812 c 128,-1,24
 255 719 255 719 306.5 655.5 c 128,-1,25
 358 592 358 592 443 592 c 0,15,16
443 464 m 0,26,27
 369 464 369 464 309 492 c 1,28,29
 274 446 274 446 274 403 c 0,30,31
 274 351 274 351 330.5 328.5 c 128,-1,32
 387 306 387 306 543 306 c 0,33,34
 680 306 680 306 750.5 273 c 128,-1,35
 821 240 821 240 847 183.5 c 128,-1,36
 873 127 873 127 873 53 c 0,37,38
 873 -23 873 -23 835.5 -92 c 128,-1,39
 798 -161 798 -161 713 -203.5 c 128,-1,40
 628 -246 628 -246 485 -246 c 0,41,42
 298 -246 298 -246 187 -182 c 128,-1,43
 76 -118 76 -118 76 10 c 0,44,45
 76 91 76 91 117.5 148.5 c 128,-1,46
 159 206 159 206 215 231 c 1,47,48
 150 279 150 279 150 366 c 0,49,50
 150 414 150 414 171.5 459.5 c 128,-1,51
 193 505 193 505 230 546 c 1,52,53
 130 644 130 644 130 812 c 0,54,55
 130 959 130 959 215 1058.5 c 128,-1,56
 300 1158 300 1158 443 1158 c 0,57,58
 517 1158 517 1158 575.5 1130.5 c 128,-1,59
 634 1103 634 1103 674 1058 c 1,60,61
 726 1108 726 1108 781 1130.5 c 0,62,63
 824.421052632 1148.26315789 824.421052632 1148.26315789 880.930747922 1148.26315789 c 0,64,65
 896 1148.26315789 896 1148.26315789 912 1147 c 1,66,-1
 932 1019 l 1,67,68
 908.8 1021.4 908.8 1021.4 886.48 1021.4 c 0,69,70
 853 1021.4 853 1021.4 821.5 1016 c 0,71,72
 769 1007 769 1007 726 975 c 1,73,74
 756.03125 903.3125 756.03125 903.3125 756.03125 817.547851562 c 0,75,76
 756.03125 814.78125 756.03125 814.78125 756 812 c 0,77,78
 756 665 756 665 672 564.5 c 128,-1,79
 588 464 588 464 443 464 c 0,26,27
EndSplineSet
EndChar

StartChar: h
Encoding: 104 104 308
Width: 922
VWidth: 2441
GlyphClass: 2
Flags: HW
AnchorPoint: "Anchor-4" 286 1340 basechar 0
AnchorPoint: "Anchor-2" 550 0 basechar 0
AnchorPoint: "Anchor-0" 259 1624 basechar 0
LayerCount: 2
Fore
SplineSet
159 1624 m 1,0,-1
 340 1624 l 1,1,-1
 340 1607 l 1,2,3
 326 1593 326 1593 321.5 1575.5 c 128,-1,4
 317 1558 317 1558 317 1516 c 2,5,-1
 317 923 l 1,6,7
 375 1026 375 1026 463.5 1084 c 128,-1,8
 552 1142 552 1142 645 1142 c 0,9,10
 784 1142 784 1142 868 1037 c 128,-1,11
 952 932 952 932 952 676 c 2,12,-1
 952 0 l 1,13,-1
 794 0 l 1,14,-1
 794 671 l 2,15,16
 794 846 794 846 741.5 920 c 128,-1,17
 689 994 689 994 610 994 c 0,18,19
 544 994 544 994 476 951 c 128,-1,20
 408 908 408 908 362.5 830 c 128,-1,21
 317 752 317 752 317 643 c 2,22,-1
 317 0 l 1,23,-1
 159 0 l 1,24,-1
 159 1624 l 1,0,-1
EndSplineSet
EndChar

StartChar: i
Encoding: 105 105 313
Width: 922
VWidth: 2441
GlyphClass: 2
Flags: HW
AnchorPoint: "Anchor-3" 762 0 basechar 0
AnchorPoint: "Anchor-2" 550 0 basechar 0
AnchorPoint: "Anchor-0" 550 1477 basechar 0
LayerCount: 2
Fore
SplineSet
217 0 m 1,0,-1
 217 139 l 1,1,-1
 476 139 l 1,2,-1
 476 976 l 1,3,-1
 232 976 l 1,4,-1
 232 1116 l 1,5,-1
 638 1116 l 1,6,-1
 638 139 l 1,7,-1
 874 139 l 1,8,-1
 874 0 l 1,9,-1
 217 0 l 1,0,-1
547 1355 m 0,10,11
 501 1355 501 1355 466.5 1390.5 c 128,-1,12
 432 1426 432 1426 432 1475 c 0,13,14
 432 1526 432 1526 465 1561 c 128,-1,15
 498 1596 498 1596 547 1596 c 128,-1,16
 596 1596 596 1596 630 1559.5 c 128,-1,17
 664 1523 664 1523 664 1475 c 0,18,19
 664 1426 664 1426 630 1390.5 c 128,-1,20
 596 1355 596 1355 547 1355 c 0,10,11
EndSplineSet
Substitution2: "'locl' Localized Forms in Latin lookup 18 subtable" i.loclTRK
Substitution2: "'locl' Localized Forms in Latin lookup 17 subtable" i.loclTRK
Substitution2: "'locl' Localized Forms in Latin lookup 16 subtable" i.loclTRK
Substitution2: "'locl' Localized Forms in Latin lookup 15 subtable" i.loclTRK
Substitution2: "'locl' Localized Forms in Latin lookup 14 subtable" i.loclTRK
Substitution2: "Single Substitution lookup 4 subtable" dotlessi
Substitution2: "Single Substitution lookup 3 subtable" dotlessi
AlternateSubs2: "'aalt' Access All Alternates in Latin lookup 1 subtable" dotlessi i.loclTRK
EndChar

StartChar: dotlessi
Encoding: 305 305 314
Width: 922
VWidth: 2441
GlyphClass: 2
Flags: HW
AnchorPoint: "Anchor-3" 762 0 basechar 0
AnchorPoint: "Anchor-2" 550 0 basechar 0
AnchorPoint: "Anchor-0" 550 1116 basechar 0
LayerCount: 2
Fore
SplineSet
217 0 m 1,0,-1
 217 139 l 1,1,-1
 476 139 l 1,2,-1
 476 976 l 1,3,-1
 232 976 l 1,4,-1
 232 1116 l 1,5,-1
 638 1116 l 1,6,-1
 638 139 l 1,7,-1
 874 139 l 1,8,-1
 874 0 l 1,9,-1
 217 0 l 1,0,-1
EndSplineSet
EndChar

StartChar: j
Encoding: 106 106 329
Width: 922
VWidth: 2365
GlyphClass: 2
Flags: HW
AnchorPoint: "Anchor-2" 508 -282 basechar 0
AnchorPoint: "Anchor-0" 663 1488 basechar 0
LayerCount: 2
Fore
SplineSet
389 -246 m 0,0,1
 302 -246 302 -246 224.5 -213 c 128,-1,2
 147 -180 147 -180 93 -112 c 1,3,-1
 178 7 l 1,4,-1
 189 26 l 1,5,-1
 202 18 l 1,6,7
 206 -2 206 -2 213.5 -18.5 c 128,-1,8
 221 -35 221 -35 245 -63 c 1,9,10
 272 -85 272 -85 307 -98.5 c 128,-1,11
 342 -112 342 -112 389 -112 c 0,12,13
 478 -112 478 -112 535 -42 c 128,-1,14
 592 28 592 28 592 181 c 2,15,-1
 592 1029 l 1,16,-1
 249 1029 l 1,17,-1
 249 1158 l 1,18,-1
 743 1158 l 1,19,-1
 743 190 l 2,20,21
 743 32 743 32 695.5 -63.5 c 128,-1,22
 648 -159 648 -159 568.5 -202.5 c 128,-1,23
 489 -246 489 -246 389 -246 c 0,0,1
661 1377 m 0,24,25
 619 1377 619 1377 587.5 1409 c 128,-1,26
 556 1441 556 1441 556 1485 c 0,27,28
 556 1532 556 1532 586 1564 c 128,-1,29
 616 1596 616 1596 661 1596 c 128,-1,30
 706 1596 706 1596 737 1563 c 128,-1,31
 768 1530 768 1530 768 1485 c 128,-1,32
 768 1440 768 1440 737 1408.5 c 128,-1,33
 706 1377 706 1377 661 1377 c 0,24,25
EndSplineSet
Substitution2: "Single Substitution lookup 4 subtable" uni0237
Substitution2: "Single Substitution lookup 3 subtable" uni0237
Substitution2: "'aalt' Access All Alternates in Latin lookup 0 subtable" uni0237
EndChar

StartChar: uni0237
Encoding: 567 567 330
Width: 922
VWidth: 2286
GlyphClass: 2
Flags: HW
AnchorPoint: "Anchor-2" 492 -281 basechar 0
AnchorPoint: "Anchor-0" 643 1116 basechar 0
LayerCount: 2
Fore
SplineSet
377 -246 m 0,0,1
 293 -246 293 -246 217.5 -214 c 128,-1,2
 142 -182 142 -182 91 -116 c 1,3,-1
 173 -0 l 1,4,-1
 183 18 l 1,5,-1
 196 10 l 1,6,7
 200 -9 200 -9 207 -25.5 c 128,-1,8
 214 -42 214 -42 237 -69 c 1,9,10
 263 -90 263 -90 297.5 -103 c 128,-1,11
 332 -116 332 -116 377 -116 c 0,12,13
 463 -116 463 -116 518.5 -48 c 128,-1,14
 574 20 574 20 574 168 c 2,15,-1
 574 990 l 1,16,-1
 241 990 l 1,17,-1
 241 1116 l 1,18,-1
 721 1116 l 1,19,-1
 721 177 l 2,20,21
 721 24 721 24 674.5 -69 c 128,-1,22
 628 -162 628 -162 551 -204 c 128,-1,23
 474 -246 474 -246 377 -246 c 0,0,1
EndSplineSet
EndChar

StartChar: k
Encoding: 107 107 332
Width: 922
VWidth: 2441
GlyphClass: 2
Flags: HW
AnchorPoint: "Anchor-2" 535 0 basechar 0
AnchorPoint: "Anchor-0" 221 1624 basechar 0
LayerCount: 2
Fore
SplineSet
428 554 m 1,0,-1
 301 417 l 1,1,-1
 298 0 l 1,2,-1
 139 0 l 1,3,-1
 139 1624 l 1,4,-1
 319 1624 l 1,5,-1
 319 1607 l 1,6,7
 305 1593 305 1593 301.5 1575.5 c 128,-1,8
 298 1558 298 1558 298 1516 c 2,9,-1
 298 603 l 1,10,-1
 785 1121 l 1,11,12
 840 1109 840 1109 902 1109 c 2,13,-1
 959 1109 l 1,14,-1
 546 662 l 1,15,-1
 1029 0 l 1,16,-1
 828 -10 l 1,17,-1
 428 554 l 1,0,-1
EndSplineSet
EndChar

StartChar: kgreenlandic
Encoding: 312 312 334
Width: 922
VWidth: 2441
GlyphClass: 2
Flags: HW
AnchorPoint: "Anchor-2" 537 0 basechar 0
AnchorPoint: "Anchor-0" 225 1116 basechar 0
LayerCount: 2
Fore
SplineSet
428 554 m 1,0,-1
 301 417 l 1,1,-1
 298 0 l 1,2,-1
 139 0 l 1,3,-1
 139 1116 l 1,4,-1
 319 1116 l 1,5,-1
 319 1099 l 1,6,7
 305 1085 305 1085 301.5 1067.5 c 128,-1,8
 298 1050 298 1050 298 1009 c 2,9,-1
 298 603 l 1,10,-1
 785 1121 l 1,11,12
 840 1109 840 1109 902 1109 c 2,13,-1
 959 1109 l 1,14,-1
 546 662 l 1,15,-1
 1029 0 l 1,16,-1
 828 -10 l 1,17,-1
 428 554 l 1,0,-1
EndSplineSet
EndChar

StartChar: l
Encoding: 108 108 335
Width: 922
VWidth: 2441
GlyphClass: 2
Flags: HW
AnchorPoint: "Anchor-4" 550 559 basechar 0
AnchorPoint: "Anchor-2" 550 0 basechar 0
AnchorPoint: "Anchor-1" 1055 1116 basechar 0
AnchorPoint: "Anchor-0" 550 1624 basechar 0
LayerCount: 2
Fore
SplineSet
173 0 m 1,0,-1
 173 139 l 1,1,-1
 468 139 l 1,2,-1
 468 1484 l 1,3,-1
 188 1484 l 1,4,-1
 188 1624 l 1,5,-1
 632 1624 l 1,6,-1
 632 139 l 1,7,-1
 925 139 l 1,8,-1
 925 0 l 1,9,-1
 173 0 l 1,0,-1
EndSplineSet
EndChar

StartChar: ldot
Encoding: 320 320 339
Width: 922
VWidth: 2441
GlyphClass: 1
Flags: HW
LayerCount: 2
Fore
SplineSet
855 676 m 0,0,1
 799 676 799 676 759.5 714 c 128,-1,2
 720 752 720 752 720 808 c 128,-1,3
 720 864 720 864 760.5 903.5 c 128,-1,4
 801 943 801 943 855 943 c 0,5,6
 906 943 906 943 947 903.5 c 128,-1,7
 988 864 988 864 988 808 c 0,8,9
 988 754 988 754 948.5 715 c 128,-1,10
 909 676 909 676 855 676 c 0,0,1
151 0 m 1,11,-1
 151 139 l 1,12,-1
 405 139 l 1,13,-1
 405 1484 l 1,14,-1
 166 1484 l 1,15,-1
 166 1624 l 1,16,-1
 569 1624 l 1,17,-1
 569 139 l 1,18,-1
 904 139 l 1,19,-1
 904 0 l 1,20,-1
 151 0 l 1,11,-1
EndSplineSet
EndChar

StartChar: uni01C9
Encoding: 457 457 341
Width: 922
VWidth: 2368
GlyphClass: 1
Flags: HW
LayerCount: 2
Fore
SplineSet
497 -246 m 1,0,1
 323 -246 323 -246 217 -112 c 1,2,-1
 312 26 l 1,3,4
 325 11 325 11 328.5 -6.5 c 128,-1,5
 332 -24 332 -24 347.5 -42.5 c 128,-1,6
 363 -61 363 -61 412 -88 c 0,7,8
 459 -110 459 -110 508 -110 c 0,9,10
 599 -110 599 -110 656 -42 c 128,-1,11
 713 26 713 26 713 182 c 2,12,-1
 713 1031 l 1,13,-1
 432 1031 l 1,14,-1
 432 1160 l 1,15,-1
 865 1160 l 1,16,-1
 865 190 l 2,17,18
 865 32 865 32 816 -61.5 c 128,-1,19
 767 -155 767 -155 684 -198.5 c 128,-1,20
 601 -242 601 -242 497 -246 c 1,0,1
767 1379 m 0,21,22
 725 1379 725 1379 693.5 1411 c 128,-1,23
 662 1443 662 1443 662 1488 c 0,24,25
 662 1535 662 1535 692.5 1567 c 128,-1,26
 723 1599 723 1599 767 1599 c 0,27,28
 812 1599 812 1599 843 1565.5 c 128,-1,29
 874 1532 874 1532 874 1488 c 0,30,31
 874 1443 874 1443 843 1411 c 128,-1,32
 812 1379 812 1379 767 1379 c 0,21,22
38 141 m 1,33,-1
 38 269 l 1,34,-1
 168 269 l 1,35,-1
 168 1496 l 1,36,-1
 51 1496 l 1,37,-1
 51 1624 l 1,38,-1
 317 1624 l 1,39,-1
 317 269 l 1,40,-1
 564 269 l 1,41,-1
 564 141 l 1,42,-1
 38 141 l 1,33,-1
EndSplineSet
EndChar

StartChar: lslash
Encoding: 322 322 343
Width: 922
VWidth: 2441
GlyphClass: 1
Flags: HW
LayerCount: 2
Fore
SplineSet
173 0 m 1,0,-1
 173 139 l 1,1,-1
 468 139 l 1,2,-1
 468 681 l 1,3,-1
 298 615 l 1,4,-1
 298 776 l 1,5,-1
 468 843 l 1,6,-1
 468 1484 l 1,7,-1
 188 1484 l 1,8,-1
 188 1624 l 1,9,-1
 632 1624 l 1,10,-1
 632 904 l 1,11,-1
 830 983 l 1,12,-1
 830 815 l 1,13,-1
 632 740 l 1,14,-1
 632 139 l 1,15,-1
 925 139 l 1,16,-1
 925 0 l 1,17,-1
 173 0 l 1,0,-1
EndSplineSet
EndChar

StartChar: m
Encoding: 109 109 344
Width: 922
VWidth: 2441
GlyphClass: 2
Flags: HW
AnchorPoint: "Anchor-2" 517 0 basechar 0
AnchorPoint: "Anchor-0" 572 1116 basechar 0
LayerCount: 2
Fore
SplineSet
78 0 m 1,0,-1
 78 1116 l 1,1,-1
 220 1116 l 1,2,-1
 220 1006 l 1,3,4
 252 1067 252 1067 302 1104.5 c 128,-1,5
 352 1142 352 1142 408 1142 c 0,6,7
 469 1142 469 1142 515 1096 c 128,-1,8
 561 1050 561 1050 574 979 c 1,9,10
 600 1052 600 1052 658 1097 c 128,-1,11
 716 1142 716 1142 785 1142 c 0,12,13
 881 1142 881 1142 926.5 1061.5 c 0,14,15
 968.323232323 987.505050505 968.323232323 987.505050505 968.323232323 876.756351393 c 0,16,17
 968.323232323 867.02020202 968.323232323 867.02020202 968 857 c 1,18,-1
 968 0 l 1,19,-1
 826 0 l 1,20,-1
 826 792 l 2,21,22
 826 895 826 895 815 940.5 c 128,-1,23
 804 986 804 986 785.5 1001 c 128,-1,24
 767 1016 767 1016 742 1016 c 0,25,26
 703 1016 703 1016 669.5 973 c 128,-1,27
 636 930 636 930 615.5 865.5 c 128,-1,28
 595 801 595 801 595 737 c 2,29,-1
 595 0 l 1,30,-1
 450 0 l 1,31,-1
 450 776 l 2,32,33
 450 915 450 915 430 963 c 128,-1,34
 410 1011 410 1011 352 1011 c 0,35,36
 311 1011 311 1011 265.5 940 c 128,-1,37
 220 869 220 869 220 745 c 2,38,-1
 220 0 l 1,39,-1
 78 0 l 1,0,-1
EndSplineSet
EndChar

StartChar: n
Encoding: 110 110 346
Width: 922
VWidth: 2441
GlyphClass: 2
Flags: HW
AnchorPoint: "Anchor-2" 571 0 basechar 0
AnchorPoint: "Anchor-0" 583 1116 basechar 0
LayerCount: 2
Fore
SplineSet
156 0 m 1,0,-1
 156 1116 l 1,1,-1
 315 1116 l 1,2,-1
 315 923 l 1,3,4
 373 1026 373 1026 462.5 1084 c 128,-1,5
 552 1142 552 1142 652 1142 c 0,6,7
 738 1142 738 1142 804.5 1098.5 c 128,-1,8
 871 1055 871 1055 910.5 953.5 c 128,-1,9
 950 852 950 852 950 681 c 2,10,-1
 950 0 l 1,11,-1
 792 0 l 1,12,-1
 792 676 l 2,13,14
 792 851 792 851 740.5 922.5 c 128,-1,15
 689 994 689 994 608 994 c 0,16,17
 542 994 542 994 473.5 951 c 128,-1,18
 405 908 405 908 360 831.5 c 128,-1,19
 315 755 315 755 315 647 c 2,20,-1
 315 0 l 1,21,-1
 156 0 l 1,0,-1
EndSplineSet
EndChar

StartChar: eng
Encoding: 331 331 352
Width: 922
VWidth: 2288
GlyphClass: 1
Flags: HW
LayerCount: 2
Fore
SplineSet
509 -246 m 0,0,1
 404 -246 404 -246 321 -175 c 1,2,-1
 386 -35 l 1,3,4
 394 -37 394 -37 403 -55.5 c 128,-1,5
 412 -74 412 -74 434.5 -90 c 128,-1,6
 457 -106 457 -106 513 -106 c 0,7,8
 698 -106 698 -106 699 230 c 2,9,-1
 699 726 l 2,10,11
 699 888 699 888 652.5 949.5 c 128,-1,12
 606 1011 606 1011 537 1011 c 0,13,14
 477 1011 477 1011 416.5 972 c 128,-1,15
 356 933 356 933 317 864.5 c 128,-1,16
 278 796 278 796 278 701 c 2,17,-1
 278 133 l 1,18,-1
 130 133 l 1,19,-1
 130 1119 l 1,20,-1
 278 1119 l 1,21,-1
 278 948 l 1,22,23
 327 1039 327 1039 404 1090.5 c 128,-1,24
 481 1142 481 1142 566 1142 c 0,25,26
 644 1142 644 1142 706 1103.5 c 128,-1,27
 768 1065 768 1065 804.5 974.5 c 128,-1,28
 841 884 841 884 841 730 c 2,29,-1
 841 254 l 2,30,31
 841 -13 841 -13 746 -129.5 c 128,-1,32
 651 -246 651 -246 509 -246 c 0,0,1
EndSplineSet
EndChar

StartChar: o
Encoding: 111 111 355
Width: 922
VWidth: 2441
GlyphClass: 2
Flags: HW
AnchorPoint: "Anchor-4" 527 559 basechar 0
AnchorPoint: "Anchor-3" 604 24 basechar 0
AnchorPoint: "Anchor-2" 527 0 basechar 0
AnchorPoint: "Anchor-1" 757 1065 basechar 0
AnchorPoint: "Anchor-0" 527 1116 basechar 0
LayerCount: 2
Fore
SplineSet
527 124 m 128,-1,1
 652 124 652 124 730.5 241.5 c 128,-1,2
 809 359 809 359 809 561 c 0,3,4
 809 764 809 764 730 880.5 c 128,-1,5
 651 997 651 997 527 997 c 0,6,7
 406 997 406 997 327 880.5 c 128,-1,8
 248 764 248 764 248 561 c 128,-1,9
 248 358 248 358 325 241 c 128,-1,0
 402 124 402 124 527 124 c 128,-1,1
527 -19 m 128,-1,11
 395 -19 395 -19 296 51.5 c 128,-1,12
 197 122 197 122 139.5 251 c 128,-1,13
 82 380 82 380 82 559 c 128,-1,14
 82 738 82 738 139.5 868.5 c 128,-1,15
 197 999 197 999 296.5 1069.5 c 128,-1,16
 396 1140 396 1140 527 1140 c 0,17,18
 659 1140 659 1140 759.5 1069.5 c 128,-1,19
 860 999 860 999 916 868 c 128,-1,20
 972 737 972 737 972 559 c 0,21,22
 972 380 972 380 916 251 c 128,-1,23
 860 122 860 122 759.5 51.5 c 128,-1,10
 659 -19 659 -19 527 -19 c 128,-1,11
EndSplineSet
Substitution2: "Single Substitution lookup 29 subtable" ordmasculine
Substitution2: "'aalt' Access All Alternates in Latin lookup 0 subtable" ordmasculine
EndChar

StartChar: oslash
Encoding: 248 248 383
Width: 922
VWidth: 2441
GlyphClass: 2
Flags: HW
AnchorPoint: "Anchor-4" 527 559 basechar 0
AnchorPoint: "Anchor-3" 604 24 basechar 0
AnchorPoint: "Anchor-2" 527 0 basechar 0
AnchorPoint: "Anchor-1" 757 1065 basechar 0
AnchorPoint: "Anchor-0" 527 1116 basechar 0
LayerCount: 2
Fore
SplineSet
527 124 m 0,0,1
 652 124 652 124 730.5 241.5 c 128,-1,2
 809 359 809 359 809 561 c 0,3,4
 809 749 809 749 738 864 c 1,5,-1
 403 161 l 1,6,7
 460 124 460 124 527 124 c 0,0,1
248 561 m 0,8,9
 248 380 248 380 311 263 c 1,10,-1
 644 964 l 1,11,12
 590 996 590 996 527 997 c 0,13,14
 406 997 406 997 327 880.5 c 128,-1,15
 248 764 248 764 248 561 c 0,8,9
255 -147 m 1,16,-1
 145 -88 l 1,17,-1
 237 103 l 1,18,19
 165 178 165 178 123.5 294 c 128,-1,20
 82 410 82 410 82 559 c 0,21,22
 82 738 82 738 139.5 868.5 c 128,-1,23
 197 999 197 999 296.5 1069.5 c 128,-1,24
 396 1140 396 1140 527 1140 c 0,25,26
 625 1140 625 1140 707 1099 c 1,27,-1
 785 1265 l 1,28,-1
 899 1204 l 1,29,-1
 813 1023 l 1,30,31
 889 948 889 948 930.5 829 c 128,-1,32
 972 710 972 710 972 559 c 0,33,34
 972 380 972 380 916 251 c 128,-1,35
 860 122 860 122 759 51.5 c 128,-1,36
 658 -19 658 -19 527 -19 c 0,37,38
 424 -19 424 -19 337 27 c 1,39,-1
 255 -147 l 1,16,-1
EndSplineSet
EndChar

StartChar: oe
Encoding: 339 339 389
Width: 922
VWidth: 2441
GlyphClass: 1
Flags: HW
LayerCount: 2
Fore
SplineSet
290 119 m 0,0,1
 327 119 327 119 353 146 c 128,-1,2
 379 173 379 173 379 217 c 0,3,4
 379 224 379 224 373 273 c 0,5,6
 363 359 363 359 359.5 437 c 128,-1,7
 356 515 356 515 356 581 c 0,8,9
 356 723 356 723 363.5 795 c 128,-1,10
 371 867 371 867 371 883 c 0,11,12
 371 929 371 929 347 961.5 c 128,-1,13
 323 994 323 994 286 994 c 0,14,15
 246 994 246 994 207.5 955 c 128,-1,16
 169 916 169 916 145 825 c 128,-1,17
 121 734 121 734 121 583 c 0,18,19
 121 341 121 341 166 230 c 128,-1,20
 211 119 211 119 290 119 c 0,0,1
476 678 m 1,21,-1
 772 678 l 1,22,23
 772 851 772 851 739.5 928.5 c 128,-1,24
 707 1006 707 1006 628 1006 c 0,25,26
 557 1006 557 1006 516.5 921.5 c 128,-1,27
 476 837 476 837 476 678 c 1,21,-1
671 -30 m 0,28,29
 544 -30 544 -30 454 68 c 1,30,31
 375 -27 375 -27 275 -27 c 0,32,33
 229 -27 229 -27 181.5 -1.5 c 128,-1,34
 134 24 134 24 93.5 87.5 c 128,-1,35
 53 151 53 151 28 264.5 c 128,-1,36
 3 378 3 378 3 557 c 0,37,38
 3 774 3 774 43.5 901 c 128,-1,39
 84 1028 84 1028 147.5 1082.5 c 128,-1,40
 211 1137 211 1137 286 1137 c 0,41,42
 396 1137 396 1137 458 1028 c 1,43,44
 526.378378378 1137.00900901 526.378378378 1137.00900901 637.967535103 1137.00900901 c 0,0,0
 638.981981982 1137.00900901 638.981981982 1137.00900901 640 1137 c 0,45,46
 756 1137 756 1137 820.5 1028.5 c 128,-1,47
 885 920 885 920 885 691 c 2,48,-1
 885 540 l 1,49,-1
 474 540 l 1,50,51
 476 367 476 367 497.5 274 c 128,-1,52
 519 181 519 181 558.5 146.5 c 128,-1,53
 598 112 598 112 655 112 c 0,54,55
 765 112 765 112 829 207 c 1,56,-1
 893 103 l 1,57,58
 796 -30 796 -30 671 -30 c 0,28,29
EndSplineSet
EndChar

StartChar: p
Encoding: 112 112 390
Width: 922
VWidth: 2304
GlyphClass: 2
Flags: HW
AnchorPoint: "Anchor-2" 532 119 basechar 0
AnchorPoint: "Anchor-0" 532 1118 basechar 0
LayerCount: 2
Fore
SplineSet
509 228 m 0,0,1
 572 228 572 228 630.5 261 c 128,-1,2
 689 294 689 294 725 379.5 c 128,-1,3
 761 465 761 465 761 620 c 0,4,5
 761 812 761 812 701 907 c 128,-1,6
 641 1002 641 1002 529 1006 c 0,7,8
 524.72 1006.16 524.72 1006.16 520.4856 1006.16 c 0,9,10
 418.86 1006.16 418.86 1006.16 343.5 914 c 0,11,12
 265 818 265 818 265 585 c 1,13,14
 269 401 269 401 334.5 314.5 c 128,-1,15
 400 228 400 228 509 228 c 0,0,1
118 -246 m 1,16,-1
 118 1118 l 1,17,-1
 265 1118 l 1,18,-1
 265 930 l 1,19,20
 296 1035 296 1035 370 1087.5 c 128,-1,21
 444 1140 444 1140 538 1140 c 0,22,23
 638 1140 638 1140 723.5 1088.5 c 128,-1,24
 809 1037 809 1037 860.5 923.5 c 128,-1,25
 912 810 912 810 912 626 c 128,-1,26
 912 442 912 442 858.5 324.5 c 128,-1,27
 805 207 805 207 718.5 149.5 c 128,-1,28
 632 92 632 92 534 92 c 0,29,30
 451 92 451 92 381 134 c 128,-1,31
 311 176 311 176 267 250 c 1,32,-1
 267 -246 l 1,33,-1
 118 -246 l 1,16,-1
EndSplineSet
EndChar

StartChar: thorn
Encoding: 254 254 391
Width: 922
VWidth: 2374
GlyphClass: 1
Flags: HW
LayerCount: 2
Fore
SplineSet
523 241 m 0,0,1
 588 241 588 241 648 275 c 128,-1,2
 708 309 708 309 745 397 c 128,-1,3
 782 485 782 485 782 644 c 0,4,5
 782 841 782 841 720 939 c 128,-1,6
 658 1037 658 1037 544 1041 c 0,7,8
 539.707317073 1041.15609756 539.707317073 1041.15609756 535.458798334 1041.15609756 c 0,0,0
 430.83902439 1041.15609756 430.83902439 1041.15609756 353 946.5 c 128,-1,9
 272 848 272 848 272 608 c 1,10,11
 276 419 276 419 343.5 330 c 128,-1,12
 411 241 411 241 523 241 c 0,0,1
122 1624 m 1,13,-1
 292 1624 l 1,14,-1
 292 1608 l 1,15,16
 279 1595 279 1595 275.5 1579 c 128,-1,17
 272 1563 272 1563 272 1525 c 2,18,-1
 272 963 l 1,19,20
 304 1071 304 1071 380 1124.5 c 128,-1,21
 456 1178 456 1178 553 1178 c 0,22,23
 656 1178 656 1178 744 1125.5 c 128,-1,24
 832 1073 832 1073 884.5 956 c 128,-1,25
 937 839 937 839 937 650 c 128,-1,26
 937 461 937 461 882 340 c 128,-1,27
 827 219 827 219 738.5 160.5 c 128,-1,28
 650 102 650 102 549 102 c 0,29,30
 463 102 463 102 391 144.5 c 128,-1,31
 319 187 319 187 274 264 c 1,32,-1
 274 -246 l 1,33,-1
 122 -246 l 1,34,-1
 122 1624 l 1,13,-1
EndSplineSet
EndChar

StartChar: q
Encoding: 113 113 392
Width: 922
VWidth: 2305
GlyphClass: 1
Flags: HW
LayerCount: 2
Fore
SplineSet
480 232 m 0,0,1
 580 232 580 232 651 330 c 128,-1,2
 722 428 722 428 722 647 c 0,3,4
 722 853 722 853 657.5 936 c 128,-1,5
 593 1019 593 1019 494 1019 c 0,6,7
 381 1019 381 1019 305.5 926 c 128,-1,8
 230 833 230 833 230 629 c 0,9,10
 230 441 230 441 297 336.5 c 128,-1,11
 364 232 364 232 480 232 c 0,0,1
726 -246 m 1,12,-1
 726 272 l 1,13,14
 684 189 684 189 613.5 143.5 c 128,-1,15
 543 98 543 98 453 98 c 0,16,17
 346 98 346 98 262.5 162 c 128,-1,18
 179 226 179 226 130 344.5 c 128,-1,19
 81 463 81 463 81 622 c 0,20,21
 81 799 81 799 135.5 915 c 128,-1,22
 190 1031 190 1031 280 1088.5 c 128,-1,23
 370 1146 370 1146 476 1146 c 0,24,25
 572 1146 572 1146 636 1098.5 c 128,-1,26
 700 1051 700 1051 733 970 c 1,27,-1
 733 1119 l 1,28,-1
 873 1119 l 1,29,-1
 873 -246 l 1,30,-1
 726 -246 l 1,12,-1
EndSplineSet
EndChar

StartChar: r
Encoding: 114 114 393
Width: 922
VWidth: 2441
GlyphClass: 2
Flags: HW
AnchorPoint: "Anchor-2" 594 0 basechar 0
AnchorPoint: "Anchor-0" 640 1116 basechar 0
LayerCount: 2
Fore
SplineSet
249 1116 m 1,0,-1
 420 1116 l 1,1,-1
 417 913 l 1,2,3
 459 1025 459 1025 549.5 1083.5 c 128,-1,4
 640 1142 640 1142 740 1142 c 0,5,6
 901 1142 901 1142 1009 1020 c 1,7,-1
 937 883 l 1,8,-1
 930 862 l 1,9,-1
 913 869 l 1,10,11
 906 888 906 888 897 907.5 c 128,-1,12
 888 927 888 927 859 955 c 1,13,14
 798 997 798 997 730 997 c 0,15,16
 657 997 657 997 585 954 c 128,-1,17
 513 911 513 911 465 821.5 c 128,-1,18
 417 732 417 732 417 591 c 2,19,-1
 417 -2 l 1,20,-1
 249 -2 l 1,21,-1
 249 1116 l 1,0,-1
EndSplineSet
EndChar

StartChar: uni027B
Encoding: 635 635 399
Width: 922
VWidth: 2281
GlyphClass: 1
Flags: HW
LayerCount: 2
Fore
SplineSet
762 -246 m 0,0,1
 707 -246 707 -246 648.5 -220.5 c 128,-1,2
 590 -195 590 -195 552 -132 c 128,-1,3
 514 -69 514 -69 514 46 c 2,4,-1
 516 310 l 1,5,6
 482 211 482 211 410 160.5 c 128,-1,7
 338 110 338 110 257 110 c 0,8,9
 195 110 195 110 146.5 135 c 128,-1,10
 98 160 98 160 49 214 c 1,11,-1
 107 333 l 1,12,-1
 114 353 l 1,13,-1
 126 349 l 1,14,15
 132 332 132 332 137.5 315 c 128,-1,16
 143 298 143 298 167 276 c 0,17,18
 206 243 206 243 265 243 c 0,19,20
 325 243 325 243 382 279.5 c 128,-1,21
 439 316 439 316 476.5 395 c 128,-1,22
 514 474 514 474 514 596 c 2,23,-1
 514 1118 l 1,24,-1
 659 1118 l 1,25,-1
 659 46 l 2,26,27
 659 -32 659 -32 695 -73 c 128,-1,28
 731 -114 731 -114 783 -114 c 0,29,30
 802 -114 802 -114 821.5 -109 c 128,-1,31
 841 -104 841 -104 862 -90 c 0,32,33
 877 -82 877 -82 879.5 -68.5 c 128,-1,34
 882 -55 882 -55 892 -49 c 1,35,-1
 939 -169 l 1,36,37
 873 -246 873 -246 762 -246 c 0,0,1
EndSplineSet
EndChar

StartChar: uni024D
Encoding: 589 589 402
Width: 922
VWidth: 2441
GlyphClass: 2
Flags: HW
AnchorPoint: "Anchor-2" 568 0 basechar 0
AnchorPoint: "Anchor-0" 613 1116 basechar 0
LayerCount: 2
Fore
SplineSet
75 420 m 1,0,-1
 75 559 l 1,1,-1
 238 559 l 1,2,-1
 238 1116 l 1,3,-1
 402 1116 l 1,4,-1
 399 913 l 1,5,6
 439 1025 439 1025 526 1083.5 c 128,-1,7
 613 1142 613 1142 709 1142 c 0,8,9
 863 1142 863 1142 965 1020 c 1,10,-1
 897 883 l 1,11,-1
 890 862 l 1,12,-1
 874 869 l 1,13,14
 867 888 867 888 858.5 907.5 c 128,-1,15
 850 927 850 927 823 955 c 1,16,17
 765 997 765 997 698 997 c 0,18,19
 628 997 628 997 559.5 954 c 128,-1,20
 491 911 491 911 445 821.5 c 128,-1,21
 399 732 399 732 399 591 c 2,22,-1
 399 559 l 1,23,-1
 642 559 l 1,24,-1
 642 420 l 1,25,-1
 399 420 l 1,26,-1
 399 -2 l 1,27,-1
 238 -2 l 1,28,-1
 238 420 l 1,29,-1
 75 420 l 1,0,-1
EndSplineSet
EndChar

StartChar: s
Encoding: 115 115 403
Width: 922
VWidth: 2441
GlyphClass: 1
Flags: HW
LayerCount: 2
Fore
SplineSet
547 -24 m 0,0,1
 415 -24 415 -24 309 17 c 128,-1,2
 203 58 203 58 122 139 c 1,3,-1
 210 298 l 1,4,-1
 222 319 l 1,5,-1
 237 310 l 1,6,7
 242 291 242 291 248 270 c 128,-1,8
 254 249 254 249 281 219 c 0,9,10
 327 173 327 173 390.5 145 c 128,-1,11
 454 117 454 117 552 117 c 0,12,13
 669 117 669 117 736 166 c 128,-1,14
 803 215 803 215 803 300 c 0,15,16
 803 370 803 370 748.5 417 c 128,-1,17
 694 464 694 464 554 513 c 0,18,19
 381 571 381 571 278 652.5 c 128,-1,20
 175 734 175 734 175 859 c 0,21,22
 175 985 175 985 269.5 1063.5 c 128,-1,23
 364 1142 364 1142 550 1142 c 0,24,25
 692 1142 692 1142 784 1099.5 c 128,-1,26
 876 1057 876 1057 950 972 c 1,27,-1
 857 852 l 1,28,-1
 843 830 l 1,29,-1
 827 843 l 1,30,31
 825 862 825 862 819 881.5 c 128,-1,32
 813 901 813 901 786 930 c 1,33,34
 737 972 737 972 675 992.5 c 128,-1,35
 613 1013 613 1013 554 1013 c 0,36,37
 461 1013 461 1013 400.5 976 c 128,-1,38
 340 939 340 939 340 871 c 0,39,40
 340 810 340 810 394.5 760 c 128,-1,41
 449 710 449 710 620 652 c 0,42,43
 806 586 806 586 885 516.5 c 128,-1,44
 964 447 964 447 964 324 c 0,45,46
 964 175 964 175 859 75.5 c 128,-1,47
 754 -24 754 -24 547 -24 c 0,0,1
EndSplineSet
EndChar

StartChar: germandbls
Encoding: 223 223 414
Width: 922
VWidth: 2441
GlyphClass: 1
Flags: HW
LayerCount: 2
Fore
SplineSet
611 -24 m 0,0,1
 481 -24 481 -24 385 49 c 1,2,-1
 459 184 l 1,3,4
 524 126 524 126 618 124 c 0,5,6
 678 124 678 124 733.5 170.5 c 128,-1,7
 789 217 789 217 822.5 295 c 128,-1,8
 856 373 856 373 856 471 c 0,9,10
 856 606 856 606 779 697.5 c 128,-1,11
 702 789 702 789 530 789 c 2,12,-1
 464 789 l 1,13,-1
 464 927 l 1,14,-1
 541 927 l 2,15,16
 621 927 621 927 688 994.5 c 128,-1,17
 755 1062 755 1062 755 1197 c 0,18,19
 755 1321 755 1321 690 1406 c 128,-1,20
 625 1491 625 1491 521 1491 c 0,21,22
 401 1491 401 1491 336 1365.5 c 128,-1,23
 271 1240 271 1240 271 1037 c 2,24,-1
 271 0 l 1,25,-1
 117 0 l 1,26,-1
 117 1032 l 2,27,28
 117 1344 117 1344 224.5 1488.5 c 128,-1,29
 332 1633 332 1633 500 1633 c 0,30,31
 617 1633 617 1633 710 1576 c 128,-1,32
 803 1519 803 1519 857 1421 c 128,-1,33
 911 1323 911 1323 911 1204 c 0,34,35
 911 1099 911 1099 866.5 1011 c 128,-1,36
 822 923 822 923 743 876 c 1,37,38
 865 832 865 832 936 719 c 128,-1,39
 1007 606 1007 606 1007 442 c 0,40,41
 1007 305 1007 305 958 200 c 128,-1,42
 909 95 909 95 820 35.5 c 128,-1,43
 731 -24 731 -24 611 -24 c 0,0,1
EndSplineSet
EndChar

StartChar: t
Encoding: 116 116 415
Width: 922
VWidth: 2441
GlyphClass: 2
Flags: HW
AnchorPoint: "Anchor-4" 466 762 basechar 0
AnchorPoint: "Anchor-2" 557 0 basechar 0
AnchorPoint: "Anchor-1" 678 1116 basechar 0
AnchorPoint: "Anchor-0" 515 1426 basechar 0
LayerCount: 2
Fore
SplineSet
659 -19 m 0,0,1
 529 -19 529 -19 461 44 c 128,-1,2
 393 107 393 107 371 245.5 c 0,3,4
 353.074074074 358.351851852 353.074074074 358.351851852 353.074074074 526.641289438 c 0,5,6
 353.074074074 564.888888889 353.074074074 564.888888889 354 606 c 2,7,-1
 366 967 l 1,8,-1
 151 967 l 1,9,-1
 151 1109 l 1,10,-1
 371 1109 l 1,11,-1
 380 1402 l 1,12,-1
 552 1423 l 1,13,-1
 576 1426 l 1,14,-1
 578 1409 l 1,15,16
 566 1392 566 1392 558 1375 c 128,-1,17
 550 1358 550 1358 545 1316 c 2,18,-1
 529 1109 l 1,19,-1
 879 1109 l 1,20,-1
 879 967 l 1,21,-1
 532 967 l 1,22,-1
 517 594 l 2,23,24
 514.772727273 535.454545455 514.772727273 535.454545455 514.772727273 485.261363636 c 0,25,26
 514.772727273 377.704545455 514.772727273 377.704545455 525 308.5 c 0,27,28
 540 207 540 207 578.5 166.5 c 128,-1,29
 617 126 617 126 683 126 c 0,30,31
 756 126 756 126 813.5 158.5 c 128,-1,32
 871 191 871 191 930 237 c 1,33,-1
 979 98 l 1,34,35
 904 37 904 37 824.5 9 c 128,-1,36
 745 -19 745 -19 659 -19 c 0,0,1
EndSplineSet
EndChar

StartChar: tbar
Encoding: 359 359 416
Width: 922
VWidth: 2441
GlyphClass: 2
Flags: HW
AnchorPoint: "Anchor-4" 466 762 basechar 0
AnchorPoint: "Anchor-2" 557 0 basechar 0
AnchorPoint: "Anchor-1" 678 1116 basechar 0
AnchorPoint: "Anchor-0" 515 1426 basechar 0
LayerCount: 2
Fore
SplineSet
135 538 m 1,0,-1
 135 676 l 1,1,-1
 356 676 l 1,2,-1
 366 967 l 1,3,-1
 151 967 l 1,4,-1
 151 1109 l 1,5,-1
 371 1109 l 1,6,-1
 380 1402 l 1,7,-1
 552 1423 l 1,8,-1
 576 1426 l 1,9,-1
 578 1409 l 1,10,11
 566 1392 566 1392 558 1375 c 128,-1,12
 550 1358 550 1358 545 1316 c 2,13,-1
 529 1109 l 1,14,-1
 879 1109 l 1,15,-1
 879 967 l 1,16,-1
 532 967 l 1,17,-1
 520 676 l 1,18,-1
 857 676 l 1,19,-1
 857 538 l 1,20,-1
 515 538 l 1,21,22
 514.777777778 520.111111111 514.777777778 520.111111111 514.777777778 503.104938272 c 0,23,24
 514.777777778 367.055555556 514.777777778 367.055555556 529 287.5 c 0,25,26
 545 198 545 198 583.5 162 c 128,-1,27
 622 126 622 126 683 126 c 0,28,29
 756 126 756 126 813.5 158.5 c 128,-1,30
 871 191 871 191 930 237 c 1,31,-1
 979 98 l 1,32,33
 904 37 904 37 824.5 9 c 128,-1,34
 745 -19 745 -19 659 -19 c 0,35,36
 475 -19 475 -19 412 111.5 c 0,37,38
 353.632352941 232.404411765 353.632352941 232.404411765 353.632352941 495.365376298 c 0,39,40
 353.632352941 516.235294118 353.632352941 516.235294118 354 538 c 1,41,-1
 135 538 l 1,0,-1
EndSplineSet
EndChar

StartChar: u
Encoding: 117 117 423
Width: 922
VWidth: 2441
GlyphClass: 2
Flags: HW
AnchorPoint: "Anchor-3" 830 0 basechar 0
AnchorPoint: "Anchor-2" 505 0 basechar 0
AnchorPoint: "Anchor-1" 948 1116 basechar 0
AnchorPoint: "Anchor-0" 547 1116 basechar 0
LayerCount: 2
Fore
SplineSet
486 -27 m 0,0,1
 332 -27 332 -27 235.5 92.5 c 0,2,3
 141.909547739 208.396984925 141.909547739 208.396984925 141.909547739 477.142698417 c 0,4,5
 141.909547739 485.497487437 141.909547739 485.497487437 142 494 c 2,6,-1
 144 1116 l 1,7,-1
 305 1116 l 1,8,-1
 305 494 l 2,9,10
 305 343 305 343 334.5 261 c 128,-1,11
 364 179 364 179 414 145.5 c 128,-1,12
 464 112 464 112 525 112 c 0,13,14
 630 112 630 112 709.5 206 c 128,-1,15
 789 300 789 300 789 501 c 2,16,-1
 789 1116 l 1,17,-1
 950 1116 l 1,18,-1
 950 173 l 2,19,20
 950 129 950 129 952.5 86.5 c 128,-1,21
 955 44 955 44 972 0 c 1,22,-1
 815 0 l 1,23,24
 798 42 798 42 795 83 c 128,-1,25
 792 124 792 124 792 166 c 1,26,27
 748 75 748 75 667 24 c 128,-1,28
 586 -27 586 -27 486 -27 c 0,0,1
EndSplineSet
EndChar

StartChar: v
Encoding: 118 118 446
Width: 922
VWidth: 2441
GlyphClass: 2
Flags: HW
AnchorPoint: "Anchor-2" 536 0 basechar 0
AnchorPoint: "Anchor-0" 536 1116 basechar 0
LayerCount: 2
Fore
SplineSet
472 0 m 1,0,-1
 86 1116 l 1,1,-1
 247 1116 l 1,2,-1
 543 247 l 1,3,-1
 697 654 l 2,4,5
 749 789 749 789 779 903.5 c 128,-1,6
 809 1018 809 1018 824 1116 c 1,7,-1
 976 1116 l 1,8,9
 940 916 940 916 833 627 c 2,10,-1
 600 0 l 1,11,-1
 472 0 l 1,0,-1
EndSplineSet
EndChar

StartChar: w
Encoding: 119 119 447
Width: 922
VWidth: 2441
GlyphClass: 2
Flags: HW
AnchorPoint: "Anchor-2" 478 0 basechar 0
AnchorPoint: "Anchor-0" 478 1116 basechar 0
LayerCount: 2
Fore
SplineSet
204 -2 m 1,0,-1
 30 1116 l 1,1,-1
 158 1116 l 1,2,-1
 296 232 l 1,3,-1
 438 991 l 1,4,-1
 531 991 l 1,5,-1
 710 235 l 1,6,7
 734 435 734 435 749 571.5 c 128,-1,8
 764 708 764 708 772 801 c 128,-1,9
 780 894 780 894 783 958.5 c 128,-1,10
 786 1023 786 1023 786 1079 c 2,11,-1
 786 1116 l 1,12,-1
 920 1116 l 1,13,14
 892 832 892 832 856.5 553.5 c 128,-1,15
 821 275 821 275 778 -2 c 1,16,-1
 637 -2 l 1,17,-1
 484 701 l 1,18,-1
 338 -2 l 1,19,-1
 204 -2 l 1,0,-1
EndSplineSet
EndChar

StartChar: x
Encoding: 120 120 452
Width: 922
VWidth: 2441
GlyphClass: 2
Flags: HW
AnchorPoint: "Anchor-2" 544 0 basechar 0
AnchorPoint: "Anchor-0" 544 1116 basechar 0
LayerCount: 2
Fore
SplineSet
102 0 m 1,0,-1
 450 566 l 1,1,-1
 109 1116 l 1,2,-1
 283 1116 l 1,3,-1
 539 708 l 1,4,-1
 786 1116 l 1,5,-1
 948 1116 l 1,6,-1
 628 573 l 1,7,-1
 992 0 l 1,8,-1
 810 0 l 1,9,-1
 539 429 l 1,10,-1
 283 0 l 1,11,-1
 102 0 l 1,0,-1
EndSplineSet
EndChar

StartChar: y
Encoding: 121 121 453
Width: 922
VWidth: 2286
GlyphClass: 2
Flags: HW
AnchorPoint: "Anchor-2" 721 129 basechar 0
AnchorPoint: "Anchor-0" 494 1116 basechar 0
LayerCount: 2
Fore
SplineSet
249 -246 m 0,0,1
 124 -246 124 -246 45 -162 c 1,2,-1
 105 -56 l 1,3,-1
 117 -37 l 1,4,-1
 130 -46 l 1,5,6
 134 -63 134 -63 143.5 -76 c 128,-1,7
 153 -89 153 -89 183 -110 c 1,8,9
 218 -121 218 -121 257 -122 c 0,10,11
 335 -122 335 -122 375.5 -58 c 128,-1,12
 416 6 416 6 451 127 c 1,13,-1
 91 1116 l 1,14,-1
 241 1116 l 1,15,-1
 513 339 l 1,16,-1
 626 723 l 2,17,18
 654 822 654 822 681 919.5 c 128,-1,19
 708 1017 708 1017 719 1116 c 1,20,-1
 863 1116 l 1,21,22
 850 1017 850 1017 820.5 915 c 128,-1,23
 791 813 791 813 760 712 c 2,24,-1
 538 18 l 2,25,26
 491 -126 491 -126 417.5 -186 c 128,-1,27
 344 -246 344 -246 249 -246 c 0,0,1
EndSplineSet
EndChar

StartChar: z
Encoding: 122 122 463
Width: 922
VWidth: 2441
GlyphClass: 2
Flags: HW
AnchorPoint: "Anchor-2" 561 0 basechar 0
AnchorPoint: "Anchor-0" 561 1116 basechar 0
LayerCount: 2
Fore
SplineSet
110 117 m 1,0,-1
 730 967 l 1,1,-1
 156 967 l 1,2,-1
 156 1116 l 1,3,-1
 935 1116 l 1,4,-1
 935 999 l 1,5,-1
 327 147 l 1,6,-1
 881 147 l 2,7,8
 923 147 923 147 940 151.5 c 128,-1,9
 957 156 957 156 972 170 c 1,10,-1
 988 170 l 1,11,-1
 988 0 l 1,12,-1
 110 0 l 1,13,-1
 110 117 l 1,0,-1
EndSplineSet
EndChar

StartChar: u.i
Encoding: 65539 -1 468
Width: 922
VWidth: 2441
GlyphClass: 2
Flags: HW
AnchorPoint: "Anchor-3" 762 0 basechar 0
AnchorPoint: "Anchor-2" 452 0 basechar 0
AnchorPoint: "Anchor-1" 837 1116 basechar 0
AnchorPoint: "Anchor-0" 466 1116 basechar 0
LayerCount: 2
Fore
SplineSet
415 -27 m 0,0,1
 268 -27 268 -27 177 92.5 c 0,2,3
 87.9569892473 209.430107527 87.9569892473 209.430107527 87.9569892473 481.946120939 c 0,4,5
 87.9569892473 487.935483871 87.9569892473 487.935483871 88 494 c 2,6,-1
 91 1116 l 1,7,-1
 244 1116 l 1,8,-1
 244 494 l 2,9,10
 244 343 244 343 272 261 c 128,-1,11
 300 179 300 179 348 145.5 c 128,-1,12
 396 112 396 112 454 112 c 0,13,14
 552 112 552 112 627.5 206 c 128,-1,15
 703 300 703 300 703 501 c 2,16,-1
 703 1116 l 1,17,-1
 857 1116 l 1,18,-1
 857 173 l 2,19,20
 857 129 857 129 859.5 86.5 c 128,-1,21
 862 44 862 44 876 0 c 1,22,-1
 727 0 l 1,23,24
 713 42 713 42 709.5 83 c 128,-1,25
 706 124 706 124 706 166 c 1,26,27
 662 75 662 75 586 24 c 128,-1,28
 510 -27 510 -27 415 -27 c 0,0,1
EndSplineSet
EndChar

StartChar: r.serif
Encoding: 65540 -1 469
Width: 922
VWidth: 2441
GlyphClass: 1
Flags: HW
LayerCount: 2
Fore
SplineSet
141 -2 m 1,0,-1
 141 132 l 1,1,-1
 280 132 l 1,2,-1
 280 976 l 1,3,-1
 146 976 l 1,4,-1
 146 1116 l 1,5,-1
 450 1116 l 1,6,-1
 443 906 l 1,7,8
 492 1013 492 1013 579.5 1076.5 c 128,-1,9
 667 1140 667 1140 774 1140 c 0,10,11
 925 1140 925 1140 1031 1020 c 1,12,-1
 957 852 l 1,13,14
 940 857 940 857 927.5 879 c 128,-1,15
 915 901 915 901 896.5 926.5 c 128,-1,16
 878 952 878 952 843 971.5 c 128,-1,17
 808 991 808 991 740 991 c 0,18,19
 668 991 668 991 599 931 c 128,-1,20
 530 871 530 871 486.5 773.5 c 128,-1,21
 443 676 443 676 443 561 c 2,22,-1
 443 132 l 1,23,-1
 650 132 l 1,24,-1
 650 -2 l 1,25,-1
 141 -2 l 1,0,-1
EndSplineSet
EndChar

StartChar: ordfeminine
Encoding: 170 170 470
Width: 922
VWidth: 2441
GlyphClass: 1
Flags: HW
LayerCount: 2
Fore
SplineSet
166 515 m 1,0,-1
 935 515 l 1,1,-1
 935 386 l 1,2,-1
 166 386 l 1,3,-1
 166 515 l 1,0,-1
359 886 m 0,4,5
 359 811 359 811 399.5 780.5 c 128,-1,6
 440 750 440 750 498 750 c 0,7,8
 722 750 722 750 737 1055 c 1,9,10
 667 1062 667 1062 608 1062 c 0,11,12
 491 1062 491 1062 425 1020.5 c 128,-1,13
 359 979 359 979 359 886 c 0,4,5
480 629 m 0,14,15
 356 629 356 629 287.5 699 c 128,-1,16
 219 769 219 769 219 874 c 0,17,18
 219 1023 219 1023 327 1100 c 128,-1,19
 435 1177 435 1177 601 1177 c 0,20,21
 631 1177 631 1177 665 1175.5 c 128,-1,22
 699 1174 699 1174 734 1169 c 1,23,24
 724 1308 724 1308 675.5 1359.5 c 128,-1,25
 627 1411 627 1411 529 1411 c 0,26,27
 475 1411 475 1411 427.5 1390.5 c 128,-1,28
 380 1370 380 1370 337 1326 c 1,29,-1
 268 1419 l 1,30,31
 322 1477 322 1477 390.5 1505 c 128,-1,32
 459 1533 459 1533 540 1533 c 0,33,34
 640 1533 640 1533 713 1498 c 128,-1,35
 786 1463 786 1463 825 1372 c 128,-1,36
 864 1281 864 1281 864 1118 c 2,37,-1
 864 652 l 1,38,-1
 720 652 l 1,39,-1
 720 774 l 1,40,41
 678 686 678 686 610.5 657.5 c 128,-1,42
 543 629 543 629 480 629 c 0,14,15
EndSplineSet
EndChar

StartChar: ordmasculine
Encoding: 186 186 471
Width: 922
VWidth: 2441
GlyphClass: 1
Flags: HW
LayerCount: 2
Fore
SplineSet
166 515 m 1,0,-1
 935 515 l 1,1,-1
 935 386 l 1,2,-1
 166 386 l 1,3,-1
 166 515 l 1,0,-1
550 759 m 128,-1,5
 641 759 641 759 695.5 845.5 c 128,-1,6
 750 932 750 932 750 1086 c 0,7,8
 750 1242 750 1242 694 1326.5 c 128,-1,9
 638 1411 638 1411 550 1411 c 128,-1,10
 462 1411 462 1411 405.5 1326.5 c 128,-1,11
 349 1242 349 1242 349 1086 c 0,12,13
 349 932 349 932 404 845.5 c 128,-1,4
 459 759 459 759 550 759 c 128,-1,5
550 634 m 0,14,15
 401 634 401 634 303 752.5 c 128,-1,16
 205 871 205 871 205 1084 c 0,17,18
 205 1296 205 1296 303 1414.5 c 128,-1,19
 401 1533 401 1533 550 1533 c 0,20,21
 701 1533 701 1533 797.5 1414.5 c 128,-1,22
 894 1296 894 1296 894 1084 c 128,-1,23
 894 872 894 872 797.5 753 c 128,-1,24
 701 634 701 634 550 634 c 0,14,15
EndSplineSet
EndChar

StartChar: uni2124
Encoding: 8484 8484 473
Width: 922
VWidth: 2441
GlyphClass: 1
Flags: HW
LayerCount: 2
Fore
SplineSet
892 1416 m 1,0,-1
 765 1416 l 1,1,-1
 212 103 l 1,2,-1
 344 103 l 1,3,-1
 892 1416 l 1,0,-1
997 1521 m 1,4,-1
 997 1402 l 1,5,-1
 453 103 l 1,6,-1
 890 103 l 2,7,8
 928 103 928 103 945.5 107.5 c 128,-1,9
 963 112 963 112 979 126 c 1,10,-1
 995 126 l 1,11,-1
 995 0 l 1,12,-1
 107 0 l 1,13,-1
 107 119 l 1,14,-1
 661 1416 l 1,15,-1
 112 1416 l 1,16,-1
 112 1521 l 1,17,-1
 997 1521 l 1,4,-1
EndSplineSet
EndChar

StartChar: zero
Encoding: 48 48 474
Width: 922
VWidth: 2441
GlyphClass: 1
Flags: HW
LayerCount: 2
Fore
SplineSet
550 119 m 0,0,1
 672 119 672 119 741.5 280.5 c 128,-1,2
 811 442 811 442 811 752 c 0,3,4
 811 882 811 882 796 988 c 1,5,-1
 337 340 l 1,6,7
 406 119 406 119 550 119 c 0,0,1
288 752 m 0,8,9
 288 598 288 598 305 480 c 1,10,-1
 767 1137 l 1,11,12
 735 1256 735 1256 680 1320 c 128,-1,13
 625 1384 625 1384 550 1384 c 0,14,15
 428 1384 428 1384 358 1216 c 128,-1,16
 288 1048 288 1048 288 752 c 0,8,9
550 -27 m 128,-1,18
 345 -27 345 -27 233.5 172 c 128,-1,19
 122 371 122 371 122 752 c 0,20,21
 122 1120 122 1120 233.5 1325.5 c 128,-1,22
 345 1531 345 1531 550 1531 c 128,-1,23
 755 1531 755 1531 864.5 1326 c 128,-1,24
 974 1121 974 1121 974 752 c 0,25,26
 974 372 974 372 864.5 172.5 c 128,-1,17
 755 -27 755 -27 550 -27 c 128,-1,18
EndSplineSet
Substitution2: "'ss02' Style Set 2 in Latin lookup 36 subtable" zero.ss02
Substitution2: "'zero' Slashed Zero in Latin lookup 33 subtable" zero.zero
Substitution2: "'frac' Diagonal Fractions in Latin lookup 24 subtable" zero.numr
Substitution2: "'dnom' Denominators in Latin lookup 22 subtable" zero.dnom
Substitution2: "'numr' Numerators in Latin lookup 21 subtable" zero.numr
Substitution2: "'sups' Superscript in Latin lookup 20 subtable" uni2070
Substitution2: "'subs' Subscript in Latin lookup 19 subtable" uni2080
AlternateSubs2: "'aalt' Access All Alternates in Latin lookup 1 subtable" zero.zero zero.ss02 uni2080 zero.dnom zero.numr uni2070
EndChar

StartChar: one
Encoding: 49 49 475
Width: 922
VWidth: 2441
GlyphClass: 1
Flags: HW
LayerCount: 2
Fore
SplineSet
501 0 m 1,0,-1
 501 1307 l 1,1,-1
 224 1216 l 1,2,-1
 191 1316 l 1,3,-1
 552 1523 l 1,4,-1
 664 1523 l 1,5,-1
 664 0 l 1,6,-1
 501 0 l 1,0,-1
EndSplineSet
Substitution2: "'frac' Diagonal Fractions in Latin lookup 24 subtable" one.numr
Substitution2: "'dnom' Denominators in Latin lookup 22 subtable" one.dnom
Substitution2: "'numr' Numerators in Latin lookup 21 subtable" one.numr
Substitution2: "'sups' Superscript in Latin lookup 20 subtable" uni00B9
Substitution2: "'subs' Subscript in Latin lookup 19 subtable" uni2081
AlternateSubs2: "'aalt' Access All Alternates in Latin lookup 1 subtable" uni2081 one.dnom one.numr uni00B9
EndChar

StartChar: two
Encoding: 50 50 476
Width: 922
VWidth: 2441
GlyphClass: 1
Flags: HW
LayerCount: 2
Fore
SplineSet
161 135 m 1,0,1
 357 359 357 359 498.5 521 c 128,-1,2
 640 683 640 683 716 819 c 128,-1,3
 792 955 792 955 794 1101 c 0,4,5
 794 1260 794 1260 728 1322 c 128,-1,6
 662 1384 662 1384 566 1384 c 0,7,8
 487 1384 487 1384 420.5 1350 c 128,-1,9
 354 1316 354 1316 300 1240 c 1,10,11
 281 1203 281 1203 276 1186 c 128,-1,12
 271 1169 271 1169 275 1150 c 1,13,-1
 268 1135 l 1,14,-1
 247 1148 l 1,15,-1
 126 1233 l 1,16,17
 192 1372 192 1372 306 1451.5 c 128,-1,18
 420 1531 420 1531 564 1531 c 0,19,20
 743 1531 743 1531 850 1416.5 c 128,-1,21
 957 1302 957 1302 957 1097 c 0,22,23
 957 931 957 931 873 780 c 128,-1,24
 789 629 789 629 653 475.5 c 128,-1,25
 517 322 517 322 366 147 c 1,26,-1
 857 147 l 2,27,28
 899 147 899 147 915.5 151.5 c 128,-1,29
 932 156 932 156 948 170 c 1,30,-1
 964 170 l 1,31,-1
 964 0 l 1,32,-1
 161 0 l 1,33,-1
 161 135 l 1,0,1
EndSplineSet
Substitution2: "'frac' Diagonal Fractions in Latin lookup 24 subtable" two.numr
Substitution2: "'dnom' Denominators in Latin lookup 22 subtable" two.dnom
Substitution2: "'numr' Numerators in Latin lookup 21 subtable" two.numr
Substitution2: "'sups' Superscript in Latin lookup 20 subtable" uni00B2
Substitution2: "'subs' Subscript in Latin lookup 19 subtable" uni2082
AlternateSubs2: "'aalt' Access All Alternates in Latin lookup 1 subtable" uni2082 two.dnom two.numr uni00B2
EndChar

StartChar: three
Encoding: 51 51 477
Width: 922
VWidth: 2441
GlyphClass: 1
Flags: HW
LayerCount: 2
Fore
SplineSet
527 -27 m 0,0,1
 295 -27 295 -27 147 151 c 1,2,-1
 256 273 l 1,3,-1
 273 293 l 1,4,-1
 286 281 l 1,5,6
 288 260 288 260 294 241 c 128,-1,7
 300 222 300 222 324 193 c 1,8,9
 363 158 363 158 408.5 137.5 c 128,-1,10
 454 117 454 117 520 117 c 0,11,12
 650 117 650 117 712 202.5 c 128,-1,13
 774 288 774 288 774 424 c 0,14,15
 774 597 774 597 671.5 670 c 128,-1,16
 589.274725275 728.56043956 589.274725275 728.56043956 459.750633981 728.56043956 c 0,0,0
 427.813186813 728.56043956 427.813186813 728.56043956 393 725 c 1,17,-1
 393 859 l 1,18,19
 535 859 535 859 606.5 901 c 128,-1,20
 678 943 678 943 702.5 1012 c 128,-1,21
 727 1081 727 1081 727 1160 c 0,22,23
 727 1267 727 1267 674.5 1326.5 c 128,-1,24
 622 1386 622 1386 538 1386 c 0,25,26
 472 1386 472 1386 410.5 1359.5 c 128,-1,27
 349 1333 349 1333 293 1272 c 1,28,-1
 191 1365 l 1,29,30
 264 1453 264 1453 353 1492 c 128,-1,31
 442 1531 442 1531 538 1531 c 0,32,33
 704 1531 704 1531 799 1428.5 c 128,-1,34
 894 1326 894 1326 894 1153 c 0,35,36
 894 1034 894 1034 841.5 939.5 c 128,-1,37
 789 845 789 845 678 806 c 1,38,39
 795 764 795 764 867 668.5 c 128,-1,40
 939 573 939 573 939 417 c 0,41,42
 939 293 939 293 892 193 c 128,-1,43
 845 93 845 93 752 33 c 128,-1,44
 659 -27 659 -27 527 -27 c 0,0,1
EndSplineSet
Substitution2: "'frac' Diagonal Fractions in Latin lookup 24 subtable" three.numr
Substitution2: "'dnom' Denominators in Latin lookup 22 subtable" three.dnom
Substitution2: "'numr' Numerators in Latin lookup 21 subtable" three.numr
Substitution2: "'sups' Superscript in Latin lookup 20 subtable" uni00B3
Substitution2: "'subs' Subscript in Latin lookup 19 subtable" uni2083
AlternateSubs2: "'aalt' Access All Alternates in Latin lookup 1 subtable" uni2083 three.dnom three.numr uni00B3
EndChar

StartChar: four
Encoding: 52 52 478
Width: 922
VWidth: 2441
GlyphClass: 1
Flags: HW
LayerCount: 2
Fore
SplineSet
282 517 m 1,0,-1
 669 517 l 1,1,-1
 669 1193 l 1,2,-1
 282 517 l 1,0,-1
669 0 m 1,3,-1
 669 376 l 1,4,-1
 105 376 l 1,5,-1
 105 498 l 1,6,-1
 699 1523 l 1,7,-1
 830 1523 l 1,8,-1
 830 515 l 1,9,-1
 995 515 l 1,10,-1
 995 373 l 1,11,-1
 830 373 l 1,12,-1
 830 0 l 1,13,-1
 669 0 l 1,3,-1
EndSplineSet
Substitution2: "'frac' Diagonal Fractions in Latin lookup 24 subtable" four.numr
Substitution2: "'dnom' Denominators in Latin lookup 22 subtable" four.dnom
Substitution2: "'numr' Numerators in Latin lookup 21 subtable" four.numr
Substitution2: "'sups' Superscript in Latin lookup 20 subtable" uni2074
Substitution2: "'subs' Subscript in Latin lookup 19 subtable" uni2084
AlternateSubs2: "'aalt' Access All Alternates in Latin lookup 1 subtable" uni2084 four.dnom four.numr uni2074
EndChar

StartChar: five
Encoding: 53 53 479
Width: 922
VWidth: 2441
GlyphClass: 1
Flags: HW
LayerCount: 2
Fore
SplineSet
547 -27 m 0,0,1
 423 -27 423 -27 314 32 c 128,-1,2
 205 91 205 91 139 203 c 1,3,-1
 263 298 l 1,4,-1
 284 312 l 1,5,-1
 293 300 l 1,6,7
 293 281 293 281 299 264 c 128,-1,8
 305 247 305 247 329 215 c 0,9,10
 371 166 371 166 424.5 142.5 c 128,-1,11
 478 119 478 119 554 119 c 0,12,13
 659 119 659 119 737 215.5 c 128,-1,14
 815 312 815 312 815 486 c 0,15,16
 815 659 815 659 736 754.5 c 128,-1,17
 657 850 657 850 542 850 c 0,18,19
 393 850 393 850 288 708 c 1,20,-1
 188 747 l 1,21,-1
 232 1521 l 1,22,-1
 927 1521 l 1,23,-1
 927 1370 l 1,24,-1
 371 1370 l 1,25,-1
 349 930 l 1,26,27
 459 986 459 986 571 986 c 0,28,29
 750 986 750 986 864.5 852 c 128,-1,30
 979 718 979 718 979 478 c 128,-1,31
 979 238 979 238 857 105.5 c 128,-1,32
 735 -27 735 -27 547 -27 c 0,0,1
EndSplineSet
Substitution2: "'frac' Diagonal Fractions in Latin lookup 24 subtable" five.numr
Substitution2: "'dnom' Denominators in Latin lookup 22 subtable" five.dnom
Substitution2: "'numr' Numerators in Latin lookup 21 subtable" five.numr
Substitution2: "'sups' Superscript in Latin lookup 20 subtable" uni2075
Substitution2: "'subs' Subscript in Latin lookup 19 subtable" uni2085
AlternateSubs2: "'aalt' Access All Alternates in Latin lookup 1 subtable" uni2085 five.dnom five.numr uni2075
EndChar

StartChar: six
Encoding: 54 54 480
Width: 922
VWidth: 2441
GlyphClass: 1
Flags: HW
LayerCount: 2
Fore
SplineSet
581 124 m 0,0,1
 674 124 674 124 741 216 c 128,-1,2
 808 308 808 308 808 480 c 0,3,4
 808 664 808 664 733.5 748 c 128,-1,5
 659 832 659 832 576 832 c 0,6,7
 497 832 497 832 428 775 c 128,-1,8
 359 718 359 718 315 632 c 1,9,10
 311 596.8 311 596.8 311 561.44 c 0,0,0
 311 508.4 311 508.4 320 455 c 128,-1,11
 335 366 335 366 370 291.5 c 128,-1,12
 405 217 405 217 459 170.5 c 128,-1,13
 513 124 513 124 581 124 c 0,0,1
573 -24 m 0,14,15
 368 -24 368 -24 257.5 165 c 128,-1,16
 147 354 147 354 147 694 c 0,17,18
 147 1111 147 1111 277.5 1324.5 c 128,-1,19
 408 1538 408 1538 629 1538 c 0,20,21
 808 1538 808 1538 932 1400 c 1,22,-1
 834 1277 l 1,23,-1
 820 1258 l 1,24,-1
 808 1270 l 1,25,26
 806 1289 806 1289 799 1306 c 128,-1,27
 792 1323 792 1323 764 1351 c 1,28,29
 714.275 1389.025 714.275 1389.025 637.9325 1389.025 c 0,0,0
 635.975 1389.025 635.975 1389.025 634 1389 c 0,30,31
 590 1389 590 1389 535 1367 c 128,-1,32
 480 1345 480 1345 429 1284 c 128,-1,33
 378 1223 378 1223 344 1110 c 128,-1,34
 310 997 310 997 308 815 c 1,35,36
 354 894 354 894 429.5 937.5 c 128,-1,37
 505 981 505 981 594 981 c 0,38,39
 697 981 697 981 780.5 919 c 128,-1,40
 864 857 864 857 914 745.5 c 128,-1,41
 964 634 964 634 964 484 c 0,42,43
 964 333 964 333 913 218 c 128,-1,44
 862 103 862 103 773.5 39.5 c 128,-1,45
 685 -24 685 -24 573 -24 c 0,14,15
EndSplineSet
Substitution2: "'frac' Diagonal Fractions in Latin lookup 24 subtable" six.numr
Substitution2: "'dnom' Denominators in Latin lookup 22 subtable" six.dnom
Substitution2: "'numr' Numerators in Latin lookup 21 subtable" six.numr
Substitution2: "'sups' Superscript in Latin lookup 20 subtable" uni2076
Substitution2: "'subs' Subscript in Latin lookup 19 subtable" uni2086
AlternateSubs2: "'aalt' Access All Alternates in Latin lookup 1 subtable" uni2086 six.dnom six.numr uni2076
EndChar

StartChar: seven
Encoding: 55 55 481
Width: 922
VWidth: 2441
GlyphClass: 1
Flags: HW
LayerCount: 2
Fore
SplineSet
337 0 m 1,0,1
 432 349 432 349 533 688.5 c 128,-1,2
 634 1028 634 1028 752 1365 c 1,3,-1
 173 1365 l 1,4,-1
 173 1521 l 1,5,-1
 950 1521 l 1,6,-1
 950 1428 l 1,7,8
 826 1076 826 1076 717 721 c 128,-1,9
 608 366 608 366 517 0 c 1,10,-1
 337 0 l 1,0,1
EndSplineSet
Substitution2: "'frac' Diagonal Fractions in Latin lookup 24 subtable" seven.numr
Substitution2: "'dnom' Denominators in Latin lookup 22 subtable" seven.dnom
Substitution2: "'numr' Numerators in Latin lookup 21 subtable" seven.numr
Substitution2: "'sups' Superscript in Latin lookup 20 subtable" uni2077
Substitution2: "'subs' Subscript in Latin lookup 19 subtable" uni2087
AlternateSubs2: "'aalt' Access All Alternates in Latin lookup 1 subtable" uni2087 seven.dnom seven.numr uni2077
EndChar

StartChar: eight
Encoding: 56 56 482
Width: 922
VWidth: 2441
GlyphClass: 1
Flags: HW
LayerCount: 2
Fore
SplineSet
554 124 m 0,0,1
 676 124 676 124 741 202.5 c 128,-1,2
 806 281 806 281 806 393 c 0,3,4
 806 507 806 507 730 599 c 128,-1,5
 654 691 654 691 525 740 c 1,6,7
 425 694 425 694 361.5 604.5 c 128,-1,8
 298 515 298 515 298 401 c 0,9,10
 298 289 298 289 366.5 206.5 c 128,-1,11
 435 124 435 124 554 124 c 0,0,1
587 879 m 1,12,13
 668 928 668 928 717.5 1008 c 128,-1,14
 767 1088 767 1088 767 1174 c 0,15,16
 767 1265 767 1265 714.5 1332.5 c 128,-1,17
 662 1400 662 1400 557 1400 c 128,-1,18
 452 1400 452 1400 402 1333.5 c 128,-1,19
 352 1267 352 1267 352 1181 c 0,20,21
 352 1069 352 1069 418 1004.5 c 128,-1,22
 484 940 484 940 587 879 c 1,12,13
550 -24 m 0,23,24
 420 -24 420 -24 326 29.5 c 128,-1,25
 232 83 232 83 182 175.5 c 128,-1,26
 132 268 132 268 132 384 c 0,27,28
 132 521 132 521 205 634 c 128,-1,29
 278 747 278 747 405 811 c 1,30,31
 310 865 310 865 254 960 c 128,-1,32
 198 1055 198 1055 198 1165 c 0,33,34
 198 1324 198 1324 288 1432 c 128,-1,35
 378 1540 378 1540 561 1540 c 0,36,37
 749 1540 749 1540 836 1435 c 128,-1,38
 923 1330 923 1330 923 1179 c 0,39,40
 923 1069 923 1069 865.5 970 c 128,-1,41
 808 871 808 871 708 813 c 1,42,43
 827 752 827 752 898 640.5 c 128,-1,44
 969 529 969 529 969 393 c 0,45,46
 969 212 969 212 856 94 c 128,-1,47
 743 -24 743 -24 550 -24 c 0,23,24
EndSplineSet
Substitution2: "'frac' Diagonal Fractions in Latin lookup 24 subtable" eight.numr
Substitution2: "'dnom' Denominators in Latin lookup 22 subtable" eight.dnom
Substitution2: "'numr' Numerators in Latin lookup 21 subtable" eight.numr
Substitution2: "'sups' Superscript in Latin lookup 20 subtable" uni2078
Substitution2: "'subs' Subscript in Latin lookup 19 subtable" uni2088
AlternateSubs2: "'aalt' Access All Alternates in Latin lookup 1 subtable" uni2088 eight.dnom eight.numr uni2078
EndChar

StartChar: nine
Encoding: 57 57 483
Width: 922
VWidth: 2441
GlyphClass: 1
Flags: HW
LayerCount: 2
Fore
SplineSet
305 1037 m 0,0,1
 305 893 305 893 378.5 807.5 c 128,-1,2
 452 722 452 722 550 722 c 0,3,4
 641 722 641 722 701.5 750 c 128,-1,5
 762 778 762 778 811 843 c 1,6,7
 804 1121 804 1121 741 1252.5 c 128,-1,8
 678 1384 678 1384 550 1384 c 0,9,10
 443 1384 443 1384 374 1294.5 c 128,-1,11
 305 1205 305 1205 305 1037 c 0,0,1
501 -24 m 1,12,13
 301 -24 301 -24 173 112 c 1,14,-1
 266 230 l 1,15,-1
 284 252 l 1,16,-1
 296 240 l 1,17,18
 298 221 298 221 306.5 203.5 c 128,-1,19
 315 186 315 186 345 156 c 1,20,21
 403 119 403 119 489 119 c 0,22,23
 594 119 594 119 660.5 198.5 c 128,-1,24
 727 278 727 278 763 406.5 c 128,-1,25
 799 535 799 535 808 678 c 1,26,27
 757 632 757 632 694.5 605 c 128,-1,28
 632 578 632 578 547 578 c 0,29,30
 435 578 435 578 344.5 636 c 128,-1,31
 254 694 254 694 201.5 797.5 c 128,-1,32
 149 901 149 901 149 1035 c 0,33,34
 149 1184 149 1184 202.5 1295.5 c 128,-1,35
 256 1407 256 1407 345.5 1469 c 128,-1,36
 435 1531 435 1531 542 1531 c 0,37,38
 740 1531 740 1531 852 1355 c 128,-1,39
 964 1179 964 1179 964 886 c 0,40,41
 964 420 964 420 843.5 200.5 c 128,-1,42
 723 -19 723 -19 501 -24 c 1,12,13
EndSplineSet
Substitution2: "'frac' Diagonal Fractions in Latin lookup 24 subtable" nine.numr
Substitution2: "'dnom' Denominators in Latin lookup 22 subtable" nine.dnom
Substitution2: "'numr' Numerators in Latin lookup 21 subtable" nine.numr
Substitution2: "'sups' Superscript in Latin lookup 20 subtable" uni2079
Substitution2: "'subs' Subscript in Latin lookup 19 subtable" uni2089
AlternateSubs2: "'aalt' Access All Alternates in Latin lookup 1 subtable" uni2089 nine.dnom nine.numr uni2079
EndChar

StartChar: zero.zero
Encoding: 65541 -1 484
Width: 922
VWidth: 2441
GlyphClass: 1
Flags: HW
LayerCount: 2
Fore
SplineSet
550 634 m 0,0,1
 494 634 494 634 457 672 c 128,-1,2
 420 710 420 710 420 764 c 128,-1,3
 420 818 420 818 459 856 c 128,-1,4
 498 894 498 894 550 894 c 0,5,6
 599 894 599 894 640 856 c 128,-1,7
 681 818 681 818 681 764 c 0,8,9
 681 713 681 713 642.5 673.5 c 128,-1,10
 604 634 604 634 550 634 c 0,0,1
550 119 m 128,-1,12
 672 119 672 119 741.5 280.5 c 128,-1,13
 811 442 811 442 811 752 c 0,14,15
 811 1048 811 1048 741 1216 c 128,-1,16
 671 1384 671 1384 550 1384 c 0,17,18
 428 1384 428 1384 358 1216 c 128,-1,19
 288 1048 288 1048 288 752 c 0,20,21
 288 442 288 442 358 280.5 c 128,-1,11
 428 119 428 119 550 119 c 128,-1,12
550 -27 m 128,-1,23
 345 -27 345 -27 233.5 172 c 128,-1,24
 122 371 122 371 122 752 c 0,25,26
 122 1120 122 1120 233.5 1325.5 c 128,-1,27
 345 1531 345 1531 550 1531 c 128,-1,28
 755 1531 755 1531 864.5 1326 c 128,-1,29
 974 1121 974 1121 974 752 c 0,30,31
 974 372 974 372 864.5 172.5 c 128,-1,22
 755 -27 755 -27 550 -27 c 128,-1,23
EndSplineSet
EndChar

StartChar: zero.ss02
Encoding: 65542 -1 485
Width: 922
VWidth: 2441
GlyphClass: 1
Flags: HW
LayerCount: 2
Fore
SplineSet
550 119 m 128,-1,1
 672 119 672 119 741.5 280.5 c 128,-1,2
 811 442 811 442 811 752 c 0,3,4
 811 1048 811 1048 741 1216 c 128,-1,5
 671 1384 671 1384 550 1384 c 0,6,7
 428 1384 428 1384 358 1216 c 128,-1,8
 288 1048 288 1048 288 752 c 0,9,10
 288 442 288 442 358 280.5 c 128,-1,0
 428 119 428 119 550 119 c 128,-1,1
550 -27 m 128,-1,12
 345 -27 345 -27 233.5 172 c 128,-1,13
 122 371 122 371 122 752 c 0,14,15
 122 1120 122 1120 233.5 1325.5 c 128,-1,16
 345 1531 345 1531 550 1531 c 128,-1,17
 755 1531 755 1531 864.5 1326 c 128,-1,18
 974 1121 974 1121 974 752 c 0,19,20
 974 372 974 372 864.5 172.5 c 128,-1,11
 755 -27 755 -27 550 -27 c 128,-1,12
EndSplineSet
EndChar

StartChar: uni2070
Encoding: 8304 8304 516
Width: 922
VWidth: 2441
GlyphClass: 1
Flags: HW
LayerCount: 2
Fore
SplineSet
550 691 m 0,0,1
 633 691 633 691 679 787 c 128,-1,2
 725 883 725 883 725 1067 c 0,3,4
 725 1140 725 1140 718 1204 c 1,5,-1
 408 818 l 1,6,7
 452 691 452 691 550 691 c 0,0,1
373 1067 m 0,8,9
 373 981 373 981 384 916 c 1,10,-1
 694 1307 l 1,11,12
 648.661870504 1442.02877698 648.661870504 1442.02877698 552.809378397 1442.02877698 c 0,13,14
 551.410071942 1442.02877698 551.410071942 1442.02877698 550 1442 c 0,15,16
 467 1442 467 1442 420 1342 c 128,-1,17
 373 1242 373 1242 373 1067 c 0,8,9
550 583 m 128,-1,19
 408 583 408 583 328.5 706.5 c 128,-1,20
 249 830 249 830 249 1067 c 0,21,22
 249 1297 249 1297 328.5 1425 c 128,-1,23
 408 1553 408 1553 550 1553 c 128,-1,24
 692 1553 692 1553 771 1424.5 c 128,-1,25
 850 1296 850 1296 850 1067 c 0,26,27
 850 830 850 830 771 706.5 c 128,-1,18
 692 583 692 583 550 583 c 128,-1,19
EndSplineSet
Substitution2: "'ss02' Style Set 2 in Latin lookup 36 subtable" uni2070.ss02
Substitution2: "'zero' Slashed Zero in Latin lookup 33 subtable" uni2070.zero
AlternateSubs2: "'aalt' Access All Alternates in Latin lookup 1 subtable" uni2070.ss02 uni2070.zero
EndChar

StartChar: uni00B9
Encoding: 185 185 517
Width: 922
VWidth: 2441
GlyphClass: 1
Flags: HW
LayerCount: 2
Fore
SplineSet
508 601 m 1,0,-1
 508 1389 l 1,1,-1
 327 1333 l 1,2,-1
 298 1414 l 1,3,-1
 542 1545 l 1,4,-1
 634 1545 l 1,5,-1
 634 601 l 1,6,-1
 508 601 l 1,0,-1
EndSplineSet
EndChar

StartChar: uni00B2
Encoding: 178 178 518
Width: 922
VWidth: 2441
GlyphClass: 1
Flags: HW
LayerCount: 2
Fore
SplineSet
275 699 m 1,0,1
 412 838 412 838 509 935 c 128,-1,2
 606 1032 606 1032 656 1112.5 c 128,-1,3
 706 1193 706 1193 708 1281 c 0,4,5
 708 1367 708 1367 665 1403.5 c 128,-1,6
 622 1440 622 1440 559 1440 c 0,7,8
 468 1440 468 1440 408 1389 c 1,9,10
 384 1357 384 1357 377.5 1340 c 128,-1,11
 371 1323 371 1323 373 1302 c 1,12,-1
 364 1289 l 1,13,-1
 345 1304 l 1,14,-1
 252 1370 l 1,15,16
 301 1456 301 1456 379 1504.5 c 128,-1,17
 457 1553 457 1553 559 1553 c 0,18,19
 678 1553 678 1553 755 1481 c 128,-1,20
 832 1409 832 1409 832 1281 c 0,21,22
 832 1178 832 1178 781 1091 c 128,-1,23
 730 1004 730 1004 643.5 912 c 128,-1,24
 557 820 557 820 452 710 c 1,25,-1
 730 710 l 2,26,27
 772 710 772 710 789 715 c 128,-1,28
 806 720 806 720 820 734 c 1,29,-1
 837 734 l 1,30,-1
 837 601 l 1,31,-1
 275 601 l 1,32,-1
 275 699 l 1,0,1
EndSplineSet
EndChar

StartChar: uni00B3
Encoding: 179 179 519
Width: 922
VWidth: 2441
GlyphClass: 1
Flags: HW
LayerCount: 2
Fore
SplineSet
532 583 m 0,0,1
 451 583 451 583 381.5 613 c 128,-1,2
 312 643 312 643 263 696 c 1,3,-1
 342 783 l 1,4,-1
 359 803 l 1,5,-1
 371 792 l 1,6,7
 371 773 371 773 382 756.5 c 128,-1,8
 393 740 393 740 422 713 c 1,9,10
 443 703 443 703 469.5 697 c 128,-1,11
 496 691 496 691 527 691 c 0,12,13
 608 691 608 691 652 738.5 c 128,-1,14
 696 786 696 786 696 867 c 0,15,16
 696 970 696 970 626.5 1010 c 0,17,18
 571.990196078 1041.37254902 571.990196078 1041.37254902 486.415417147 1041.37254902 c 0,19,20
 462.882352941 1041.37254902 462.882352941 1041.37254902 437 1039 c 1,21,-1
 437 1142 l 1,22,23
 442.245283019 1141.9245283 442.245283019 1141.9245283 447.356710573 1141.9245283 c 0,24,25
 577.698113208 1141.9245283 577.698113208 1141.9245283 621 1191 c 0,26,27
 666 1242 666 1242 666 1314 c 0,28,29
 666 1375 666 1375 628.5 1408.5 c 128,-1,30
 591 1442 591 1442 535 1442 c 0,31,32
 491 1442 491 1442 449.5 1426.5 c 128,-1,33
 408 1411 408 1411 371 1372 c 1,34,-1
 291 1445 l 1,35,36
 342 1501 342 1501 406.5 1527 c 128,-1,37
 471 1553 471 1553 538 1553 c 0,38,39
 655 1553 655 1553 724.5 1488 c 128,-1,40
 794 1423 794 1423 794 1316 c 0,41,42
 794 1241 794 1241 757 1183 c 128,-1,43
 720 1125 720 1125 652 1101 c 1,44,45
 725 1077 725 1077 774 1018.5 c 128,-1,46
 823 960 823 960 823 862 c 0,47,48
 823 743 823 743 747 663 c 128,-1,49
 671 583 671 583 532 583 c 0,0,1
EndSplineSet
EndChar

StartChar: uni2074
Encoding: 8308 8308 520
Width: 922
VWidth: 2441
GlyphClass: 1
Flags: HW
LayerCount: 2
Fore
SplineSet
386 935 m 1,0,-1
 640 935 l 1,1,-1
 640 1314 l 1,2,-1
 386 935 l 1,0,-1
638 601 m 1,3,-1
 638 827 l 1,4,-1
 244 827 l 1,5,-1
 244 918 l 1,6,-1
 666 1545 l 1,7,-1
 767 1545 l 1,8,-1
 767 935 l 1,9,-1
 886 935 l 1,10,-1
 886 825 l 1,11,-1
 767 825 l 1,12,-1
 767 601 l 1,13,-1
 638 601 l 1,3,-1
EndSplineSet
EndChar

StartChar: uni2075
Encoding: 8309 8309 521
Width: 922
VWidth: 2441
GlyphClass: 1
Flags: HW
LayerCount: 2
Fore
SplineSet
550 583 m 0,0,1
 462 583 462 583 386 620 c 128,-1,2
 310 657 310 657 263 727 c 1,3,-1
 356 801 l 1,4,-1
 376 815 l 1,5,-1
 386 801 l 1,6,7
 384 782 384 782 394.5 767 c 128,-1,8
 405 752 405 752 435 722 c 1,9,10
 478.125 693.875 478.125 693.875 543.22265625 693.875 c 0,11,12
 547.5625 693.875 547.5625 693.875 552 694 c 0,13,14
 622 694 622 694 673.5 748.5 c 128,-1,15
 725 803 725 803 725 901 c 0,16,17
 725 1004 725 1004 672.5 1057.5 c 128,-1,18
 620 1111 620 1111 545 1111 c 0,19,20
 445 1111 445 1111 378 1030 c 1,21,-1
 298 1057 l 1,22,-1
 329 1543 l 1,23,-1
 813 1543 l 1,24,-1
 813 1433 l 1,25,-1
 440 1433 l 1,26,-1
 424 1181 l 1,27,28
 490 1218 490 1218 573 1218 c 0,29,30
 695 1218 695 1218 772.5 1135.5 c 128,-1,31
 850 1053 850 1053 850 904 c 0,32,33
 850 753 850 753 766 668 c 128,-1,34
 682 583 682 583 550 583 c 0,0,1
EndSplineSet
EndChar

StartChar: uni2076
Encoding: 8310 8310 522
Width: 922
VWidth: 2441
GlyphClass: 1
Flags: HW
LayerCount: 2
Fore
SplineSet
569 696 m 0,0,1
 630 696 630 696 674 749.5 c 128,-1,2
 718 803 718 803 718 904 c 0,3,4
 718 1009 718 1009 669 1056.5 c 128,-1,5
 620 1104 620 1104 566 1104 c 0,6,7
 517 1104 517 1104 470.5 1071.5 c 128,-1,8
 424 1039 424 1039 396 991 c 1,9,10
 394.958333333 975.375 394.958333333 975.375 394.958333333 960.075520833 c 0,11,12
 394.958333333 901.9375 394.958333333 901.9375 410 848.5 c 0,13,14
 429 781 429 781 471 738.5 c 128,-1,15
 513 696 513 696 569 696 c 0,0,1
564 587 m 0,16,17
 422 587 422 587 345 705 c 128,-1,18
 268 823 268 823 268 1030 c 0,19,20
 268 1286 268 1286 360 1421 c 128,-1,21
 452 1556 452 1556 606 1556 c 0,22,23
 732 1556 732 1556 820 1467 c 1,24,-1
 750 1379 l 1,25,-1
 732 1363 l 1,26,-1
 720 1372 l 1,27,28
 718 1391 718 1391 707 1403.5 c 128,-1,29
 696 1416 696 1416 664 1435 c 1,30,31
 637 1442 637 1442 610 1442 c 0,32,33
 571 1442 571 1442 521 1419 c 128,-1,34
 471 1396 471 1396 434.5 1327 c 128,-1,35
 398 1258 398 1258 393 1121 c 1,36,37
 425 1165 425 1165 476 1189.5 c 128,-1,38
 527 1214 527 1214 583 1214 c 0,39,40
 690 1214 690 1214 765 1132 c 128,-1,41
 840 1050 840 1050 840 906 c 0,42,43
 840 764 840 764 761.5 675.5 c 128,-1,44
 683 587 683 587 564 587 c 0,16,17
EndSplineSet
EndChar

StartChar: uni2077
Encoding: 8311 8311 523
Width: 922
VWidth: 2441
GlyphClass: 1
Flags: HW
LayerCount: 2
Fore
SplineSet
393 601 m 1,0,1
 459 813 459 813 528.5 1018 c 128,-1,2
 598 1223 598 1223 676 1428 c 1,3,-1
 286 1428 l 1,4,-1
 286 1543 l 1,5,-1
 827 1543 l 1,6,-1
 827 1472 l 1,7,8
 741 1257 741 1257 667.5 1041 c 128,-1,9
 594 825 594 825 529 601 c 1,10,-1
 393 601 l 1,0,1
EndSplineSet
EndChar

StartChar: uni2078
Encoding: 8312 8312 524
Width: 922
VWidth: 2441
GlyphClass: 1
Flags: HW
LayerCount: 2
Fore
SplineSet
552 699 m 0,0,1
 633 699 633 699 675.5 740 c 128,-1,2
 718 781 718 781 718 850 c 0,3,4
 718 918 718 918 666.5 969 c 128,-1,5
 615 1020 615 1020 529 1050 c 1,6,7
 466 1020 466 1020 425 970 c 128,-1,8
 384 920 384 920 384 855 c 0,9,10
 384 787 384 787 430.5 743 c 128,-1,11
 477 699 477 699 552 699 c 0,0,1
573 1148 m 1,12,13
 624 1180 624 1180 657.5 1226 c 128,-1,14
 691 1272 691 1272 691 1323 c 128,-1,15
 691 1374 691 1374 655.5 1410.5 c 128,-1,16
 620 1447 620 1447 554 1447 c 128,-1,17
 488 1447 488 1447 454 1412 c 128,-1,18
 420 1377 420 1377 420 1328 c 0,19,20
 420 1260 420 1260 465 1221.5 c 128,-1,21
 510 1183 510 1183 573 1148 c 1,12,13
550 587 m 0,22,23
 415 587 415 587 335.5 658.5 c 128,-1,24
 256 730 256 730 256 840 c 0,25,26
 256 928 256 928 305 996.5 c 128,-1,27
 354 1065 354 1065 437 1106 c 1,28,29
 374 1138 374 1138 337 1195.5 c 128,-1,30
 300 1253 300 1253 300 1318 c 0,31,32
 300 1421 300 1421 366 1489.5 c 128,-1,33
 432 1558 432 1558 559 1558 c 0,34,35
 685 1558 685 1558 749 1492 c 128,-1,36
 813 1426 813 1426 813 1328 c 0,37,38
 813 1258 813 1258 776.5 1197.5 c 128,-1,39
 740 1137 740 1137 676 1101 c 1,40,41
 755 1064 755 1064 800 997 c 128,-1,42
 845 930 845 930 845 848 c 0,43,44
 845 734 845 734 766 660.5 c 128,-1,45
 687 587 687 587 550 587 c 0,22,23
EndSplineSet
EndChar

StartChar: uni2079
Encoding: 8313 8313 525
Width: 922
VWidth: 2441
GlyphClass: 1
Flags: HW
LayerCount: 2
Fore
SplineSet
389 1237 m 0,0,1
 389 1154 389 1154 436.5 1105.5 c 128,-1,2
 484 1057 484 1057 550 1057 c 0,3,4
 660 1057 660 1057 718 1128 c 1,5,6
 713 1294 713 1294 671 1368 c 128,-1,7
 629 1442 629 1442 547 1442 c 0,8,9
 477 1442 477 1442 433 1391 c 128,-1,10
 389 1340 389 1340 389 1237 c 0,0,1
515 587 m 0,11,12
 445 587 445 587 384.5 607 c 128,-1,13
 324 627 324 627 278 671 c 1,14,-1
 349 762 l 1,15,-1
 366 781 l 1,16,-1
 378 771 l 1,17,18
 380 752 380 752 392.5 738.5 c 128,-1,19
 405 725 405 725 440 703 c 1,20,21
 469.090909091 693.909090909 469.090909091 693.909090909 499.008264463 693.909090909 c 0,22,23
 502 693.909090909 502 693.909090909 505 694 c 0,24,25
 603 694 603 694 654.5 786.5 c 128,-1,26
 706 879 706 879 715 1009 c 1,27,28
 680 982 680 982 639 966 c 128,-1,29
 598 950 598 950 545 950 c 0,30,31
 426 950 426 950 346 1029.5 c 128,-1,32
 266 1109 266 1109 266 1240 c 0,33,34
 266 1379 266 1379 347.5 1466 c 128,-1,35
 429 1553 429 1553 547 1553 c 0,36,37
 689 1553 689 1553 763 1443 c 128,-1,38
 837 1333 837 1333 837 1142 c 0,39,40
 837 858 837 858 753 723.5 c 128,-1,41
 669 589 669 589 515 587 c 0,11,12
EndSplineSet
EndChar

StartChar: fraction
Encoding: 8260 8260 526
Width: 922
VWidth: 2441
GlyphClass: 1
Flags: HW
LayerCount: 2
Fore
SplineSet
271 -103 m 1,0,-1
 163 -44 l 1,1,-1
 855 1624 l 1,2,-1
 962 1563 l 1,3,-1
 271 -103 l 1,0,-1
EndSplineSet
EndChar

StartChar: onehalf
Encoding: 189 189 527
Width: 922
VWidth: 2441
GlyphClass: 1
Flags: HW
LayerCount: 2
Fore
SplineSet
533 -170 m 1,0,-1
 533 -86 l 1,1,2
 628 26 628 26 692.5 102.5 c 128,-1,3
 757 179 757 179 791 239.5 c 128,-1,4
 825 300 825 300 827 368 c 0,5,6
 827 429 827 429 799.5 456.5 c 128,-1,7
 772 484 772 484 728 484 c 128,-1,8
 684 484 684 484 647.5 460.5 c 128,-1,9
 611 437 611 437 585 380 c 1,10,-1
 518 437 l 1,11,12
 550 505 550 505 604 544 c 128,-1,13
 658 583 658 583 728 583 c 0,14,15
 813 583 813 583 867.5 525.5 c 128,-1,16
 922 468 922 468 922 368 c 0,17,18
 922 287 922 287 888 219 c 128,-1,19
 854 151 854 151 797 81.5 c 128,-1,20
 740 12 740 12 668 -73 c 1,21,-1
 924 -73 l 1,22,-1
 924 -170 l 1,23,-1
 533 -170 l 1,0,-1
234 -103 m 1,24,-1
 141 -44 l 1,25,-1
 740 1624 l 1,26,-1
 833 1563 l 1,27,-1
 234 -103 l 1,24,-1
176 927 m 1,28,-1
 176 1543 l 1,29,-1
 55 1494 l 1,30,-1
 34 1570 l 1,31,-1
 201 1675 l 1,32,-1
 275 1675 l 1,33,-1
 275 927 l 1,34,-1
 176 927 l 1,28,-1
EndSplineSet
EndChar

StartChar: onequarter
Encoding: 188 188 528
Width: 922
VWidth: 2441
GlyphClass: 1
Flags: HW
LayerCount: 2
Fore
SplineSet
589 100 m 1,0,-1
 747 100 l 1,1,-1
 747 376 l 1,2,-1
 589 100 l 1,0,-1
745 -170 m 1,3,-1
 745 7 l 1,4,-1
 484 7 l 1,5,-1
 484 86 l 1,6,-1
 767 576 l 1,7,-1
 841 576 l 1,8,-1
 841 100 l 1,9,-1
 923 100 l 1,10,-1
 923 5 l 1,11,-1
 841 5 l 1,12,-1
 841 -170 l 1,13,-1
 745 -170 l 1,3,-1
231 -103 m 1,14,-1
 139 -44 l 1,15,-1
 731 1624 l 1,16,-1
 823 1563 l 1,17,-1
 231 -103 l 1,14,-1
173 927 m 1,18,-1
 173 1543 l 1,19,-1
 53 1494 l 1,20,-1
 33 1570 l 1,21,-1
 198 1675 l 1,22,-1
 271 1675 l 1,23,-1
 271 927 l 1,24,-1
 173 927 l 1,18,-1
EndSplineSet
EndChar

StartChar: threequarters
Encoding: 190 190 529
Width: 922
VWidth: 2441
GlyphClass: 1
Flags: HW
LayerCount: 2
Fore
SplineSet
726 100 m 1,0,-1
 726 376 l 1,1,-1
 573 100 l 1,2,-1
 726 100 l 1,0,-1
724 7 m 1,3,-1
 470 7 l 1,4,-1
 470 86 l 1,5,-1
 745 576 l 1,6,-1
 818 576 l 1,7,-1
 818 100 l 1,8,-1
 897 100 l 1,9,-1
 897 5 l 1,10,-1
 818 5 l 1,11,-1
 818 -170 l 1,12,-1
 724 -170 l 1,13,-1
 724 7 l 1,3,-1
224 -103 m 1,14,-1
 135 -44 l 1,15,-1
 710 1624 l 1,16,-1
 800 1563 l 1,17,-1
 224 -103 l 1,14,-1
188 913 m 0,18,19
 133 913 133 913 86.5 936.5 c 128,-1,20
 40 960 40 960 7 1004 c 1,21,-1
 62 1081 l 1,22,-1
 76 1101 l 1,23,-1
 84 1091 l 1,24,25
 84 1072 84 1072 93 1058.5 c 128,-1,26
 102 1045 102 1045 125 1023 c 1,27,28
 148 1009 148 1009 184 1009 c 0,29,30
 235 1009 235 1009 262.5 1042.5 c 128,-1,31
 290 1076 290 1076 290 1137 c 0,32,33
 290 1218 290 1218 246 1248.5 c 128,-1,34
 212.025316456 1272.05063291 212.025316456 1272.05063291 157.182983496 1272.05063291 c 0,0,0
 141 1272.05063291 141 1272.05063291 123 1270 c 1,35,-1
 123 1360 l 1,36,37
 127.607594937 1359.89873418 127.607594937 1359.89873418 132.057522833 1359.89873418 c 0,0,0
 215.493670886 1359.89873418 215.493670886 1359.89873418 243.5 1395.5 c 128,-1,38
 273 1433 273 1433 273 1484 c 0,39,40
 273 1533 273 1533 248.5 1558.5 c 128,-1,41
 224 1584 224 1584 188 1584 c 0,42,43
 159 1584 159 1584 131.5 1572 c 128,-1,44
 104 1560 104 1560 80 1528 c 1,45,-1
 24 1594 l 1,46,47
 59 1640 59 1640 102 1661 c 128,-1,48
 145 1682 145 1682 191 1682 c 0,49,50
 270 1682 270 1682 317.5 1629.5 c 128,-1,51
 365 1577 365 1577 365 1491 c 0,52,53
 365 1430 365 1430 339.5 1386 c 128,-1,54
 314 1342 314 1342 273 1323 c 1,55,56
 318 1304 318 1304 350.5 1259 c 128,-1,57
 383 1214 383 1214 383 1132 c 0,58,59
 383 1037 383 1037 332 975 c 128,-1,60
 281 913 281 913 188 913 c 0,18,19
EndSplineSet
EndChar

StartChar: uni2070.ss02
Encoding: 65566 -1 533
Width: 922
VWidth: 2441
GlyphClass: 1
Flags: HW
LayerCount: 2
Fore
SplineSet
550 691 m 128,-1,1
 633 691 633 691 679 787 c 128,-1,2
 725 883 725 883 725 1067 c 0,3,4
 725 1242 725 1242 678.5 1342 c 128,-1,5
 632 1442 632 1442 550 1442 c 0,6,7
 467 1442 467 1442 420 1342 c 128,-1,8
 373 1242 373 1242 373 1067 c 0,9,10
 373 883 373 883 420 787 c 128,-1,0
 467 691 467 691 550 691 c 128,-1,1
550 583 m 128,-1,12
 408 583 408 583 328.5 706.5 c 128,-1,13
 249 830 249 830 249 1067 c 0,14,15
 249 1297 249 1297 328.5 1425 c 128,-1,16
 408 1553 408 1553 550 1553 c 128,-1,17
 692 1553 692 1553 771 1424.5 c 128,-1,18
 850 1296 850 1296 850 1067 c 0,19,20
 850 830 850 830 771 706.5 c 128,-1,11
 692 583 692 583 550 583 c 128,-1,12
EndSplineSet
EndChar

StartChar: uni2070.zero
Encoding: 65570 -1 537
Width: 922
VWidth: 2441
GlyphClass: 1
Flags: HW
LayerCount: 2
Fore
SplineSet
557 1020 m 0,0,1
 522 1020 522 1020 500 1042.5 c 128,-1,2
 478 1065 478 1065 478 1099 c 0,3,4
 478 1131 478 1131 501.5 1152.5 c 128,-1,5
 525 1174 525 1174 557 1174 c 0,6,7
 587 1174 587 1174 610.5 1152 c 128,-1,8
 634 1130 634 1130 634 1099 c 0,9,10
 634 1067 634 1067 611.5 1043.5 c 128,-1,11
 589 1020 589 1020 557 1020 c 0,0,1
550 691 m 128,-1,13
 633 691 633 691 679 787 c 128,-1,14
 725 883 725 883 725 1067 c 0,15,16
 725 1242 725 1242 678.5 1342 c 128,-1,17
 632 1442 632 1442 550 1442 c 0,18,19
 467 1442 467 1442 420 1342 c 128,-1,20
 373 1242 373 1242 373 1067 c 0,21,22
 373 883 373 883 420 787 c 128,-1,12
 467 691 467 691 550 691 c 128,-1,13
550 583 m 128,-1,24
 408 583 408 583 328.5 706.5 c 128,-1,25
 249 830 249 830 249 1067 c 0,26,27
 249 1297 249 1297 328.5 1425 c 128,-1,28
 408 1553 408 1553 550 1553 c 128,-1,29
 692 1553 692 1553 771 1424.5 c 128,-1,30
 850 1296 850 1296 850 1067 c 0,31,32
 850 830 850 830 771 706.5 c 128,-1,23
 692 583 692 583 550 583 c 128,-1,24
EndSplineSet
EndChar

StartChar: period
Encoding: 46 46 538
Width: 922
VWidth: 2607
GlyphClass: 1
Flags: HW
LayerCount: 2
Fore
SplineSet
525 139 m 0,0,1
 469 139 469 139 431 178 c 128,-1,2
 393 217 393 217 393 271 c 128,-1,3
 393 325 393 325 430.5 365.5 c 128,-1,4
 468 406 468 406 525 406 c 0,5,6
 576 406 576 406 614 365.5 c 128,-1,7
 652 325 652 325 652 271 c 128,-1,8
 652 217 652 217 614 178 c 128,-1,9
 576 139 576 139 525 139 c 0,0,1
EndSplineSet
EndChar

StartChar: comma
Encoding: 44 44 539
Width: 922
VWidth: 2607
GlyphClass: 1
Flags: HW
LayerCount: 2
Fore
SplineSet
447 -244 m 1,0,-1
 368 -176 l 1,1,2
 429 -113 429 -113 471 -42 c 128,-1,3
 513 29 513 29 513 75 c 0,4,5
 513 110 513 110 485 135.5 c 128,-1,6
 457 161 457 161 429 190.5 c 128,-1,7
 401 220 401 220 401 264 c 0,8,9
 401 325 401 325 437 365.5 c 128,-1,10
 473 406 473 406 532 406 c 0,11,12
 588 406 588 406 635.5 353.5 c 128,-1,13
 683 301 683 301 683 210 c 0,14,15
 683 112 683 112 623.5 1.5 c 128,-1,16
 564 -109 564 -109 447 -244 c 1,0,-1
EndSplineSet
EndChar

StartChar: colon
Encoding: 58 58 540
Width: 922
VWidth: 2716
GlyphClass: 1
Flags: HW
LayerCount: 2
Fore
SplineSet
529 248 m 0,0,1
 473 248 473 248 434.5 286 c 128,-1,2
 396 324 396 324 396 380 c 128,-1,3
 396 436 396 436 436 475.5 c 128,-1,4
 476 515 476 515 529 515 c 0,5,6
 580 515 580 515 622 475.5 c 128,-1,7
 664 436 664 436 664 380 c 0,8,9
 664 326 664 326 623.5 287 c 128,-1,10
 583 248 583 248 529 248 c 0,0,1
529 1034 m 128,-1,12
 475 1034 475 1034 435.5 1073 c 128,-1,13
 396 1112 396 1112 396 1167 c 0,14,15
 396 1223 396 1223 436 1261.5 c 128,-1,16
 476 1300 476 1300 529 1300 c 0,17,18
 580 1300 580 1300 622 1261.5 c 128,-1,19
 664 1223 664 1223 664 1167 c 0,20,21
 664 1113 664 1113 623.5 1073.5 c 128,-1,11
 583 1034 583 1034 529 1034 c 128,-1,12
EndSplineSet
EndChar

StartChar: semicolon
Encoding: 59 59 541
Width: 922
VWidth: 2716
GlyphClass: 1
Flags: HW
LayerCount: 2
Fore
SplineSet
445 -135 m 1,0,-1
 366 -67 l 1,1,2
 427 -4 427 -4 468.5 67 c 128,-1,3
 510 138 510 138 510 184 c 0,4,5
 510 219 510 219 482 244.5 c 128,-1,6
 454 270 454 270 426 299.5 c 128,-1,7
 398 329 398 329 398 373 c 0,8,9
 398 434 398 434 434.5 474.5 c 128,-1,10
 471 515 471 515 529 515 c 0,11,12
 585 515 585 515 633 462.5 c 128,-1,13
 681 410 681 410 681 319 c 0,14,15
 681 221 681 221 621.5 110.5 c 128,-1,16
 562 0 562 0 445 -135 c 1,0,-1
529 1034 m 128,-1,18
 475 1034 475 1034 435.5 1073 c 128,-1,19
 396 1112 396 1112 396 1167 c 0,20,21
 396 1223 396 1223 436 1261.5 c 128,-1,22
 476 1300 476 1300 529 1300 c 0,23,24
 580 1300 580 1300 622 1261.5 c 128,-1,25
 664 1223 664 1223 664 1167 c 0,26,27
 664 1113 664 1113 623.5 1073.5 c 128,-1,17
 583 1034 583 1034 529 1034 c 128,-1,18
EndSplineSet
EndChar

StartChar: ellipsis
Encoding: 8230 8230 542
Width: 922
VWidth: 2441
GlyphClass: 1
Flags: HW
LayerCount: 2
Fore
SplineSet
132 -27 m 0,0,1
 83 -27 83 -27 49.5 12 c 128,-1,2
 16 51 16 51 16 105 c 128,-1,3
 16 159 16 159 49.5 199.5 c 128,-1,4
 83 240 83 240 132 240 c 0,5,6
 177 240 177 240 210 199.5 c 128,-1,7
 243 159 243 159 243 105 c 128,-1,8
 243 51 243 51 210 12 c 128,-1,9
 177 -27 177 -27 132 -27 c 0,0,1
461 -27 m 0,10,11
 412 -27 412 -27 379 12 c 128,-1,12
 346 51 346 51 346 105 c 128,-1,13
 346 159 346 159 379 199.5 c 128,-1,14
 412 240 412 240 461 240 c 0,15,16
 506 240 506 240 539.5 199.5 c 128,-1,17
 573 159 573 159 573 105 c 128,-1,18
 573 51 573 51 539.5 12 c 128,-1,19
 506 -27 506 -27 461 -27 c 0,10,11
793 -27 m 128,-1,21
 746 -27 746 -27 712.5 12 c 128,-1,22
 679 51 679 51 679 105 c 128,-1,23
 679 159 679 159 712.5 199.5 c 128,-1,24
 746 240 746 240 793 240 c 128,-1,25
 840 240 840 240 873 199.5 c 128,-1,26
 906 159 906 159 906 105 c 128,-1,27
 906 51 906 51 873 12 c 128,-1,20
 840 -27 840 -27 793 -27 c 128,-1,21
EndSplineSet
EndChar

StartChar: exclam
Encoding: 33 33 543
Width: 922
VWidth: 2441
GlyphClass: 1
Flags: HW
LayerCount: 2
Fore
SplineSet
525 -27 m 0,0,1
 471 -27 471 -27 432 12 c 128,-1,2
 393 51 393 51 393 107 c 128,-1,3
 393 163 393 163 432 205 c 128,-1,4
 471 247 471 247 525 247 c 0,5,6
 581 247 581 247 621.5 205 c 128,-1,7
 662 163 662 163 662 107 c 0,8,9
 662 53 662 53 621.5 13 c 128,-1,10
 581 -27 581 -27 525 -27 c 0,0,1
471 473 m 1,11,-1
 415 1460 l 1,12,13
 415 1541 415 1541 445.5 1586 c 128,-1,14
 476 1631 476 1631 529 1631 c 0,15,16
 580 1631 580 1631 613.5 1585.5 c 0,17,18
 645.112676056 1542.56338028 645.112676056 1542.56338028 645.112676056 1446.6421345 c 0,19,20
 645.112676056 1440.91549296 645.112676056 1440.91549296 645 1435 c 1,21,-1
 583 473 l 1,22,-1
 471 473 l 1,11,-1
EndSplineSet
EndChar

StartChar: question
Encoding: 63 63 545
Width: 922
VWidth: 2441
GlyphClass: 1
Flags: HW
LayerCount: 2
Fore
SplineSet
573 -27 m 128,-1,1
 519 -27 519 -27 482 12 c 128,-1,2
 445 51 445 51 445 105 c 128,-1,3
 445 159 445 159 482.5 199.5 c 128,-1,4
 520 240 520 240 573 240 c 0,5,6
 627 240 627 240 665 199.5 c 128,-1,7
 703 159 703 159 703 105 c 128,-1,8
 703 51 703 51 665 12 c 128,-1,0
 627 -27 627 -27 573 -27 c 128,-1,1
494 547 m 2,9,10
 494 654 494 654 524 724 c 128,-1,11
 554 794 554 794 599.5 845 c 128,-1,12
 645 896 645 896 689.5 946.5 c 128,-1,13
 734 997 734 997 766.5 1062.5 c 128,-1,14
 799 1128 799 1128 799 1230 c 0,15,16
 799 1340 799 1340 732.5 1408.5 c 128,-1,17
 666 1477 666 1477 559 1477 c 0,18,19
 398 1477 398 1477 305 1367 c 1,20,21
 284 1335 284 1335 278.5 1318.5 c 128,-1,22
 273 1302 273 1302 275 1281 c 1,23,-1
 266 1267 l 1,24,-1
 247 1279 l 1,25,-1
 142 1370 l 1,26,27
 212 1489 212 1489 307.5 1556.5 c 128,-1,28
 403 1624 403 1624 566 1624 c 0,29,30
 739 1624 739 1624 847 1525 c 128,-1,31
 955 1426 955 1426 955 1242 c 0,32,33
 955 1123 955 1123 923.5 1046 c 128,-1,34
 892 969 892 969 846.5 914 c 128,-1,35
 801 859 801 859 754.5 810.5 c 128,-1,36
 708 762 708 762 676.5 701 c 128,-1,37
 645 640 645 640 645 547 c 2,38,-1
 645 447 l 1,39,-1
 494 447 l 1,40,-1
 494 547 l 2,9,10
EndSplineSet
EndChar

StartChar: periodcentered
Encoding: 183 183 547
Width: 922
VWidth: 2441
GlyphClass: 1
Flags: HW
LayerCount: 2
Fore
SplineSet
525 676 m 0,0,1
 469 676 469 676 430 714 c 128,-1,2
 391 752 391 752 391 808 c 128,-1,3
 391 864 391 864 431 903.5 c 128,-1,4
 471 943 471 943 525 943 c 0,5,6
 576 943 576 943 617.5 903.5 c 128,-1,7
 659 864 659 864 659 808 c 0,8,9
 659 754 659 754 619 715 c 128,-1,10
 579 676 579 676 525 676 c 0,0,1
EndSplineSet
Substitution2: "Single Substitution lookup 11 subtable" periodcentered.loclCAT
Substitution2: "Single Substitution lookup 10 subtable" periodcentered.loclCAT
Substitution2: "'aalt' Access All Alternates in Latin lookup 0 subtable" periodcentered.loclCAT
EndChar

StartChar: bullet
Encoding: 8226 8226 548
Width: 922
VWidth: 2441
GlyphClass: 1
Flags: HW
LayerCount: 2
Fore
SplineSet
552 529 m 0,0,1
 473 529 473 529 418.5 587 c 128,-1,2
 364 645 364 645 364 720 c 0,3,4
 364 803 364 803 421 858 c 128,-1,5
 478 913 478 913 552 913 c 0,6,7
 631 913 631 913 687 857 c 128,-1,8
 743 801 743 801 743 720 c 0,9,10
 743 645 743 645 688 587 c 128,-1,11
 633 529 633 529 552 529 c 0,0,1
EndSplineSet
EndChar

StartChar: asterisk
Encoding: 42 42 549
Width: 922
VWidth: 2441
GlyphClass: 1
Flags: HW
LayerCount: 2
Fore
SplineSet
293 300 m 1,0,-1
 175 403 l 1,1,-1
 451 774 l 1,2,-1
 85 904 l 1,3,-1
 144 1055 l 1,4,-1
 484 876 l 1,5,-1
 451 1309 l 1,6,-1
 621 1309 l 1,7,-1
 583 876 l 1,8,-1
 921 1048 l 1,9,-1
 975 904 l 1,10,-1
 611 774 l 1,11,-1
 883 403 l 1,12,-1
 763 303 l 1,13,-1
 531 701 l 1,14,-1
 293 300 l 1,0,-1
EndSplineSet
Substitution2: "'ss01' Style Set 1 in Latin lookup 35 subtable" asterisk.ss01
Substitution2: "'salt' Stylistic Alternatives in Latin lookup 34 subtable" asterisk.ss01
Substitution2: "'aalt' Access All Alternates in Latin lookup 0 subtable" asterisk.ss01
EndChar

StartChar: uni2E12
Encoding: 11794 11794 550
Width: 922
VWidth: 2212
GlyphClass: 1
Flags: HW
LayerCount: 2
Fore
SplineSet
392 -246 m 1,0,-1
 392 -129 l 1,1,2
 457 -129 457 -129 496.5 -75.5 c 128,-1,3
 536 -22 536 -22 536 47 c 0,4,5
 536 117 536 117 496.5 171.5 c 128,-1,6
 457 226 457 226 392 226 c 1,7,-1
 392 340 l 1,8,9
 505 340 505 340 580 257 c 128,-1,10
 655 174 655 174 655 45 c 0,11,12
 655 -79 655 -79 581.5 -162.5 c 128,-1,13
 508 -246 508 -246 392 -246 c 1,0,-1
EndSplineSet
EndChar

StartChar: numbersign
Encoding: 35 35 551
Width: 922
VWidth: 2441
GlyphClass: 1
Flags: HW
LayerCount: 2
Fore
SplineSet
371 581 m 1,0,-1
 587 581 l 1,1,-1
 626 997 l 1,2,-1
 411 997 l 1,3,-1
 371 581 l 1,0,-1
532 24 m 1,4,-1
 576 471 l 1,5,-1
 360 471 l 1,6,-1
 318 35 l 1,7,-1
 197 32 l 1,8,-1
 239 466 l 1,9,-1
 50 466 l 1,10,-1
 57 576 l 1,11,-1
 250 576 l 1,12,-1
 290 994 l 1,13,-1
 77 994 l 1,14,-1
 84 1106 l 1,15,-1
 301 1106 l 1,16,-1
 340 1523 l 1,17,-1
 463 1528 l 1,18,-1
 424 1111 l 1,19,-1
 637 1111 l 1,20,-1
 677 1519 l 1,21,-1
 802 1521 l 1,22,-1
 762 1116 l 1,23,-1
 940 1116 l 1,24,-1
 929 1001 l 1,25,-1
 751 1001 l 1,26,-1
 710 589 l 1,27,-1
 903 589 l 1,28,-1
 894 478 l 1,29,-1
 700 478 l 1,30,-1
 656 35 l 1,31,-1
 532 24 l 1,4,-1
EndSplineSet
EndChar

StartChar: slash
Encoding: 47 47 552
Width: 922
VWidth: 2441
GlyphClass: 1
Flags: HW
LayerCount: 2
Fore
SplineSet
273 -103 m 1,0,-1
 137 -37 l 1,1,-1
 825 1624 l 1,2,-1
 964 1553 l 1,3,-1
 273 -103 l 1,0,-1
EndSplineSet
Substitution2: "'frac' Diagonal Fractions in Latin lookup 23 subtable" fraction
Substitution2: "'aalt' Access All Alternates in Latin lookup 0 subtable" fraction
EndChar

StartChar: backslash
Encoding: 92 92 553
Width: 922
VWidth: 2441
GlyphClass: 1
Flags: HW
LayerCount: 2
Fore
SplineSet
827 -103 m 1,0,-1
 137 1553 l 1,1,-1
 273 1624 l 1,2,-1
 964 -37 l 1,3,-1
 827 -103 l 1,0,-1
EndSplineSet
EndChar

StartChar: asterisk.ss01
Encoding: 65572 -1 555
Width: 922
VWidth: 2441
GlyphClass: 1
Flags: HW
LayerCount: 2
Fore
SplineSet
293 447 m 1,0,-1
 175 550 l 1,1,-1
 451 920 l 1,2,-1
 85 1050 l 1,3,-1
 144 1202 l 1,4,-1
 484 1023 l 1,5,-1
 451 1456 l 1,6,-1
 621 1456 l 1,7,-1
 583 1023 l 1,8,-1
 921 1193 l 1,9,-1
 975 1050 l 1,10,-1
 611 920 l 1,11,-1
 883 550 l 1,12,-1
 763 449 l 1,13,-1
 531 848 l 1,14,-1
 293 447 l 1,0,-1
EndSplineSet
EndChar

StartChar: parenleft
Encoding: 40 40 556
Width: 922
VWidth: 2449
GlyphClass: 1
Flags: HW
LayerCount: 2
Fore
SplineSet
864 -246 m 1,0,1
 680 -151 680 -151 545 9 c 128,-1,2
 410 169 410 169 335.5 370.5 c 128,-1,3
 261 572 261 572 261 789 c 128,-1,4
 261 1006 261 1006 334.5 1202.5 c 128,-1,5
 408 1399 408 1399 541 1554 c 128,-1,6
 674 1709 674 1709 852 1802 c 1,7,-1
 899 1658 l 1,8,9
 757 1572 757 1572 649.5 1436.5 c 128,-1,10
 542 1301 542 1301 482 1133 c 128,-1,11
 422 965 422 965 422 782 c 0,12,13
 422 598 422 598 483.5 429 c 128,-1,14
 545 260 545 260 654.5 120.5 c 128,-1,15
 764 -19 764 -19 911 -106 c 1,16,-1
 864 -246 l 1,0,1
EndSplineSet
EndChar

StartChar: parenright
Encoding: 41 41 557
Width: 922
VWidth: 2449
GlyphClass: 1
Flags: HW
LayerCount: 2
Fore
SplineSet
293 -246 m 1
 477 -151 477 -151 612 9 c 0
 748 169 748 169 821 370 c 0
 895 571 895 571 896 789 c 0
 896 1006 896 1006 823 1202 c 0
 750 1399 750 1399 616 1554 c 0
 482 1709 482 1709 305 1802 c 1
 259 1658 l 1
 401 1572 401 1572 508 1437 c 0
 615 1301 615 1301 675 1133 c 0
 734.016393443 967.754098361 734.016393443 967.754098361 734.016393443 787.995968826 c 0,0,0
 734.016393443 785 734.016393443 785 734 782 c 0
 734 598 734 598 674 429 c 0
 613 260 613 260 503 120 c 0
 393 -19 393 -19 247 -106 c 1
 293 -246 l 1
EndSplineSet
EndChar

StartChar: braceleft
Encoding: 123 123 558
Width: 922
VWidth: 2486
GlyphClass: 1
Flags: HW
LayerCount: 2
Fore
SplineSet
818 -187 m 2,0,1
 662 -187 662 -187 554.5 -151.5 c 128,-1,2
 447 -116 447 -116 396 -23.5 c 128,-1,3
 348.709090909 62.2727272727 348.709090909 62.2727272727 348.709090909 216.40231405 c 0,0,0
 348.709090909 228.490909091 348.709090909 228.490909091 349 241 c 2,4,-1
 359 485 l 1,5,6
 359 646 359 646 306.5 702 c 128,-1,7
 254 758 254 758 161 758 c 2,8,-1
 117 758 l 1,9,-1
 117 895 l 1,10,-1
 159 895 l 2,11,12
 259 895 259 895 311.5 956 c 128,-1,13
 364 1017 364 1017 364 1156 c 2,14,-1
 359 1331 l 1,15,16
 359 1755 359 1755 762 1757 c 2,17,-1
 901 1757 l 1,18,-1
 901 1620 l 1,19,-1
 725 1620 l 2,20,21
 520 1620 520 1620 520 1359 c 1,22,-1
 525 1187 l 1,23,24
 525 919 525 919 333 826 c 1,25,26
 521 756 521 756 520 448 c 1,27,-1
 513 243 l 1,28,29
 513 77 513 77 578 12 c 128,-1,30
 643 -53 643 -53 786 -53 c 2,31,-1
 899 -53 l 1,32,-1
 899 -187 l 1,33,-1
 818 -187 l 2,0,1
EndSplineSet
EndChar

StartChar: braceright
Encoding: 125 125 559
Width: 922
VWidth: 2486
GlyphClass: 1
Flags: HW
LayerCount: 2
Fore
SplineSet
207 -187 m 2
 363 -187 363 -187 471 -152 c 0
 578 -116 578 -116 629 -23 c 0
 676.290909091 63.2363636364 676.290909091 63.2363636364 676.290909091 216.539834711 c 0,0,0
 676.290909091 228.563636364 676.290909091 228.563636364 676 241 c 2
 666 485 l 1
 666 646 666 646 719 702 c 0
 771 758 771 758 864 758 c 2
 908 758 l 1
 908 895 l 1
 867 895 l 2
 767 895 767 895 714 956 c 0
 662 1017 662 1017 662 1156 c 2
 666 1331 l 1
 666 1755 666 1755 263 1757 c 2
 124 1757 l 1
 124 1620 l 1
 300 1620 l 2
 505 1620 505 1620 505 1359 c 1
 501 1187 l 1
 501 919 501 919 694 826 c 1
 506 756 506 756 505 448 c 1
 513 243 l 1
 513 77 513 77 448 12 c 0
 384 -52 384 -52 240 -53 c 2
 126 -53 l 1
 126 -187 l 1
 207 -187 l 2
EndSplineSet
EndChar

StartChar: bracketleft
Encoding: 91 91 560
Width: 922
VWidth: 2516
GlyphClass: 1
Flags: HW
LayerCount: 2
Fore
SplineSet
284 -142 m 1,0,-1
 284 1711 l 1,1,-1
 916 1711 l 1,2,-1
 916 1566 l 1,3,-1
 432 1566 l 1,4,-1
 432 -6 l 1,5,-1
 918 -6 l 1,6,-1
 918 -142 l 1,7,-1
 284 -142 l 1,0,-1
EndSplineSet
EndChar

StartChar: bracketright
Encoding: 93 93 561
Width: 922
VWidth: 2516
GlyphClass: 1
Flags: HW
LayerCount: 2
Fore
SplineSet
911 -142 m 1
 911 1711 l 1
 278 1711 l 1
 278 1566 l 1
 762 1566 l 1
 762 -6 l 1
 275 -6 l 1
 275 -142 l 1
 911 -142 l 1
EndSplineSet
EndChar

StartChar: hyphen
Encoding: 45 45 562
Width: 922
VWidth: 2441
GlyphClass: 1
Flags: HW
LayerCount: 2
Fore
SplineSet
244 691 m 1,0,-1
 244 850 l 1,1,-1
 859 850 l 1,2,-1
 859 691 l 1,3,-1
 244 691 l 1,0,-1
EndSplineSet
EndChar

StartChar: endash
Encoding: 8211 8211 564
Width: 922
VWidth: 2441
GlyphClass: 1
Flags: HW
LayerCount: 2
Fore
SplineSet
156 691 m 1,0,-1
 156 850 l 1,1,-1
 948 850 l 1,2,-1
 948 691 l 1,3,-1
 156 691 l 1,0,-1
EndSplineSet
EndChar

StartChar: emdash
Encoding: 8212 8212 565
Width: 922
VWidth: 2441
GlyphClass: 1
Flags: HW
LayerCount: 2
Fore
SplineSet
18 691 m 1,0,-1
 18 850 l 1,1,-1
 908 850 l 1,2,-1
 908 691 l 1,3,-1
 18 691 l 1,0,-1
EndSplineSet
EndChar

StartChar: underscore
Encoding: 95 95 569
Width: 922
VWidth: 2441
GlyphClass: 1
Flags: HW
LayerCount: 2
Fore
SplineSet
71 -196 m 1,0,-1
 71 -49 l 1,1,-1
 961 -49 l 1,2,-1
 961 -196 l 1,3,-1
 71 -196 l 1,0,-1
EndSplineSet
EndChar

StartChar: quotedblleft
Encoding: 8220 8220 572
Width: 922
VWidth: 2441
GlyphClass: 1
Flags: HW
LayerCount: 2
Fore
SplineSet
410 1558 m 1,0,-1
 489 1489 l 1,1,2
 426 1426 426 1426 384 1353.5 c 128,-1,3
 342 1281 342 1281 342 1233 c 0,4,5
 342 1198 342 1198 371.5 1173 c 128,-1,6
 401 1148 401 1148 429 1119.5 c 128,-1,7
 457 1091 457 1091 457 1050 c 0,8,9
 457 989 457 989 420.5 948.5 c 128,-1,10
 384 908 384 908 324 908 c 0,11,12
 266 908 266 908 219.5 962 c 128,-1,13
 173 1016 173 1016 173 1104 c 0,14,15
 173 1292 173 1292 410 1558 c 1,0,-1
862 1558 m 1,16,-1
 939 1489 l 1,17,18
 876 1426 876 1426 835 1353.5 c 128,-1,19
 794 1281 794 1281 794 1233 c 0,20,21
 794 1198 794 1198 823 1173 c 128,-1,22
 852 1148 852 1148 880 1119.5 c 128,-1,23
 908 1091 908 1091 908 1050 c 0,24,25
 908 989 908 989 871 948.5 c 128,-1,26
 834 908 834 908 776 908 c 128,-1,27
 718 908 718 908 671.5 962 c 128,-1,28
 625 1016 625 1016 625 1104 c 0,29,30
 625 1292 625 1292 862 1558 c 1,16,-1
EndSplineSet
EndChar

StartChar: quoteleft
Encoding: 8216 8216 574
Width: 922
VWidth: 2441
GlyphClass: 1
Flags: HW
LayerCount: 2
Fore
SplineSet
629 1558 m 1,0,-1
 708 1489 l 1,1,2
 645 1426 645 1426 603 1353.5 c 128,-1,3
 561 1281 561 1281 561 1233 c 0,4,5
 561 1198 561 1198 590.5 1173 c 128,-1,6
 620 1148 620 1148 648 1119.5 c 128,-1,7
 676 1091 676 1091 676 1050 c 0,8,9
 676 989 676 989 639.5 948.5 c 128,-1,10
 603 908 603 908 545 908 c 128,-1,11
 487 908 487 908 440 962 c 128,-1,12
 392.995798319 1016.00482746 392.995798319 1016.00482746 392.995798319 1105.58120895 c 0,0,0
 392.995798319 1293.11764706 392.995798319 1293.11764706 629 1558 c 1,0,-1
EndSplineSet
EndChar

StartChar: quoteright
Encoding: 8217 8217 575
Width: 922
VWidth: 2441
GlyphClass: 1
Flags: HW
LayerCount: 2
Fore
SplineSet
437 908 m 1,0,-1
 361 979 l 1,1,2
 422 1042 422 1042 463.5 1113 c 128,-1,3
 505 1184 505 1184 505 1233 c 0,4,5
 505 1268 505 1268 477 1293 c 128,-1,6
 449 1318 449 1318 420 1346 c 128,-1,7
 391 1374 391 1374 391 1419 c 0,8,9
 391 1477 391 1477 427.5 1517.5 c 128,-1,10
 464 1558 464 1558 522 1558 c 128,-1,11
 580 1558 580 1558 627 1504.5 c 128,-1,12
 674 1451 674 1451 674 1365 c 0,13,14
 674 1174 674 1174 437 908 c 1,0,-1
EndSplineSet
EndChar

StartChar: guillemotleft
Encoding: 171 171 576
Width: 922
VWidth: 2441
GlyphClass: 1
Flags: HW
LayerCount: 2
Fore
SplineSet
888 149 m 1,0,-1
 545 561 l 1,1,-1
 545 617 l 1,2,-1
 876 976 l 1,3,-1
 967 876 l 1,4,-1
 701 589 l 1,5,-1
 981 247 l 1,6,-1
 888 149 l 1,0,-1
494 149 m 1,7,-1
 144 561 l 1,8,-1
 144 617 l 1,9,-1
 478 976 l 1,10,-1
 569 876 l 1,11,-1
 303 589 l 1,12,-1
 587 247 l 1,13,-1
 494 149 l 1,7,-1
EndSplineSet
EndChar

StartChar: guilsinglleft
Encoding: 8249 8249 578
Width: 922
VWidth: 2441
GlyphClass: 1
Flags: HW
LayerCount: 2
Fore
SplineSet
666 149 m 1,0,-1
 319 561 l 1,1,-1
 319 617 l 1,2,-1
 652 976 l 1,3,-1
 743 876 l 1,4,-1
 476 589 l 1,5,-1
 759 247 l 1,6,-1
 666 149 l 1,0,-1
EndSplineSet
EndChar

StartChar: guilsinglright
Encoding: 8250 8250 579
Width: 922
VWidth: 2441
GlyphClass: 1
Flags: HW
LayerCount: 2
Fore
SplineSet
408 149 m 1,0,-1
 315 247 l 1,1,-1
 596 589 l 1,2,-1
 329 876 l 1,3,-1
 420 976 l 1,4,-1
 755 617 l 1,5,-1
 755 561 l 1,6,-1
 408 149 l 1,0,-1
EndSplineSet
EndChar

StartChar: quotedbl
Encoding: 34 34 580
Width: 922
VWidth: 2441
GlyphClass: 1
Flags: HW
LayerCount: 2
Fore
SplineSet
291 1624 m 1
 471 1624 l 1
 471 1477 471 1477 468 1389 c 0
 466 1301 466 1301 461 1241 c 0
 456 1181 456 1181 449 1127 c 0
 442 1072 442 1072 435 994 c 1
 327 994 l 1
 320 1073 320 1073 312 1127 c 0
 305 1182 305 1182 300 1240 c 0
 295 1298 295 1298 293 1388 c 0
 291 1477 291 1477 291 1624 c 1
627 1624 m 1
 808 1624 l 1
 808 1477 808 1477 806 1389 c 0
 804 1301 804 1301 799 1241 c 0
 794 1181 794 1181 786 1127 c 0
 779 1072 779 1072 771 994 c 1
 664 994 l 1
 657 1073 657 1073 650 1127 c 0
 643 1182 643 1182 638 1240 c 0
 633 1298 633 1298 629 1388 c 0
 627 1477 627 1477 627 1624 c 1
EndSplineSet
Substitution2: "'ss03' Style Set 3 in Latin lookup 37 subtable" quotedbl.ss03
Substitution2: "'aalt' Access All Alternates in Latin lookup 0 subtable" quotedbl.ss03
EndChar

StartChar: quotesingle
Encoding: 39 39 581
Width: 922
VWidth: 2441
GlyphClass: 1
Flags: HW
LayerCount: 2
Fore
SplineSet
459 1624 m 1,0,-1
 640 1624 l 1,1,2
 640 1477 640 1477 637 1389.5 c 128,-1,3
 634 1302 634 1302 629.5 1241.5 c 128,-1,4
 625 1181 625 1181 617.5 1126.5 c 128,-1,5
 610 1072 610 1072 603 994 c 1,6,-1
 496 994 l 1,7,8
 489 1073 489 1073 481 1127 c 128,-1,9
 473 1181 473 1181 468.5 1240 c 128,-1,10
 464 1299 464 1299 461.5 1388 c 128,-1,11
 459 1477 459 1477 459 1624 c 1,0,-1
EndSplineSet
Substitution2: "'ss03' Style Set 3 in Latin lookup 37 subtable" quotesingle.ss03
Substitution2: "'aalt' Access All Alternates in Latin lookup 0 subtable" quotesingle.ss03
EndChar

StartChar: quotesingle.ss03
Encoding: 65574 -1 583
Width: 922
VWidth: 2441
GlyphClass: 1
Flags: HW
LayerCount: 2
Fore
SplineSet
573 999 m 1,0,-1
 452 1030 l 1,1,2
 501 1198 501 1198 504.5 1302.5 c 128,-1,3
 508 1407 508 1407 508 1491 c 0,4,5
 508 1623 508 1623 606 1624 c 0,6,7
 701 1624 701 1624 701 1496 c 0,8,9
 701 1438 701 1438 687.5 1373.5 c 128,-1,10
 674 1309 674 1309 645.5 1221.5 c 128,-1,11
 617 1134 617 1134 573 999 c 1,0,-1
EndSplineSet
EndChar

StartChar: hyphen_greater.dlig
Encoding: 65575 -1 584
Width: 922
VWidth: 2441
GlyphClass: 1
Flags: HW
LayerCount: 2
Fore
SplineSet
44 708 m 1,0,-1
 44 855 l 1,1,-1
 655 855 l 1,2,-1
 655 708 l 1,3,-1
 44 708 l 1,0,-1
428 66 m 1,4,-1
 428 240 l 1,5,-1
 849 781 l 1,6,-1
 429 1311 l 1,7,-1
 429 1484 l 1,8,-1
 934 848 l 1,9,-1
 934 715 l 1,10,-1
 428 66 l 1,4,-1
EndSplineSet
Ligature2: "'dlig' Discretionary Ligatures in Latin lookup 32 subtable" hyphen greater
EndChar

StartChar: exclam_equal_equal.dlig
Encoding: 65576 -1 585
Width: 922
VWidth: 2405
GlyphClass: 1
Flags: HW
LayerCount: 2
Fore
SplineSet
29 69 m 1,0,-1
 29 213 l 1,1,-1
 404 213 l 1,2,-1
 442 518 l 1,3,-1
 136 518 l 1,4,-1
 136 661 l 1,5,-1
 459 661 l 1,6,-1
 497 969 l 1,7,-1
 29 969 l 1,8,-1
 29 1113 l 1,9,-1
 515 1113 l 1,10,-1
 553 1426 l 1,11,-1
 592 1365 l 1,12,-1
 560 1113 l 1,13,-1
 919 1113 l 1,14,-1
 919 969 l 1,15,-1
 542 969 l 1,16,-1
 504 661 l 1,17,-1
 812 661 l 1,18,-1
 812 518 l 1,19,-1
 487 518 l 1,20,-1
 449 213 l 1,21,-1
 919 213 l 1,22,-1
 919 69 l 1,23,-1
 430 69 l 1,24,-1
 391 -246 l 1,25,-1
 354 -190 l 1,26,-1
 386 69 l 1,27,-1
 29 69 l 1,0,-1
EndSplineSet
Ligature2: "'dlig' Discretionary Ligatures in Latin lookup 32 subtable" exclam equal equal
EndChar

StartChar: uni20B5
Encoding: 8373 8373 594
Width: 922
VWidth: 2441
GlyphClass: 2
Flags: HW
AnchorPoint: "Anchor-2" 583 0 basechar 0
AnchorPoint: "Anchor-0" 562 1521 basechar 0
LayerCount: 2
Fore
SplineSet
236 764 m 0,0,1
 236 512 236 512 312.5 348 c 128,-1,2
 389 184 389 184 507 137 c 1,3,-1
 507 1384 l 1,4,5
 379 1347 379 1347 307.5 1188.5 c 128,-1,6
 236 1030 236 1030 236 764 c 0,0,1
507 -173 m 1,7,-1
 507 -17 l 1,8,9
 387 4 387 4 292 92.5 c 128,-1,10
 197 181 197 181 141.5 344.5 c 128,-1,11
 86 508 86 508 86 752 c 0,12,13
 86 1020 86 1020 147 1183.5 c 128,-1,14
 208 1347 208 1347 304 1427 c 128,-1,15
 400 1507 400 1507 507 1526 c 1,16,-1
 507 1647 l 1,17,-1
 634 1647 l 1,18,-1
 634 1531 l 1,19,20
 757 1519 757 1519 844.5 1443 c 128,-1,21
 932 1367 932 1367 976 1248 c 1,22,-1
 852 1174 l 1,23,-1
 830 1162 l 1,24,-1
 823 1179 l 1,25,26
 828 1198 828 1198 823.5 1215.5 c 128,-1,27
 819 1233 819 1233 801 1270 c 1,28,29
 761 1328 761 1328 719.5 1355 c 128,-1,30
 678 1382 678 1382 634 1391 c 1,31,-1
 634 124 l 1,32,33
 771 151 771 151 847 300 c 1,34,-1
 958 212 l 1,35,36
 900 102 900 102 821 44 c 128,-1,37
 742 -14 742 -14 634 -21 c 1,38,-1
 634 -173 l 1,39,-1
 507 -173 l 1,7,-1
EndSplineSet
EndChar

StartChar: cent
Encoding: 162 162 595
Width: 922
VWidth: 2441
GlyphClass: 2
Flags: HW
AnchorPoint: "Anchor-2" 627 105 basechar 0
AnchorPoint: "Anchor-0" 627 1221 basechar 0
LayerCount: 2
Fore
SplineSet
291 671 m 0,0,1
 291 527 291 527 342 423 c 128,-1,2
 393 319 393 319 478 271 c 1,3,-1
 581 1097 l 1,4,5
 467 1085 467 1085 379 976 c 128,-1,6
 291 867 291 867 291 671 c 0,0,1
547 -179 m 1,7,-1
 422 -179 l 1,8,-1
 459 105 l 1,9,10
 305 159 305 159 213.5 306.5 c 128,-1,11
 122 454 122 454 122 662 c 0,12,13
 122 835 122 835 184.5 963 c 128,-1,14
 247 1091 247 1091 354 1163 c 128,-1,15
 461 1235 461 1235 598 1242 c 1,16,-1
 632 1521 l 1,17,-1
 750 1521 l 1,18,-1
 715 1235 l 1,19,20
 903 1200 903 1200 1004 1045 c 1,21,-1
 904 937 l 1,22,-1
 888 918 l 1,23,-1
 876 930 l 1,24,25
 874 949 874 949 866.5 967.5 c 128,-1,26
 859 986 859 986 832 1018 c 1,27,28
 774 1072 774 1072 699 1088 c 1,29,-1
 596 235 l 1,30,31
 615 233 615 233 634 232 c 0,32,33
 788 232 788 232 896 364 c 1,34,-1
 988 242 l 1,35,36
 841 79 841 79 625 79 c 0,37,38
 601 79 601 79 576 81 c 1,39,-1
 547 -179 l 1,7,-1
EndSplineSet
EndChar

StartChar: colonmonetary
Encoding: 8353 8353 596
Width: 922
VWidth: 2441
GlyphClass: 2
Flags: HW
AnchorPoint: "Anchor-2" 583 0 basechar 0
AnchorPoint: "Anchor-0" 562 1521 basechar 0
LayerCount: 2
Fore
SplineSet
384 226 m 1,0,1
 410 196 410 196 439 175 c 1,2,-1
 708 1363 l 1,3,4
 680 1380 680 1380 645 1389 c 1,5,-1
 384 226 l 1,0,1
236 764 m 0,6,7
 236 627 236 627 259 515 c 128,-1,8
 282 403 282 403 324 322 c 1,9,-1
 567 1394 l 1,10,11
 415 1387 415 1387 325.5 1224.5 c 128,-1,12
 236 1062 236 1062 236 764 c 0,6,7
212 -173 m 1,13,-1
 276 107 l 1,14,15
 190 200 190 200 138 358.5 c 128,-1,16
 86 517 86 517 86 752 c 0,17,18
 86 978 86 978 131 1129.5 c 128,-1,19
 176 1281 176 1281 249 1369.5 c 128,-1,20
 322 1458 322 1458 410.5 1495.5 c 128,-1,21
 499 1533 499 1533 587 1533 c 0,22,23
 592 1533 592 1533 596 1533 c 2,24,-1
 625 1647 l 1,25,-1
 706 1647 l 1,26,-1
 678 1523 l 1,27,28
 711 1516 711 1516 740 1507 c 1,29,-1
 773 1647 l 1,30,-1
 854 1647 l 1,31,-1
 812 1467 l 1,32,33
 923 1392 923 1392 976 1248 c 1,34,-1
 852 1174 l 1,35,-1
 830 1162 l 1,36,-1
 823 1179 l 1,37,38
 828 1198 828 1198 823.5 1215.5 c 128,-1,39
 819 1233 819 1233 801 1270 c 0,40,41
 790 1287 790 1287 775 1304 c 1,42,-1
 512 135 l 1,43,44
 552 123 552 123 590 122 c 0,45,46
 667 122 667 122 736 168.5 c 128,-1,47
 805 215 805 215 847 300 c 1,48,-1
 958 212 l 1,49,50
 896 95 896 95 807.5 35.5 c 128,-1,51
 719 -24 719 -24 594 -24 c 0,52,53
 534 -24 534 -24 479 -10 c 1,54,-1
 442 -173 l 1,55,-1
 360 -173 l 1,56,-1
 402 17 l 1,57,58
 372 29 372 29 344 49 c 1,59,-1
 294 -173 l 1,60,-1
 212 -173 l 1,13,-1
EndSplineSet
EndChar

StartChar: currency
Encoding: 164 164 597
Width: 922
VWidth: 2441
GlyphClass: 1
Flags: HW
LayerCount: 2
Fore
SplineSet
550 598 m 0,0,1
 657 598 657 598 713 671.5 c 128,-1,2
 769 745 769 745 769 843 c 0,3,4
 769 943 769 943 713 1015.5 c 128,-1,5
 657 1088 657 1088 550 1088 c 0,6,7
 447 1088 447 1088 390 1015.5 c 128,-1,8
 333 943 333 943 333 843 c 0,9,10
 333 745 333 745 389 671.5 c 128,-1,11
 445 598 445 598 550 598 c 0,0,1
230 401 m 1,12,-1
 147 484 l 1,13,-1
 268 627 l 1,14,15
 207 725 207 725 207 843 c 0,16,17
 207 965 207 965 271 1060 c 1,18,-1
 147 1204 l 1,19,-1
 230 1286 l 1,20,-1
 349 1150 l 1,21,22
 440 1220 440 1220 552 1221 c 0,23,24
 659 1221 659 1221 750 1153 c 1,25,-1
 869 1286 l 1,26,-1
 952 1206 l 1,27,-1
 830 1067 l 1,28,29
 896 964 896 964 896 843 c 0,30,31
 896 721 896 721 832 622 c 1,32,-1
 952 484 l 1,33,-1
 869 401 l 1,34,-1
 752 535 l 1,35,36
 708 498 708 498 657 481 c 128,-1,37
 606 464 606 464 552 464 c 0,38,39
 440 464 440 464 347 538 c 1,40,-1
 230 401 l 1,12,-1
EndSplineSet
EndChar

StartChar: dollar
Encoding: 36 36 598
Width: 922
VWidth: 2441
GlyphClass: 1
Flags: HW
LayerCount: 2
Fore
SplineSet
650 181 m 1,0,1
 750 202 750 202 807 274.5 c 128,-1,2
 864 347 864 347 864 432 c 0,3,4
 864 520 864 520 813 573.5 c 128,-1,5
 762 627 762 627 650 664 c 1,6,-1
 650 181 l 1,0,1
513 883 m 1,7,-1
 513 1304 l 1,8,9
 420 1292 420 1292 371 1238 c 128,-1,10
 322 1184 322 1184 322 1109 c 0,11,12
 322 966 322 966 513 883 c 1,7,-1
513 -114 m 1,13,-1
 513 35 l 1,14,15
 276 52 276 52 126 224 c 1,16,-1
 226 371 l 1,17,18
 236 364 236 364 236.5 346.5 c 128,-1,19
 237 329 237 329 242 319 c 0,20,21
 347 195 347 195 513 175 c 1,22,-1
 513 715 l 1,23,24
 343 778 343 778 255.5 864 c 128,-1,25
 168 950 168 950 168 1088 c 0,26,27
 168 1232 168 1232 264.5 1325.5 c 128,-1,28
 361 1419 361 1419 513 1442 c 1,29,-1
 513 1589 l 1,30,-1
 662 1589 l 2,31,32
 664 1587 664 1587 664 1582 c 128,-1,33
 664 1577 664 1577 657 1566.5 c 128,-1,34
 650 1556 650 1556 650 1538 c 2,35,-1
 650 1445 l 1,36,37
 857 1421 857 1421 972 1265 c 1,38,-1
 876 1132 l 1,39,40
 864 1137 864 1137 863 1153 c 128,-1,41
 862 1169 862 1169 852 1184 c 0,42,43
 782 1277 782 1277 650 1302 c 1,44,-1
 650 827 l 1,45,46
 838 759 838 759 927 678.5 c 128,-1,47
 1016 598 1016 598 1016 442 c 0,48,49
 1016 344 1016 344 971.5 258.5 c 128,-1,50
 927 173 927 173 845.5 114.5 c 128,-1,51
 764 56 764 56 650 39 c 1,52,-1
 650 -114 l 1,53,-1
 513 -114 l 1,13,-1
EndSplineSet
EndChar

StartChar: dong
Encoding: 8363 8363 599
Width: 922
VWidth: 2441
GlyphClass: 2
Flags: HW
AnchorPoint: "Anchor-4" 696 1333 basechar 0
AnchorPoint: "Anchor-2" 503 261 basechar 0
AnchorPoint: "Anchor-1" 892 1155 basechar 0
AnchorPoint: "Anchor-0" 503 1155 basechar 0
LayerCount: 2
Fore
SplineSet
196 132 m 1,0,-1
 908 132 l 1,1,-1
 908 0 l 1,2,-1
 196 0 l 1,3,-1
 196 132 l 1,0,-1
494 361 m 0,4,5
 604 361 604 361 652.5 459 c 128,-1,6
 701 557 701 557 701 713 c 0,7,8
 701 872 701 872 648.5 967 c 128,-1,9
 596 1062 596 1062 484 1062 c 0,10,11
 269 1062 269 1062 268 737 c 0,12,13
 268 551 268 551 327.5 456 c 128,-1,14
 387 361 387 361 494 361 c 0,4,5
471 242 m 0,15,16
 390 242 390 242 315 291 c 128,-1,17
 240 340 240 340 191 443.5 c 128,-1,18
 142 547 142 547 142 715 c 128,-1,19
 142 883 142 883 192 984.5 c 128,-1,20
 242 1086 242 1086 319 1131.5 c 128,-1,21
 396 1177 396 1177 478 1177 c 0,22,23
 564 1177 564 1177 622.5 1137 c 128,-1,24
 681 1097 681 1097 710 1025 c 1,25,-1
 710 1258 l 1,26,-1
 376 1258 l 1,27,-1
 376 1389 l 1,28,-1
 710 1389 l 1,29,-1
 710 1560 l 1,30,-1
 852 1560 l 1,31,-1
 852 1545 l 1,32,33
 833 1528 833 1528 832 1475 c 2,34,-1
 832 1389 l 1,35,-1
 969 1389 l 1,36,-1
 969 1258 l 1,37,-1
 834 1258 l 1,38,-1
 834 401 l 2,39,40
 834 366 834 366 837 331 c 128,-1,41
 840 296 840 296 852 261 c 1,42,-1
 722 261 l 1,43,44
 710 293 710 293 708 327 c 128,-1,45
 706 361 706 361 706 396 c 1,46,47
 667 328 667 328 608.5 285 c 128,-1,48
 550 242 550 242 471 242 c 0,15,16
EndSplineSet
EndChar

StartChar: Euro
Encoding: 8364 8364 600
Width: 922
VWidth: 2441
GlyphClass: 1
Flags: HW
LayerCount: 2
Fore
SplineSet
666 -27 m 0,0,1
 485 -27 485 -27 350.5 111 c 128,-1,2
 216 249 216 249 183 532 c 1,3,-1
 68 532 l 1,4,-1
 94 674 l 1,5,-1
 174 674 l 1,6,7
 172.666666667 698.666666667 172.666666667 698.666666667 172.666666667 732.666666667 c 0,0,0
 172.666666667 749.666666667 172.666666667 749.666666667 173 769 c 128,-1,8
 174 827 174 827 179 869 c 1,9,-1
 68 869 l 1,10,-1
 94 1011 l 1,11,-1
 197 1011 l 1,12,13
 229 1204 229 1204 305.5 1318.5 c 128,-1,14
 382 1433 382 1433 480 1483 c 128,-1,15
 578 1533 578 1533 677 1533 c 0,16,17
 856 1533 856 1533 958 1411 c 1,18,-1
 908 1250 l 1,19,20
 886 1262 886 1262 872 1286.5 c 128,-1,21
 858 1311 858 1311 838.5 1335.5 c 128,-1,22
 819 1360 819 1360 780 1377 c 128,-1,23
 741 1394 741 1394 670 1394 c 0,24,25
 554 1394 554 1394 461.5 1301.5 c 128,-1,26
 369 1209 369 1209 334 1011 c 1,27,-1
 835 1011 l 1,28,-1
 792 869 l 1,29,-1
 316 869 l 1,30,31
 312 830 312 830 312 786.5 c 128,-1,32
 312 743 312 743 312 674 c 1,33,-1
 729 674 l 1,34,-1
 681 532 l 1,35,-1
 323 532 l 1,36,37
 353 329 353 329 446 224 c 128,-1,38
 539 119 539 119 672 119 c 0,39,40
 798 119 798 119 892 215 c 1,41,-1
 956 93 l 1,42,43
 895 32 895 32 822 2.5 c 128,-1,44
 749 -27 749 -27 666 -27 c 0,0,1
EndSplineSet
EndChar

StartChar: florin
Encoding: 402 402 601
Width: 922
VWidth: 2370
GlyphClass: 1
Flags: HW
LayerCount: 2
Fore
SplineSet
192 -246 m 0,0,1
 96 -246 96 -246 34 -173 c 1,2,-1
 111 -28 l 1,3,4
 119 -32 119 -32 126 -49 c 128,-1,5
 133 -66 133 -66 150 -81.5 c 128,-1,6
 167 -97 167 -97 208 -97 c 0,7,8
 322 -97 322 -97 341 203 c 2,9,-1
 383 870 l 1,10,-1
 154 870 l 1,11,-1
 154 996 l 1,12,-1
 392 996 l 1,13,-1
 404 1202 l 2,14,15
 419 1438 419 1438 500.5 1540.5 c 128,-1,16
 582 1643 582 1643 708 1643 c 0,17,18
 839 1643 839 1643 924 1532 c 1,19,-1
 860 1383 l 1,20,21
 845 1383 845 1383 843 1404 c 0,22,23
 835 1455 835 1455 796 1485.5 c 128,-1,24
 757 1516 757 1516 712 1516 c 0,25,26
 665 1516 665 1516 629.5 1487 c 128,-1,27
 594 1458 594 1458 574 1385.5 c 128,-1,28
 554 1313 554 1313 545 1179 c 2,29,-1
 535 996 l 1,30,-1
 766 996 l 1,31,-1
 766 870 l 1,32,-1
 524 870 l 1,33,-1
 477 197 l 2,34,35
 467 29 467 29 426 -67.5 c 128,-1,36
 385 -164 385 -164 325 -205 c 128,-1,37
 265 -246 265 -246 192 -246 c 0,0,1
EndSplineSet
EndChar

StartChar: uni20B2
Encoding: 8370 8370 603
Width: 922
VWidth: 2441
GlyphClass: 1
Flags: HW
LayerCount: 2
Fore
SplineSet
228 778 m 0,0,1
 228 515 228 515 299 354 c 128,-1,2
 370 193 370 193 481 147 c 1,3,-1
 481 1377 l 1,4,5
 414 1358 414 1358 355.5 1291.5 c 128,-1,6
 297 1225 297 1225 262.5 1100.5 c 128,-1,7
 228 976 228 976 228 778 c 0,0,1
481 -173 m 1,8,-1
 481 -14 l 1,9,10
 290 28 290 28 182.5 226 c 128,-1,11
 75 424 75 424 75 743 c 0,12,13
 75 960 75 960 112 1105 c 128,-1,14
 149 1250 149 1250 209.5 1339 c 128,-1,15
 270 1428 270 1428 342 1473.5 c 128,-1,16
 414 1519 414 1519 481 1531 c 1,17,-1
 481 1647 l 1,18,-1
 610 1647 l 1,19,-1
 610 1535 l 1,20,21
 761 1525 761 1525 836.5 1458 c 128,-1,22
 912 1391 912 1391 960 1289 c 1,23,-1
 879 1172 l 1,24,25
 865 1179 865 1179 851 1209.5 c 128,-1,26
 837 1240 837 1240 811.5 1278 c 128,-1,27
 786 1316 786 1316 738 1345 c 128,-1,28
 690 1374 690 1374 610 1384 c 1,29,-1
 610 126 l 1,30,31
 726 136 726 136 823 219 c 1,32,-1
 823 583 l 1,33,-1
 695 583 l 1,34,-1
 695 730 l 1,35,-1
 965 730 l 1,36,-1
 965 135 l 1,37,38
 792 -12 792 -12 610 -24 c 1,39,-1
 610 -173 l 1,40,-1
 481 -173 l 1,8,-1
EndSplineSet
EndChar

StartChar: uni20AD
Encoding: 8365 8365 604
Width: 922
VWidth: 2441
GlyphClass: 1
Flags: HW
LayerCount: 2
Fore
SplineSet
26 799 m 1,0,-1
 26 923 l 1,1,-1
 115 923 l 1,2,-1
 115 1521 l 1,3,-1
 278 1521 l 1,4,-1
 278 1504 l 1,5,6
 266 1490 266 1490 263 1473 c 128,-1,7
 260 1456 260 1456 260 1414 c 2,8,-1
 260 823 l 1,9,-1
 736 1533 l 1,10,11
 784 1521 784 1521 839 1521 c 2,12,-1
 888 1521 l 1,13,-1
 494 923 l 1,14,-1
 837 923 l 1,15,-1
 837 799 l 1,16,-1
 486 799 l 1,17,-1
 916 0 l 1,18,-1
 744 -10 l 1,19,-1
 351 755 l 1,20,-1
 260 622 l 1,21,-1
 260 0 l 1,22,-1
 115 0 l 1,23,-1
 115 799 l 1,24,-1
 26 799 l 1,0,-1
EndSplineSet
EndChar

StartChar: uni20BA
Encoding: 8378 8378 606
Width: 922
VWidth: 2441
GlyphClass: 1
Flags: HW
LayerCount: 2
Fore
SplineSet
225 0 m 1,0,-1
 225 678 l 1,1,-1
 54 610 l 1,2,-1
 54 755 l 1,3,-1
 225 825 l 1,4,-1
 225 964 l 1,5,-1
 54 896 l 1,6,-1
 54 1039 l 1,7,-1
 225 1111 l 1,8,-1
 225 1521 l 1,9,-1
 406 1521 l 1,10,11
 406 1497 406 1497 396.5 1484.5 c 128,-1,12
 387 1472 387 1472 387 1438 c 2,13,-1
 387 1177 l 1,14,-1
 777 1333 l 1,15,-1
 777 1189 l 1,16,-1
 387 1030 l 1,17,-1
 387 892 l 1,18,-1
 777 1048 l 1,19,-1
 777 904 l 1,20,-1
 387 745 l 1,21,-1
 387 149 l 1,22,23
 505 149 505 149 602 183 c 128,-1,24
 699 217 699 217 754 307.5 c 128,-1,25
 809 398 809 398 809 561 c 1,26,-1
 944 561 l 1,27,28
 944 263 944 263 792 131.5 c 128,-1,29
 640 0 640 0 380 0 c 2,30,-1
 225 0 l 1,0,-1
EndSplineSet
EndChar

StartChar: uni20BC
Encoding: 8380 8380 607
Width: 922
VWidth: 2441
GlyphClass: 1
Flags: HW
LayerCount: 2
Fore
SplineSet
471 242 m 1,0,-1
 471 1274 l 1,1,2
 355 1247 355 1247 308.5 1142 c 128,-1,3
 262 1037 262 1037 262 876 c 2,4,-1
 262 79 l 2,5,6
 262 47 262 47 271 30.5 c 128,-1,7
 280 14 280 14 280 0 c 1,8,-1
 107 0 l 1,9,-1
 107 874 l 2,10,11
 107 1375 107 1375 471 1421 c 1,12,-1
 471 1624 l 1,13,-1
 624 1624 l 1,14,-1
 624 1421 l 1,15,16
 794 1400 794 1400 895.5 1267.5 c 128,-1,17
 997 1135 997 1135 997 867 c 2,18,-1
 997 0 l 1,19,-1
 844 0 l 1,20,-1
 844 869 l 2,21,22
 844 1037 844 1037 795 1145 c 128,-1,23
 746 1253 746 1253 624 1277 c 1,24,-1
 624 242 l 1,25,-1
 471 242 l 1,0,-1
EndSplineSet
EndChar

StartChar: uni20A6
Encoding: 8358 8358 608
Width: 922
VWidth: 2441
GlyphClass: 2
Flags: HW
AnchorPoint: "Anchor-2" 467 0 basechar 0
AnchorPoint: "Anchor-0" 467 1521 basechar 0
LayerCount: 2
Fore
SplineSet
684 408 m 1,0,-1
 684 676 l 1,1,-1
 577 676 l 1,2,-1
 684 408 l 1,0,-1
246 1181 m 1,3,-1
 246 801 l 1,4,-1
 394 801 l 1,5,-1
 246 1181 l 1,3,-1
27 676 m 1,6,-1
 27 801 l 1,7,-1
 129 801 l 1,8,-1
 129 1521 l 1,9,-1
 248 1521 l 1,10,-1
 530 801 l 1,11,-1
 684 801 l 1,12,-1
 684 1521 l 1,13,-1
 818 1521 l 1,14,-1
 818 1504 l 1,15,16
 808 1490 808 1490 804 1473 c 128,-1,17
 800 1456 800 1456 800 1414 c 2,18,-1
 800 801 l 1,19,-1
 917 801 l 1,20,-1
 917 676 l 1,21,-1
 800 676 l 1,22,-1
 800 0 l 1,23,-1
 703 0 l 1,24,-1
 442 676 l 1,25,-1
 246 676 l 1,26,-1
 246 0 l 1,27,-1
 129 0 l 1,28,-1
 129 676 l 1,29,-1
 27 676 l 1,6,-1
EndSplineSet
EndChar

StartChar: peseta
Encoding: 8359 8359 609
Width: 922
VWidth: 2441
GlyphClass: 1
Flags: HW
LayerCount: 2
Fore
SplineSet
506 -30 m 0,0,1
 413 -30 413 -30 378 44.5 c 128,-1,2
 348.833333333 106.583333333 348.833333333 106.583333333 348.833333333 237.763888889 c 0,0,0
 348.833333333 264 348.833333333 264 350 293 c 2,3,-1
 360 517 l 1,4,-1
 255 517 l 1,5,-1
 269 632 l 1,6,-1
 362 632 l 1,7,-1
 362 745 l 1,8,-1
 470 769 l 1,9,-1
 492 774 l 1,10,-1
 497 757 l 1,11,12
 486 740 486 740 478 721.5 c 128,-1,13
 470 703 470 703 470 662 c 2,14,-1
 470 632 l 1,15,-1
 599 632 l 1,16,-1
 582 517 l 1,17,-1
 468 517 l 1,18,-1
 461 310 l 2,19,20
 458.487179487 262.615384615 458.487179487 262.615384615 458.487179487 226.635108481 c 0,0,0
 458.487179487 162.384615385 458.487179487 162.384615385 466.5 134.5 c 128,-1,21
 479 91 479 91 519 91 c 0,22,23
 551 91 551 91 587 117 c 1,24,-1
 628 210 l 1,25,-1
 637 232 l 1,26,-1
 651 224 l 1,27,28
 658 205 658 205 661 183 c 128,-1,29
 664 161 664 161 685 130 c 1,30,31
 703 111 703 111 727.5 98.5 c 128,-1,32
 752 86 752 86 789 86 c 0,33,34
 836 86 836 86 861 108 c 128,-1,35
 886 130 886 130 886 161 c 0,36,37
 886 196 886 196 865.5 224 c 128,-1,38
 845 252 845 252 784 275 c 0,39,40
 698 310 698 310 653 354 c 128,-1,41
 608 398 608 398 608 473 c 0,42,43
 608 556 608 556 658.5 601.5 c 128,-1,44
 709 647 709 647 789 647 c 0,45,46
 918 647 918 647 991 538 c 1,47,-1
 929 440 l 1,48,-1
 916 420 l 1,49,-1
 903 427 l 1,50,51
 901 446 901 446 895.5 465 c 128,-1,52
 890 484 890 484 869 510 c 1,53,54
 849 524 849 524 831 529.5 c 128,-1,55
 813 535 813 535 793 535 c 0,56,57
 750 535 750 535 733 519 c 128,-1,58
 716 503 716 503 716 476 c 0,59,60
 716 446 716 446 740.5 427 c 128,-1,61
 765 408 765 408 825 380 c 0,62,63
 915 338 915 338 954.5 293.5 c 128,-1,64
 994 249 994 249 994 179 c 0,65,66
 994 84 994 84 937.5 24.5 c 128,-1,67
 881 -35 881 -35 789 -35 c 0,68,69
 701 -35 701 -35 632 17 c 1,70,71
 575 -30 575 -30 506 -30 c 0,0,1
253 894 m 2,72,73
 348 894 348 894 388.5 963 c 128,-1,74
 429 1032 429 1032 429 1153 c 0,75,76
 429 1246 429 1246 388 1316 c 128,-1,77
 347 1386 347 1386 255 1386 c 2,78,-1
 224 1386 l 1,79,-1
 224 894 l 1,80,-1
 253 894 l 2,72,73
104 1521 m 1,81,-1
 260 1521 l 2,82,83
 357 1521 357 1521 422 1471 c 128,-1,84
 487 1421 487 1421 519 1338 c 128,-1,85
 551 1255 551 1255 551 1158 c 0,86,87
 551 995 551 995 481 882 c 128,-1,88
 411 769 411 769 269 769 c 2,89,-1
 224 769 l 1,90,-1
 224 0 l 1,91,-1
 104 0 l 1,92,-1
 104 1521 l 1,81,-1
EndSplineSet
EndChar

StartChar: uni20B1
Encoding: 8369 8369 610
Width: 922
VWidth: 2441
GlyphClass: 2
Flags: HW
AnchorPoint: "Anchor-2" 158 0 basechar 0
AnchorPoint: "Anchor-0" 446 1521 basechar 0
LayerCount: 2
Fore
SplineSet
231 820 m 1,0,-1
 452 820 l 2,1,2
 534 820 534 820 584.5 851.5 c 128,-1,3
 635 883 635 883 660 939 c 1,4,-1
 231 939 l 1,5,-1
 231 820 l 1,0,-1
689 1088 m 0,6,7
 689 1112 689 1112 684 1137 c 1,8,-1
 231 1137 l 1,9,-1
 231 1039 l 1,10,-1
 684 1039 l 1,11,12
 689 1061 689 1061 689 1088 c 0,6,7
231 1365 m 1,13,-1
 231 1237 l 1,14,-1
 660 1237 l 1,15,16
 633 1295 633 1295 583 1330 c 128,-1,17
 533 1365 533 1365 454 1365 c 2,18,-1
 231 1365 l 1,13,-1
92 0 m 1,19,-1
 92 939 l 1,20,-1
 11 939 l 1,21,-1
 11 1039 l 1,22,-1
 92 1039 l 1,23,-1
 92 1137 l 1,24,-1
 11 1137 l 1,25,-1
 11 1237 l 1,26,-1
 92 1237 l 1,27,-1
 92 1521 l 1,28,-1
 457 1521 l 2,29,30
 610 1521 610 1521 696 1443 c 128,-1,31
 782 1365 782 1365 810 1237 c 1,32,-1
 901 1237 l 1,33,-1
 901 1137 l 1,34,-1
 825 1137 l 1,35,36
 825 1116 825 1116 825 1094 c 0,37,38
 825 1064 825 1064 823 1039 c 1,39,-1
 901 1039 l 1,40,-1
 901 939 l 1,41,-1
 808 939 l 1,42,43
 777 817 777 817 694 744 c 128,-1,44
 611 671 611 671 467 671 c 2,45,-1
 231 671 l 1,46,-1
 231 0 l 1,47,-1
 92 0 l 1,19,-1
EndSplineSet
EndChar

StartChar: uni20BD
Encoding: 8381 8381 611
Width: 922
VWidth: 2441
GlyphClass: 2
Flags: HW
AnchorPoint: "Anchor-2" 205 0 basechar 0
AnchorPoint: "Anchor-0" 517 1521 basechar 0
LayerCount: 2
Fore
SplineSet
285 820 m 1,0,-1
 523 820 l 2,1,2
 658 820 658 820 719 893.5 c 128,-1,3
 780 967 780 967 780 1088 c 0,4,5
 780 1207 780 1207 719 1286 c 128,-1,6
 658 1365 658 1365 525 1365 c 2,7,-1
 285 1365 l 1,8,-1
 285 820 l 1,0,-1
135 0 m 1,9,-1
 135 384 l 1,10,-1
 38 384 l 1,11,-1
 38 532 l 1,12,-1
 135 532 l 1,13,-1
 135 671 l 1,14,-1
 38 671 l 1,15,-1
 38 820 l 1,16,-1
 135 820 l 1,17,-1
 135 1521 l 1,18,-1
 531 1521 l 2,19,20
 741 1521 741 1521 834.5 1399 c 128,-1,21
 928 1277 928 1277 928 1094 c 0,22,23
 928 908 928 908 834 789.5 c 128,-1,24
 740 671 740 671 542 671 c 2,25,-1
 285 671 l 1,26,-1
 285 532 l 1,27,-1
 594 532 l 1,28,-1
 594 384 l 1,29,-1
 285 384 l 1,30,-1
 285 0 l 1,31,-1
 135 0 l 1,9,-1
EndSplineSet
EndChar

StartChar: uni20B9
Encoding: 8377 8377 612
Width: 922
VWidth: 2441
GlyphClass: 1
Flags: HW
LayerCount: 2
Fore
SplineSet
113 820 m 1,0,-1
 406 820 l 2,1,2
 523 820 523 820 587.5 870 c 128,-1,3
 652 920 652 920 670 1006 c 1,4,-1
 110 1006 l 1,5,-1
 110 1150 l 1,6,-1
 673 1150 l 1,7,8
 659 1241 659 1241 595.5 1302 c 128,-1,9
 532 1363 532 1363 406 1363 c 2,10,-1
 110 1363 l 1,11,-1
 110 1519 l 1,12,-1
 1000 1519 l 1,13,-1
 1000 1374 l 1,14,-1
 700 1374 l 1,15,16
 808 1295 808 1295 835 1150 c 1,17,-1
 1000 1150 l 1,18,-1
 1000 1006 l 1,19,-1
 837 1006 l 1,20,21
 821 896 821 896 748 804.5 c 128,-1,22
 675 713 675 713 565 683 c 1,23,-1
 878 0 l 1,24,-1
 702 0 l 1,25,-1
 404 674 l 1,26,-1
 113 674 l 1,27,-1
 113 820 l 1,0,-1
EndSplineSet
EndChar

StartChar: sterling
Encoding: 163 163 613
Width: 922
VWidth: 2441
GlyphClass: 1
Flags: HW
LayerCount: 2
Fore
SplineSet
138 -19 m 1,0,-1
 81 119 l 1,1,2
 166 168 166 168 213.5 221.5 c 128,-1,3
 261 275 261 275 280.5 351 c 128,-1,4
 300 427 300 427 300 542 c 0,5,6
 300 633 300 633 271 783 c 1,7,-1
 136 783 l 1,8,-1
 136 923 l 1,9,-1
 241 923 l 1,10,11
 228 1002 228 1002 228 1079 c 0,12,13
 228 1218 228 1218 278 1317 c 128,-1,14
 328 1416 328 1416 410.5 1468.5 c 128,-1,15
 493 1521 493 1521 594 1521 c 0,16,17
 750 1521 750 1521 865 1394 c 1,18,-1
 771 1265 l 1,19,20
 734 1314 734 1314 693 1348 c 128,-1,21
 652 1382 652 1382 560 1382 c 0,22,23
 475 1382 475 1382 424.5 1301.5 c 128,-1,24
 374 1221 374 1221 374 1081 c 0,25,26
 374 1049 374 1049 378.5 1010.5 c 128,-1,27
 383 972 383 972 390 923 c 1,28,-1
 655 923 l 1,29,-1
 655 783 l 1,30,-1
 420 783 l 1,31,32
 433 715 433 715 439 655.5 c 128,-1,33
 445 596 445 596 445 547 c 0,34,35
 445 454 445 454 428 371 c 128,-1,36
 411 288 411 288 374 215 c 1,37,38
 396.424242424 218.03030303 396.424242424 218.03030303 418.251606979 218.03030303 c 0,39,40
 468.454545455 218.03030303 468.454545455 218.03030303 515.5 202 c 0,41,42
 583 179 583 179 645 151.5 c 128,-1,43
 707 124 707 124 767 124 c 0,44,45
 850 124 850 124 918 188 c 1,46,-1
 971 58 l 1,47,48
 863 -37 863 -37 755 -37 c 0,49,50
 714 -37 714 -37 645 -9 c 128,-1,51
 576 19 576 19 502.5 46 c 128,-1,52
 429 73 429 73 372 73 c 0,53,54
 371.074468085 73.0106382979 371.074468085 73.0106382979 370.142145767 73.0106382979 c 0,55,56
 283.436170213 73.0106382979 283.436170213 73.0106382979 138 -19 c 1,0,-1
EndSplineSet
EndChar

StartChar: uni20A9
Encoding: 8361 8361 614
Width: 922
VWidth: 2441
GlyphClass: 2
Flags: HW
AnchorPoint: "Anchor-2" 469 0 basechar 0
AnchorPoint: "Anchor-0" 480 1521 basechar 0
LayerCount: 2
Fore
SplineSet
667 513 m 1,0,-1
 684 703 l 1,1,-1
 632 703 l 1,2,-1
 667 513 l 1,0,-1
292 517 m 1,3,-1
 328 703 l 1,4,-1
 271 703 l 1,5,-1
 292 517 l 1,3,-1
471 979 m 1,6,-1
 438 801 l 1,7,-1
 503 801 l 1,8,-1
 471 979 l 1,6,-1
237 0 m 1,9,-1
 159 703 l 1,10,-1
 27 703 l 1,11,-1
 27 801 l 1,12,-1
 148 801 l 1,13,-1
 69 1521 l 1,14,-1
 183 1521 l 1,15,-1
 261 801 l 1,16,-1
 344 801 l 1,17,-1
 459 1409 l 1,18,-1
 498 1409 l 1,19,-1
 613 801 l 1,20,-1
 692 801 l 1,21,-1
 759 1521 l 1,22,-1
 864 1521 l 1,23,-1
 784 801 l 1,24,-1
 917 801 l 1,25,-1
 917 703 l 1,26,-1
 774 703 l 1,27,-1
 697 0 l 1,28,-1
 649 0 l 1,29,-1
 521 703 l 1,30,-1
 420 703 l 1,31,-1
 290 0 l 1,32,-1
 237 0 l 1,9,-1
EndSplineSet
EndChar

StartChar: yen
Encoding: 165 165 615
Width: 922
VWidth: 2441
GlyphClass: 1
Flags: HW
LayerCount: 2
Fore
SplineSet
610 0 m 1,0,-1
 461 0 l 1,1,-1
 461 240 l 1,2,-1
 175 240 l 1,3,-1
 175 376 l 1,4,-1
 461 376 l 1,5,-1
 461 529 l 1,6,-1
 175 529 l 1,7,-1
 175 669 l 1,8,-1
 461 669 l 1,9,-1
 461 720 l 1,10,-1
 74 1523 l 1,11,-1
 242 1523 l 1,12,-1
 536 892 l 1,13,-1
 808 1521 l 1,14,-1
 964 1521 l 1,15,-1
 610 720 l 1,16,-1
 610 669 l 1,17,-1
 881 669 l 1,18,-1
 881 529 l 1,19,-1
 610 529 l 1,20,-1
 610 376 l 1,21,-1
 881 376 l 1,22,-1
 881 240 l 1,23,-1
 610 240 l 1,24,-1
 610 0 l 1,0,-1
EndSplineSet
EndChar

StartChar: asteriskmath
Encoding: 8727 8727 616
Width: 922
VWidth: 2441
GlyphClass: 1
Flags: HW
LayerCount: 2
Fore
SplineSet
293 333 m 1,0,-1
 175 435 l 1,1,-1
 451 806 l 1,2,-1
 85 935 l 1,3,-1
 144 1086 l 1,4,-1
 484 908 l 1,5,-1
 451 1340 l 1,6,-1
 621 1340 l 1,7,-1
 583 908 l 1,8,-1
 921 1079 l 1,9,-1
 975 935 l 1,10,-1
 611 806 l 1,11,-1
 883 435 l 1,12,-1
 763 335 l 1,13,-1
 531 732 l 1,14,-1
 293 333 l 1,0,-1
EndSplineSet
EndChar

StartChar: uni2215
Encoding: 8725 8725 618
Width: 922
VWidth: 2408
GlyphClass: 1
Flags: HW
LayerCount: 2
Fore
SplineSet
214 -246 m 1,0,-1
 101 -206 l 1,1,-1
 785 1897 l 1,2,-1
 898 1853 l 1,3,-1
 214 -246 l 1,0,-1
EndSplineSet
EndChar

StartChar: element
Encoding: 8712 8712 619
Width: 922
VWidth: 2441
GlyphClass: 1
Flags: HW
LayerCount: 2
Fore
SplineSet
602 10 m 2,0,1
 361 10 361 10 223 153 c 128,-1,2
 85 296 85 296 85 550 c 0,3,4
 85 720 85 720 149 844.5 c 128,-1,5
 213 969 213 969 328.5 1037.5 c 128,-1,6
 444 1106 444 1106 597 1106 c 2,7,-1
 975 1106 l 1,8,-1
 975 1009 l 1,9,-1
 634 1009 l 2,10,11
 428 1009 428 1009 313.5 904 c 128,-1,12
 199 799 199 799 187 601 c 1,13,-1
 975 601 l 1,14,-1
 975 503 l 1,15,-1
 187 503 l 1,16,17
 208 107 208 107 634 107 c 2,18,-1
 975 107 l 1,19,-1
 975 10 l 1,20,-1
 602 10 l 2,0,1
EndSplineSet
EndChar

StartChar: plus
Encoding: 43 43 621
Width: 922
VWidth: 2441
GlyphClass: 1
Flags: HW
LayerCount: 2
Fore
SplineSet
478 254 m 1,0,-1
 478 713 l 1,1,-1
 96 713 l 1,2,-1
 96 857 l 1,3,-1
 478 857 l 1,4,-1
 478 1277 l 1,5,-1
 618 1277 l 1,6,-1
 618 857 l 1,7,-1
 986 857 l 1,8,-1
 986 713 l 1,9,-1
 618 713 l 1,10,-1
 618 254 l 1,11,-1
 478 254 l 1,0,-1
EndSplineSet
EndChar

StartChar: minus
Encoding: 8722 8722 622
Width: 922
VWidth: 2441
GlyphClass: 1
Flags: HW
LayerCount: 2
Fore
SplineSet
96 713 m 1,0,-1
 96 857 l 1,1,-1
 986 857 l 1,2,-1
 986 713 l 1,3,-1
 96 713 l 1,0,-1
EndSplineSet
Substitution2: "'sups' Superscript in Latin lookup 20 subtable" uni207B
Substitution2: "'aalt' Access All Alternates in Latin lookup 0 subtable" uni207B
EndChar

StartChar: multiply
Encoding: 215 215 623
Width: 922
VWidth: 2441
GlyphClass: 1
Flags: HW
LayerCount: 2
Fore
SplineSet
834 349 m 1,0,-1
 559 676 l 1,1,-1
 286 359 l 1,2,-1
 186 466 l 1,3,-1
 461 792 l 1,4,-1
 186 1121 l 1,5,-1
 291 1233 l 1,6,-1
 561 911 l 1,7,-1
 837 1233 l 1,8,-1
 948 1125 l 1,9,-1
 662 794 l 1,10,-1
 939 461 l 1,11,-1
 834 349 l 1,0,-1
EndSplineSet
EndChar

StartChar: divide
Encoding: 247 247 624
Width: 922
VWidth: 2441
GlyphClass: 1
Flags: HW
LayerCount: 2
Fore
SplineSet
561 259 m 0,0,1
 522 259 522 259 490.5 288 c 128,-1,2
 459 317 459 317 459 361 c 0,3,4
 459 407 459 407 490.5 437.5 c 128,-1,5
 522 468 522 468 561 468 c 128,-1,6
 600 468 600 468 631 435.5 c 128,-1,7
 662 403 662 403 662 361 c 128,-1,8
 662 319 662 319 632.5 289 c 128,-1,9
 603 259 603 259 561 259 c 0,0,1
156 685 m 1,10,-1
 156 850 l 1,11,-1
 948 850 l 1,12,-1
 948 685 l 1,13,-1
 156 685 l 1,10,-1
559 1060 m 0,14,15
 520 1060 520 1060 490.5 1090.5 c 128,-1,16
 461 1121 461 1121 461 1162 c 0,17,18
 461 1206 461 1206 491.5 1238 c 128,-1,19
 522 1270 522 1270 559 1270 c 0,20,21
 603 1270 603 1270 632.5 1237 c 128,-1,22
 662 1204 662 1204 662 1162 c 128,-1,23
 662 1120 662 1120 632.5 1090 c 128,-1,24
 603 1060 603 1060 559 1060 c 0,14,15
EndSplineSet
EndChar

StartChar: equal
Encoding: 61 61 625
Width: 922
VWidth: 2441
GlyphClass: 1
Flags: HW
LayerCount: 2
Fore
SplineSet
99 445 m 1,0,-1
 99 594 l 1,1,-1
 989 594 l 1,2,-1
 989 445 l 1,3,-1
 99 445 l 1,0,-1
99 950 m 1,4,-1
 99 1099 l 1,5,-1
 989 1099 l 1,6,-1
 989 950 l 1,7,-1
 99 950 l 1,4,-1
EndSplineSet
EndChar

StartChar: notequal
Encoding: 8800 8800 626
Width: 922
VWidth: 2441
GlyphClass: 1
Flags: HW
LayerCount: 2
Fore
SplineSet
99 445 m 1,0,-1
 99 594 l 1,1,-1
 385 594 l 1,2,-1
 565 950 l 1,3,-1
 99 950 l 1,4,-1
 99 1099 l 1,5,-1
 640 1099 l 1,6,-1
 822 1458 l 1,7,-1
 923 1396 l 1,8,-1
 771 1099 l 1,9,-1
 989 1099 l 1,10,-1
 989 950 l 1,11,-1
 697 950 l 1,12,-1
 517 594 l 1,13,-1
 989 594 l 1,14,-1
 989 445 l 1,15,-1
 443 445 l 1,16,-1
 259 88 l 1,17,-1
 159 147 l 1,18,-1
 310 445 l 1,19,-1
 99 445 l 1,0,-1
EndSplineSet
EndChar

StartChar: greater
Encoding: 62 62 627
Width: 922
VWidth: 2441
GlyphClass: 1
Flags: HW
LayerCount: 2
Fore
SplineSet
84 114 m 1,0,-1
 84 300 l 1,1,-1
 812 778 l 1,2,-1
 89 1211 l 1,3,-1
 89 1384 l 1,4,-1
 974 837 l 1,5,-1
 974 725 l 1,6,-1
 84 114 l 1,0,-1
EndSplineSet
EndChar

StartChar: less
Encoding: 60 60 628
Width: 922
VWidth: 2441
GlyphClass: 1
Flags: HW
LayerCount: 2
Fore
SplineSet
961 114 m 1,0,-1
 71 725 l 1,1,-1
 71 837 l 1,2,-1
 954 1384 l 1,3,-1
 954 1211 l 1,4,-1
 234 778 l 1,5,-1
 961 300 l 1,6,-1
 961 114 l 1,0,-1
EndSplineSet
EndChar

StartChar: lessequal
Encoding: 8804 8804 630
Width: 922
VWidth: 2441
GlyphClass: 1
Flags: HW
LayerCount: 2
Fore
SplineSet
96 44 m 1,0,-1
 96 193 l 1,1,-1
 960 193 l 1,2,-1
 960 44 l 1,3,-1
 96 44 l 1,0,-1
962 261 m 1,4,-1
 72 747 l 1,5,-1
 72 864 l 1,6,-1
 962 1286 l 1,7,-1
 962 1113 l 1,8,-1
 234 803 l 1,9,-1
 962 424 l 1,10,-1
 962 261 l 1,4,-1
EndSplineSet
EndChar

StartChar: plusminus
Encoding: 177 177 631
Width: 922
VWidth: 2441
GlyphClass: 1
Flags: HW
LayerCount: 2
Fore
SplineSet
99 42 m 1,0,-1
 99 196 l 1,1,-1
 989 196 l 1,2,-1
 989 42 l 1,3,-1
 99 42 l 1,0,-1
477 378 m 1,4,-1
 477 837 l 1,5,-1
 99 837 l 1,6,-1
 99 986 l 1,7,-1
 477 986 l 1,8,-1
 477 1404 l 1,9,-1
 620 1404 l 1,10,-1
 620 986 l 1,11,-1
 986 986 l 1,12,-1
 986 837 l 1,13,-1
 620 837 l 1,14,-1
 620 378 l 1,15,-1
 477 378 l 1,4,-1
EndSplineSet
EndChar

StartChar: asciitilde
Encoding: 126 126 633
Width: 922
VWidth: 2441
GlyphClass: 1
Flags: HW
LayerCount: 2
Fore
SplineSet
764 650 m 0,0,1
 689 650 689 650 635 682.5 c 128,-1,2
 581 715 581 715 535 748 c 128,-1,3
 489 781 489 781 432 781 c 0,4,5
 383 781 383 781 344 756.5 c 128,-1,6
 305 732 305 732 268 666 c 1,7,-1
 156 720 l 1,8,9
 191 803 191 803 257.5 859.5 c 128,-1,10
 324 916 324 916 427 916 c 0,11,12
 502 916 502 916 554 883 c 128,-1,13
 606 850 606 850 651 815.5 c 128,-1,14
 696 781 696 781 755 781 c 0,15,16
 801 781 801 781 832.5 806.5 c 128,-1,17
 864 832 864 832 908 901 c 1,18,-1
 1013 832 l 1,19,20
 957 729 957 729 901 689.5 c 128,-1,21
 845 650 845 650 764 650 c 0,0,1
EndSplineSet
Substitution2: "'ss01' Style Set 1 in Latin lookup 35 subtable" asciitilde.ss01
Substitution2: "'salt' Stylistic Alternatives in Latin lookup 34 subtable" asciitilde.ss01
Substitution2: "'aalt' Access All Alternates in Latin lookup 0 subtable" asciitilde.ss01
EndChar

StartChar: logicalnot
Encoding: 172 172 634
Width: 922
VWidth: 2441
GlyphClass: 1
Flags: HW
LayerCount: 2
Fore
SplineSet
759 384 m 1,0,-1
 759 694 l 1,1,-1
 200 694 l 1,2,-1
 200 848 l 1,3,-1
 911 848 l 1,4,-1
 911 384 l 1,5,-1
 759 384 l 1,0,-1
EndSplineSet
EndChar

StartChar: asciicircum
Encoding: 94 94 635
Width: 922
VWidth: 2441
GlyphClass: 1
Flags: HW
LayerCount: 2
Fore
SplineSet
317 837 m 1,0,-1
 203 892 l 1,1,-1
 540 1521 l 1,2,-1
 591 1521 l 1,3,-1
 888 894 l 1,4,-1
 767 837 l 1,5,-1
 557 1260 l 1,6,-1
 317 837 l 1,0,-1
EndSplineSet
Substitution2: "'ss01' Style Set 1 in Latin lookup 35 subtable" asciicircum.ss01
Substitution2: "'salt' Stylistic Alternatives in Latin lookup 34 subtable" asciicircum.ss01
Substitution2: "'aalt' Access All Alternates in Latin lookup 0 subtable" asciicircum.ss01
EndChar

StartChar: infinity
Encoding: 8734 8734 636
Width: 922
VWidth: 2441
GlyphClass: 1
Flags: HW
LayerCount: 2
Fore
SplineSet
791 737 m 0,0,1
 791 816 791 816 759 862 c 128,-1,2
 727 908 727 908 676 908 c 0,3,4
 629 908 629 908 593 866.5 c 128,-1,5
 557 825 557 825 524 737 c 1,6,7
 590 567 590 567 674 566 c 0,8,9
 729 566 729 566 760 615 c 128,-1,10
 791 664 791 664 791 737 c 0,0,1
396 740 m 1,11,12
 359 835 359 835 324.5 873 c 128,-1,13
 290 911 290 911 247 911 c 0,14,15
 192 911 192 911 161 863 c 128,-1,16
 130 815 130 815 130 740 c 128,-1,17
 130 665 130 665 161 617 c 128,-1,18
 192 569 192 569 247 569 c 0,19,20
 296 569 296 569 331.5 614 c 128,-1,21
 367 659 367 659 396 740 c 1,11,12
905 737 m 0,22,23
 905 605 905 605 841.5 514.5 c 128,-1,24
 778 424 778 424 680 424 c 0,25,26
 614 424 614 424 559 470.5 c 128,-1,27
 504 517 504 517 458 617 c 1,28,29
 364 424 364 424 241 424 c 0,30,31
 145 424 145 424 80 513.5 c 128,-1,32
 15 603 15 603 15 737 c 0,33,34
 15 874 15 874 79.5 963.5 c 128,-1,35
 144 1053 144 1053 241 1053 c 0,36,37
 307 1053 307 1053 361 1010 c 128,-1,38
 415 967 415 967 463 859 c 1,39,40
 549 1052 549 1052 682 1053 c 0,41,42
 778 1053 778 1053 841.5 967 c 128,-1,43
 905 881 905 881 905 737 c 0,22,23
EndSplineSet
EndChar

StartChar: emptyset
Encoding: 8709 8709 637
Width: 922
VWidth: 2441
GlyphClass: 1
Flags: HW
LayerCount: 2
Fore
SplineSet
468 389 m 0,0,1
 553 389 553 389 623 445 c 128,-1,2
 693 501 693 501 733.5 593 c 128,-1,3
 774 685 774 685 774 796 c 0,4,5
 774 928 774 928 716 1032 c 1,6,-1
 270 489 l 1,7,8
 310 443 310 443 360 416 c 128,-1,9
 410 389 410 389 468 389 c 0,0,1
166.98245614 791.446291167 m 0,0,0
 166.98245614 664.157894737 166.98245614 664.157894737 222 561 c 1,12,-1
 665 1104 l 1,13,14
 625 1148 625 1148 575.5 1173.5 c 128,-1,15
 526 1199 526 1199 468 1199 c 0,16,17
 383 1199 383 1199 315.5 1143.5 c 128,-1,18
 248 1088 248 1088 207.5 997 c 128,-1,19
 166.98245614 905.960580464 166.98245614 905.960580464 166.98245614 791.446291167 c 0,0,0
79 254 m 1,20,-1
 25 319 l 1,21,-1
 143 466 l 1,22,23
 103 534 103 534 80.5 618.5 c 128,-1,24
 58 703 58 703 58 796 c 0,25,26
 58 945 58 945 113.5 1065.5 c 128,-1,27
 169 1186 169 1186 261.5 1258 c 128,-1,28
 354 1330 354 1330 468 1330 c 0,29,30
 547 1330 547 1330 618 1295 c 128,-1,31
 689 1260 689 1260 743 1197 c 1,32,-1
 864 1342 l 1,33,-1
 915 1277 l 1,34,-1
 792 1128 l 1,35,36
 834 1060 834 1060 858 974 c 128,-1,37
 882 888 882 888 882 796 c 0,38,39
 882 649 882 649 827 527 c 128,-1,40
 772 405 772 405 678 332 c 128,-1,41
 584 259 584 259 468 259 c 0,42,43
 389 259 389 259 319.5 296 c 128,-1,44
 250 333 250 333 196 396 c 1,45,-1
 79 254 l 1,20,-1
EndSplineSet
EndChar

StartChar: integral
Encoding: 8747 8747 638
Width: 922
VWidth: 2358
GlyphClass: 1
Flags: HW
LayerCount: 2
Fore
SplineSet
273 -246 m 0,0,1
 201 -246 201 -246 138 -218 c 1,2,-1
 138 -88 l 1,3,4
 164 -100 164 -100 192.5 -108 c 128,-1,5
 221 -116 221 -116 256 -116 c 0,6,7
 328 -116 328 -116 370.5 -56 c 128,-1,8
 413 4 413 4 413 143 c 2,9,-1
 413 1465 l 2,10,11
 413 1667 413 1667 488 1761 c 128,-1,12
 563 1855 563 1855 702 1855 c 0,13,14
 740 1855 740 1855 769 1848 c 128,-1,15
 798 1841 798 1841 824 1830 c 1,16,-1
 824 1702 l 1,17,18
 772 1726 772 1726 712 1726 c 0,19,20
 634 1726 634 1726 594.5 1669 c 128,-1,21
 555 1612 555 1612 555 1448 c 2,22,-1
 555 128 l 2,23,24
 555 -63 555 -63 476 -154.5 c 128,-1,25
 397 -246 397 -246 273 -246 c 0,0,1
EndSplineSet
EndChar

StartChar: uni2126
Encoding: 8486 8486 639
Width: 922
VWidth: 2441
GlyphClass: 1
Flags: HW
LayerCount: 2
Fore
SplineSet
486 1487 m 128,-1,1
 338 1487 338 1487 255.5 1322.5 c 128,-1,2
 173 1158 173 1158 173 840 c 0,3,4
 173 603 173 603 245 425 c 128,-1,5
 317 247 317 247 421 168 c 1,6,-1
 421 0 l 1,7,-1
 78 0 l 1,8,-1
 78 161 l 1,9,-1
 288 161 l 1,10,11
 183 252 183 252 110.5 431 c 128,-1,12
 38 610 38 610 38 862 c 0,13,14
 38 1263 38 1263 158.5 1455 c 128,-1,15
 279 1647 279 1647 486 1647 c 0,16,17
 689 1647 689 1647 808.5 1457 c 128,-1,18
 928 1267 928 1267 928 859 c 0,19,20
 928 615 928 615 860.5 433.5 c 128,-1,21
 793 252 793 252 678 161 c 1,22,-1
 890 161 l 1,23,-1
 890 0 l 1,24,-1
 543 0 l 1,25,-1
 543 168 l 1,26,27
 674 254 674 254 734.5 430 c 128,-1,28
 795 606 795 606 795 837 c 0,29,30
 795 1161 795 1161 714.5 1324 c 128,-1,0
 634 1487 634 1487 486 1487 c 128,-1,1
EndSplineSet
EndChar

StartChar: uni2206
Encoding: 8710 8710 640
Width: 922
VWidth: 2441
GlyphClass: 1
Flags: HW
LayerCount: 2
Fore
SplineSet
801 144 m 1,0,-1
 514 1456 l 1,1,-1
 221 144 l 1,2,-1
 801 144 l 1,0,-1
606 1624 m 1,3,-1
 956 110 l 1,4,-1
 956 2 l 1,5,-1
 66 2 l 1,6,-1
 66 112 l 1,7,-1
 421 1624 l 1,8,-1
 606 1624 l 1,3,-1
EndSplineSet
EndChar

StartChar: product
Encoding: 8719 8719 641
Width: 922
VWidth: 2339
GlyphClass: 1
Flags: HW
LayerCount: 2
Fore
SplineSet
106 -246 m 1,0,-1
 106 1521 l 1,1,-1
 873 1521 l 1,2,3
 873 1506 873 1506 869 1495 c 128,-1,4
 865 1484 865 1484 863 1473 c 2,5,-1
 863 -246 l 1,6,-1
 717 -246 l 1,7,-1
 717 1395 l 1,8,-1
 255 1395 l 1,9,-1
 255 -246 l 1,10,-1
 106 -246 l 1,0,-1
EndSplineSet
EndChar

StartChar: summation
Encoding: 8721 8721 642
Width: 922
VWidth: 2372
GlyphClass: 1
Flags: HW
LayerCount: 2
Fore
SplineSet
79 -246 m 1,0,-1
 79 -132 l 1,1,-1
 472 693 l 1,2,-1
 79 1503 l 1,3,-1
 79 1631 l 1,4,-1
 929 1631 l 1,5,-1
 929 1501 l 1,6,-1
 248 1501 l 1,7,-1
 628 698 l 1,8,-1
 237 -116 l 1,9,-1
 929 -116 l 1,10,-1
 929 -246 l 1,11,-1
 79 -246 l 1,0,-1
EndSplineSet
EndChar

StartChar: radical
Encoding: 8730 8730 643
Width: 922
VWidth: 2441
GlyphClass: 1
Flags: HW
LayerCount: 2
Fore
SplineSet
378 -17 m 1,0,-1
 180 696 l 1,1,-1
 20 696 l 1,2,-1
 20 827 l 1,3,-1
 259 827 l 1,4,-1
 430 210 l 1,5,-1
 795 1647 l 1,6,-1
 910 1647 l 1,7,-1
 483 -17 l 1,8,-1
 378 -17 l 1,0,-1
EndSplineSet
EndChar

StartChar: uni00B5
Encoding: 181 181 644
Width: 922
VWidth: 2299
GlyphClass: 1
Flags: HW
LayerCount: 2
Fore
SplineSet
39 -246 m 1,0,1
 39 -209 39 -209 42 -130.5 c 128,-1,2
 45 -52 45 -52 51 46.5 c 128,-1,3
 57 145 57 145 63 245 c 128,-1,4
 69 345 69 345 73 428.5 c 128,-1,5
 77 512 77 512 77 560 c 2,6,-1
 77 1116 l 1,7,-1
 208 1116 l 1,8,-1
 208 524 l 2,9,10
 208 404 208 404 232 335.5 c 128,-1,11
 256 267 256 267 297 239.5 c 128,-1,12
 338 212 338 212 384 212 c 0,13,14
 479 212 479 212 526 300.5 c 128,-1,15
 573 389 573 389 573 537 c 2,16,-1
 573 1116 l 1,17,-1
 702 1116 l 1,18,-1
 702 372 l 2,19,20
 702 222 702 222 774 221 c 0,21,22
 802 221 802 221 829 247 c 128,-1,23
 856 273 856 273 866 302 c 2,24,-1
 877 328 l 1,25,-1
 929 216 l 1,26,27
 857.595041322 96.9917355372 857.595041322 96.9917355372 765.535755754 96.9917355372 c 0,0,0
 764.768595041 96.9917355372 764.768595041 96.9917355372 764 97 c 0,28,29
 703 97 703 97 658 143 c 128,-1,30
 613 189 613 189 607 258 c 1,31,32
 575 177 575 177 510 137 c 128,-1,33
 445 97 445 97 374 97 c 0,34,35
 304 97 304 97 247.5 133 c 128,-1,36
 191 169 191 169 163 241 c 1,37,38
 163 116 163 116 163 -2.5 c 128,-1,39
 163 -121 163 -121 163 -246 c 1,40,-1
 39 -246 l 1,0,1
EndSplineSet
EndChar

StartChar: partialdiff
Encoding: 8706 8706 645
Width: 922
VWidth: 2441
GlyphClass: 1
Flags: HW
LayerCount: 2
Fore
SplineSet
465 107 m 0,0,1
 554 107 554 107 614.5 163 c 128,-1,2
 675 219 675 219 714.5 311 c 128,-1,3
 754 403 754 403 774.5 511.5 c 128,-1,4
 795 620 795 620 799 725 c 1,5,6
 751 849 751 849 684.5 908 c 128,-1,7
 618 967 618 967 533 967 c 0,8,9
 444 967 444 967 383.5 914.5 c 128,-1,10
 323 862 323 862 287.5 778 c 128,-1,11
 252 694 252 694 239.5 596 c 128,-1,12
 231.487179487 533.179487179 231.487179487 533.179487179 231.487179487 473.646285339 c 0,0,0
 231.487179487 440.307692308 231.487179487 440.307692308 234 408 c 0,13,14
 250 259 250 259 310.5 183 c 128,-1,15
 371 107 371 107 465 107 c 0,0,1
463 -27 m 0,16,17
 282 -27 282 -27 188 96 c 128,-1,18
 94 219 94 219 76 412 c 0,19,20
 71.9666666667 455.633333333 71.9666666667 455.633333333 71.9666666667 499.602777778 c 0,0,0
 71.9666666667 575.55 71.9666666667 575.55 84 652.5 c 128,-1,21
 103 774 103 774 154.5 875 c 128,-1,22
 206 976 206 976 291 1037.5 c 128,-1,23
 376 1099 376 1099 496 1099 c 0,24,25
 599 1099 599 1099 675 1046.5 c 128,-1,26
 751 994 751 994 804 899 c 1,27,28
 806.285714286 919 806.285714286 919 806.285714286 937.367346939 c 0,0,0
 806.285714286 951.142857143 806.285714286 951.142857143 805 964 c 128,-1,29
 802 994 802 994 799 1025 c 0,30,31
 786 1157 786 1157 751.5 1260 c 128,-1,32
 717 1363 717 1363 651.5 1421 c 128,-1,33
 586 1479 586 1479 481 1479 c 0,34,35
 424 1479 424 1479 358.5 1462 c 128,-1,36
 293 1445 293 1445 243 1411 c 1,37,-1
 229 1556 l 1,38,39
 290 1588 290 1588 354.5 1601 c 128,-1,40
 419 1614 419 1614 481 1614 c 0,41,42
 708 1614 708 1614 817.5 1459 c 128,-1,43
 927 1304 927 1304 955 1016 c 0,44,45
 961.914285714 926.742857143 961.914285714 926.742857143 961.914285714 835.707755102 c 0,0,0
 961.914285714 781.914285714 961.914285714 781.914285714 959.5 727.5 c 128,-1,46
 953 581 953 581 922 446.5 c 128,-1,47
 891 312 891 312 831.5 205 c 128,-1,48
 772 98 772 98 680.5 35.5 c 128,-1,49
 589 -27 589 -27 463 -27 c 0,16,17
EndSplineSet
EndChar

StartChar: percent
Encoding: 37 37 646
Width: 922
VWidth: 2441
GlyphClass: 1
Flags: HW
LayerCount: 2
Fore
SplineSet
729 95 m 0,0,1
 768 95 768 95 797 143 c 128,-1,2
 826 191 826 191 826 288 c 0,3,4
 826 374 826 374 800 430 c 128,-1,5
 774 486 774 486 724 486 c 0,6,7
 685 486 685 486 654.5 441 c 128,-1,8
 624 396 624 396 624 293 c 0,9,10
 624 188 624 188 656 141.5 c 128,-1,11
 688 95 688 95 729 95 c 0,0,1
726 -24 m 0,12,13
 635 -24 635 -24 571 65 c 128,-1,14
 507 154 507 154 507 291 c 128,-1,15
 507 428 507 428 571 518 c 128,-1,16
 635 608 635 608 726 608 c 128,-1,17
 817 608 817 608 880.5 517.5 c 128,-1,18
 944 427 944 427 944 291 c 0,19,20
 944 154 944 154 879.5 65 c 128,-1,21
 815 -24 815 -24 726 -24 c 0,12,13
274 1037 m 128,-1,23
 311 1037 311 1037 340.5 1081 c 128,-1,24
 370 1125 370 1125 370 1230 c 128,-1,25
 370 1335 370 1335 338.5 1379 c 128,-1,26
 307 1423 307 1423 270 1423 c 0,27,28
 235 1423 235 1423 205.5 1379 c 128,-1,29
 176 1335 176 1335 176 1230 c 0,30,31
 176 1127 176 1127 206.5 1082 c 128,-1,22
 237 1037 237 1037 274 1037 c 128,-1,23
89 0 m 1,32,-1
 764 1521 l 1,33,-1
 880 1521 l 1,34,-1
 200 0 l 1,35,-1
 89 0 l 1,32,-1
274 911 m 0,36,37
 183 911 183 911 118.5 999.5 c 128,-1,38
 54 1088 54 1088 54 1230 c 0,39,40
 54 1367 54 1367 118.5 1457 c 128,-1,41
 183 1547 183 1547 274 1547 c 128,-1,42
 365 1547 365 1547 429.5 1456 c 128,-1,43
 494 1365 494 1365 494 1228 c 0,44,45
 494 1086 494 1086 432 998.5 c 128,-1,46
 370 911 370 911 274 911 c 0,36,37
EndSplineSet
EndChar

StartChar: perthousand
Encoding: 8240 8240 647
Width: 922
VWidth: 2441
GlyphClass: 1
Flags: HW
LayerCount: 2
Fore
SplineSet
726 98 m 128,-1,1
 759 98 759 98 784.5 138.5 c 128,-1,2
 810 179 810 179 810 271 c 0,3,4
 810 364 810 364 782.5 404.5 c 128,-1,5
 755 445 755 445 722 445 c 0,6,7
 692 445 692 445 665 404.5 c 128,-1,8
 638 364 638 364 638 271 c 128,-1,9
 638 178 638 178 665.5 138 c 128,-1,0
 693 98 693 98 726 98 c 128,-1,1
252 98 m 128,-1,11
 285 98 285 98 310 138.5 c 128,-1,12
 335 179 335 179 335 271 c 0,13,14
 335 364 335 364 308 404.5 c 128,-1,15
 281 445 281 445 248 445 c 128,-1,16
 215 445 215 445 189.5 404.5 c 128,-1,17
 164 364 164 364 164 271 c 128,-1,18
 164 178 164 178 191.5 138 c 128,-1,10
 219 98 219 98 252 98 c 128,-1,11
726 -27 m 0,19,20
 642 -27 642 -27 583.5 56 c 128,-1,21
 525 139 525 139 525 271 c 0,22,23
 525 395 525 395 583.5 480.5 c 128,-1,24
 642 566 642 566 726 566 c 0,25,26
 808 566 808 566 867.5 482 c 128,-1,27
 927 398 927 398 927 268 c 0,28,29
 927 136 927 136 869.5 54.5 c 128,-1,30
 812 -27 812 -27 726 -27 c 0,19,20
252 -27 m 0,31,32
 170 -27 170 -27 109.5 56 c 128,-1,33
 49 139 49 139 49 271 c 0,34,35
 49 401 49 401 109.5 483.5 c 128,-1,36
 170 566 170 566 252 566 c 128,-1,37
 334 566 334 566 393.5 479.5 c 128,-1,38
 453 393 453 393 453 268 c 0,39,40
 453 133 453 133 395.5 53 c 128,-1,41
 338 -27 338 -27 252 -27 c 0,31,32
39 552 m 1,42,-1
 39 689 l 1,43,-1
 929 1323 l 1,44,-1
 929 1186 l 1,45,-1
 39 552 l 1,42,-1
252 1074 m 128,-1,47
 285 1074 285 1074 310 1114.5 c 128,-1,48
 335 1155 335 1155 335 1248 c 128,-1,49
 335 1341 335 1341 308 1381 c 128,-1,50
 281 1421 281 1421 248 1421 c 128,-1,51
 215 1421 215 1421 189.5 1380.5 c 128,-1,52
 164 1340 164 1340 164 1248 c 0,53,54
 164 1155 164 1155 191.5 1114.5 c 128,-1,46
 219 1074 219 1074 252 1074 c 128,-1,47
252 950 m 0,55,56
 170 950 170 950 109.5 1033 c 128,-1,57
 49 1116 49 1116 49 1248 c 0,58,59
 49 1378 49 1378 109.5 1460.5 c 128,-1,60
 170 1543 170 1543 252 1543 c 128,-1,61
 334 1543 334 1543 393.5 1458.5 c 128,-1,62
 453 1374 453 1374 453 1245 c 0,63,64
 453 1110 453 1110 395.5 1030 c 128,-1,65
 338 950 338 950 252 950 c 0,55,56
EndSplineSet
EndChar

StartChar: circleplus
Encoding: 8853 8853 648
Width: 922
VWidth: 2441
GlyphClass: 1
Flags: HW
LayerCount: 2
Fore
SplineSet
486 415 m 1,0,-1
 486 710 l 1,1,-1
 244 710 l 1,2,-1
 244 808 l 1,3,-1
 486 808 l 1,4,-1
 486 1079 l 1,5,-1
 578 1079 l 1,6,-1
 578 808 l 1,7,-1
 813 808 l 1,8,-1
 813 710 l 1,9,-1
 578 710 l 1,10,-1
 578 415 l 1,11,-1
 486 415 l 1,0,-1
526 345 m 0,12,13
 625 345 625 345 706 399.5 c 128,-1,14
 787 454 787 454 834 547 c 128,-1,15
 881 640 881 640 881 752 c 128,-1,16
 881 864 881 864 834 957 c 128,-1,17
 787 1050 787 1050 706 1104 c 128,-1,18
 625 1158 625 1158 526 1158 c 0,19,20
 430 1158 430 1158 350.5 1104 c 128,-1,21
 271 1050 271 1050 222.5 957 c 128,-1,22
 174 864 174 864 174 752 c 128,-1,23
 174 640 174 640 220.5 547 c 128,-1,24
 267 454 267 454 348.5 399.5 c 128,-1,25
 430 345 430 345 526 345 c 0,12,13
526 247 m 128,-1,27
 401 247 401 247 301.5 315.5 c 128,-1,28
 202 384 202 384 142.5 498.5 c 128,-1,29
 83 613 83 613 83 752 c 0,30,31
 83 894 83 894 142.5 1007.5 c 128,-1,32
 202 1121 202 1121 301.5 1189.5 c 128,-1,33
 401 1258 401 1258 526 1258 c 128,-1,34
 651 1258 651 1258 751.5 1189.5 c 128,-1,35
 852 1121 852 1121 912.5 1007.5 c 128,-1,36
 973 894 973 894 973 752 c 0,37,38
 973 613 973 613 912.5 498.5 c 128,-1,39
 852 384 852 384 751.5 315.5 c 128,-1,26
 651 247 651 247 526 247 c 128,-1,27
EndSplineSet
EndChar

StartChar: arrowup
Encoding: 8593 8593 651
Width: 922
VWidth: 2441
GlyphClass: 1
Flags: HW
LayerCount: 2
Fore
SplineSet
476 17 m 1,0,-1
 476 1094 l 1,1,-1
 230 762 l 1,2,-1
 130 843 l 1,3,-1
 540 1419 l 1,4,-1
 589 1419 l 1,5,-1
 969 837 l 1,6,-1
 857 762 l 1,7,-1
 629 1091 l 1,8,-1
 629 17 l 1,9,-1
 476 17 l 1,0,-1
EndSplineSet
EndChar

StartChar: uni2197
Encoding: 8599 8599 652
Width: 922
VWidth: 2441
GlyphClass: 1
Flags: HW
LayerCount: 2
Fore
SplineSet
26 368 m 1,0,-1
 670 1197 l 1,1,-1
 316 1146 l 1,2,-1
 305 1279 l 1,3,-1
 886 1367 l 1,4,-1
 916 1328 l 1,5,-1
 829 629 l 1,6,-1
 709 657 l 1,7,-1
 760 1076 l 1,8,-1
 120 263 l 1,9,-1
 26 368 l 1,0,-1
EndSplineSet
EndChar

StartChar: arrowright
Encoding: 8594 8594 653
Width: 922
VWidth: 2441
GlyphClass: 1
Flags: HW
LayerCount: 2
Fore
SplineSet
31 799 m 1,0,-1
 670 799 l 1,1,-1
 385 1088 l 1,2,-1
 460 1189 l 1,3,-1
 921 732 l 1,4,-1
 921 678 l 1,5,-1
 458 256 l 1,6,-1
 387 371 l 1,7,-1
 668 640 l 1,8,-1
 31 640 l 1,9,-1
 31 799 l 1,0,-1
EndSplineSet
EndChar

StartChar: arrowboth
Encoding: 8596 8596 659
Width: 922
VWidth: 2441
GlyphClass: 1
Flags: HW
LayerCount: 2
Fore
SplineSet
599 1191 m 1,0,-1
 908 745 l 1,1,-1
 908 691 l 1,2,-1
 595 259 l 1,3,-1
 517 376 l 1,4,-1
 696 643 l 1,5,-1
 222 643 l 1,6,-1
 410 376 l 1,7,-1
 332 259 l 1,8,-1
 18 691 l 1,9,-1
 18 745 l 1,10,-1
 328 1191 l 1,11,-1
 410 1091 l 1,12,-1
 220 801 l 1,13,-1
 698 801 l 1,14,-1
 517 1091 l 1,15,-1
 599 1191 l 1,0,-1
EndSplineSet
EndChar

StartChar: arrowupdn
Encoding: 8597 8597 660
Width: 922
VWidth: 2441
GlyphClass: 1
Flags: HW
LayerCount: 2
Fore
SplineSet
972 540 m 1,0,-1
 569 126 l 1,1,-1
 520 126 l 1,2,-1
 124 545 l 1,3,-1
 240 634 l 1,4,-1
 466 408 l 1,5,-1
 466 1048 l 1,6,-1
 240 806 l 1,7,-1
 126 904 l 1,8,-1
 520 1318 l 1,9,-1
 569 1318 l 1,10,-1
 972 908 l 1,11,-1
 871 806 l 1,12,-1
 625 1050 l 1,13,-1
 625 405 l 1,14,-1
 871 634 l 1,15,-1
 972 540 l 1,0,-1
EndSplineSet
EndChar

StartChar: uni21E7
Encoding: 8679 8679 661
Width: 922
VWidth: 2441
GlyphClass: 1
Flags: HW
LayerCount: 2
Fore
SplineSet
379 98 m 1,0,-1
 655 98 l 1,1,-1
 655 991 l 1,2,-1
 851 991 l 1,3,-1
 516 1428 l 1,4,-1
 189 991 l 1,5,-1
 379 991 l 1,6,-1
 379 98 l 1,0,-1
287 0 m 1,7,-1
 287 892 l 1,8,-1
 70 892 l 1,9,-1
 70 999 l 1,10,-1
 488 1553 l 1,11,-1
 545 1553 l 1,12,-1
 960 999 l 1,13,-1
 960 892 l 1,14,-1
 746 892 l 1,15,-1
 746 0 l 1,16,-1
 287 0 l 1,7,-1
EndSplineSet
EndChar

StartChar: uni21E8
Encoding: 8680 8680 662
Width: 922
VWidth: 2441
GlyphClass: 1
Flags: HW
LayerCount: 2
Fore
SplineSet
101 867 m 1,0,-1
 101 517 l 1,1,-1
 490 517 l 1,2,-1
 490 317 l 1,3,-1
 818 694 l 1,4,-1
 490 1072 l 1,5,-1
 490 867 l 1,6,-1
 101 867 l 1,0,-1
18 964 m 1,7,-1
 405 964 l 1,8,-1
 405 1223 l 1,9,-1
 488 1223 l 1,10,-1
 908 725 l 1,11,-1
 908 659 l 1,12,-1
 488 163 l 1,13,-1
 405 163 l 1,14,-1
 405 420 l 1,15,-1
 18 420 l 1,16,-1
 18 964 l 1,7,-1
EndSplineSet
EndChar

StartChar: uni2B06
Encoding: 11014 11014 665
Width: 922
VWidth: 2441
GlyphClass: 1
Flags: HW
LayerCount: 2
Fore
SplineSet
960 999 m 1,0,-1
 960 892 l 1,1,-1
 746 892 l 1,2,-1
 746 0 l 1,3,-1
 287 0 l 1,4,-1
 287 892 l 1,5,-1
 70 892 l 1,6,-1
 70 999 l 1,7,-1
 488 1553 l 1,8,-1
 545 1553 l 1,9,-1
 960 999 l 1,0,-1
EndSplineSet
EndChar

StartChar: uni2B05
Encoding: 11013 11013 668
Width: 922
VWidth: 2441
GlyphClass: 1
Flags: HW
LayerCount: 2
Fore
SplineSet
908 420 m 1,0,-1
 521 420 l 1,1,-1
 521 163 l 1,2,-1
 438 163 l 1,3,-1
 18 659 l 1,4,-1
 18 725 l 1,5,-1
 438 1223 l 1,6,-1
 521 1223 l 1,7,-1
 521 964 l 1,8,-1
 908 964 l 1,9,-1
 908 420 l 1,0,-1
EndSplineSet
EndChar

StartChar: dneighthblock
Encoding: 9601 9601 669
Width: 922
VWidth: 2440
GlyphClass: 1
Flags: HW
LayerCount: 2
Fore
SplineSet
798 -246 m 1,0,-1
 798 -550 l 1,1,-1
 16 -550 l 1,2,-1
 16 -246 l 1,3,-1
 798 -246 l 1,0,-1
EndSplineSet
EndChar

StartChar: dnquarterblock
Encoding: 9602 9602 670
Width: 922
VWidth: 250
GlyphClass: 1
Flags: HW
LayerCount: 2
Fore
SplineSet
-17 -246 m 1,0,-1
 -17 -122 l 1,1,-1
 143 -122 l 1,2,-1
 143 -246 l 1,3,-1
 -17 -246 l 1,0,-1
EndSplineSet
EndChar

StartChar: dnthreeeighthsblock
Encoding: 9603 9603 671
Width: 922
VWidth: 1223
GlyphClass: 1
Flags: HW
LayerCount: 2
Fore
SplineSet
-18 -246 m 1,0,-1
 -18 305 l 1,1,-1
 455 305 l 1,2,-1
 455 -246 l 1,3,-1
 -18 -246 l 1,0,-1
EndSplineSet
EndChar

StartChar: dnhalfblock
Encoding: 9604 9604 672
Width: 922
VWidth: 1709
GlyphClass: 1
Flags: HW
LayerCount: 2
Fore
SplineSet
-17 -246 m 1,0,-1
 -17 732 l 1,1,-1
 612 732 l 1,2,-1
 612 -246 l 1,3,-1
 -17 -246 l 1,0,-1
EndSplineSet
EndChar

StartChar: dnfiveeighthsblock
Encoding: 9605 9605 673
Width: 922
VWidth: 2002
GlyphClass: 1
Flags: HW
LayerCount: 2
Fore
SplineSet
-18 -246 m 1,0,-1
 -18 1160 l 1,1,-1
 705 1160 l 1,2,-1
 705 -246 l 1,3,-1
 -18 -246 l 1,0,-1
EndSplineSet
EndChar

StartChar: dnthreequartersblock
Encoding: 9606 9606 674
Width: 922
VWidth: 2196
GlyphClass: 1
Flags: HW
LayerCount: 2
Fore
SplineSet
-18 -246 m 1,0,-1
 -18 1587 l 1,1,-1
 768 1587 l 1,2,-1
 768 -246 l 1,3,-1
 -18 -246 l 1,0,-1
EndSplineSet
EndChar

StartChar: dnseveneighthsblock
Encoding: 9607 9607 675
Width: 922
VWidth: 2335
GlyphClass: 1
Flags: HW
LayerCount: 2
Fore
SplineSet
-18 -246 m 1,0,-1
 -18 2015 l 1,1,-1
 813 2015 l 1,2,-1
 813 -246 l 1,3,-1
 -18 -246 l 1,0,-1
EndSplineSet
EndChar

StartChar: fullblock
Encoding: 9608 9608 676
Width: 922
VWidth: 2441
GlyphClass: 1
Flags: HW
LayerCount: 2
Fore
SplineSet
-18 -246 m 1,0,-1
 -18 2441 l 1,1,-1
 846 2441 l 1,2,-1
 846 -246 l 1,3,-1
 -18 -246 l 1,0,-1
EndSplineSet
EndChar

StartChar: uphalfblock
Encoding: 9600 9600 677
Width: 922
VWidth: 2441
GlyphClass: 1
Flags: HW
LayerCount: 2
Fore
SplineSet
-18 732 m 1,0,-1
 -18 2441 l 1,1,-1
 872 2441 l 1,2,-1
 872 732 l 1,3,-1
 -18 732 l 1,0,-1
EndSplineSet
EndChar

StartChar: upeighthblock
Encoding: 9620 9620 678
Width: 922
VWidth: 2441
GlyphClass: 1
Flags: HW
LayerCount: 2
Fore
SplineSet
-18 2015 m 1,0,-1
 -18 2441 l 1,1,-1
 872 2441 l 1,2,-1
 872 2015 l 1,3,-1
 -18 2015 l 1,0,-1
EndSplineSet
EndChar

StartChar: lefteighthblock
Encoding: 9615 9615 679
Width: 922
VWidth: 2441
GlyphClass: 1
Flags: HW
LayerCount: 2
Fore
SplineSet
16 -246 m 1,0,-1
 16 2441 l 1,1,-1
 126 2441 l 1,2,-1
 126 -246 l 1,3,-1
 16 -246 l 1,0,-1
EndSplineSet
EndChar

StartChar: leftquarterblock
Encoding: 9614 9614 680
Width: 922
VWidth: 2441
GlyphClass: 1
Flags: HW
LayerCount: 2
Fore
SplineSet
16 -246 m 1,0,-1
 16 2441 l 1,1,-1
 233 2441 l 1,2,-1
 233 -246 l 1,3,-1
 16 -246 l 1,0,-1
EndSplineSet
EndChar

StartChar: leftthreeeighthsblock
Encoding: 9613 9613 681
Width: 922
VWidth: 2441
GlyphClass: 1
Flags: HW
LayerCount: 2
Fore
SplineSet
16 -246 m 1,0,-1
 16 2441 l 1,1,-1
 340 2441 l 1,2,-1
 340 -246 l 1,3,-1
 16 -246 l 1,0,-1
EndSplineSet
EndChar

StartChar: lefthalfblock
Encoding: 9612 9612 682
Width: 922
VWidth: 2441
GlyphClass: 1
Flags: HW
LayerCount: 2
Fore
SplineSet
16 -246 m 1,0,-1
 16 2441 l 1,1,-1
 448 2441 l 1,2,-1
 448 -246 l 1,3,-1
 16 -246 l 1,0,-1
EndSplineSet
EndChar

StartChar: leftfiveeighthsblock
Encoding: 9611 9611 683
Width: 922
VWidth: 2441
GlyphClass: 1
Flags: HW
LayerCount: 2
Fore
SplineSet
16 -246 m 1,0,-1
 16 2441 l 1,1,-1
 558 2441 l 1,2,-1
 558 -246 l 1,3,-1
 16 -246 l 1,0,-1
EndSplineSet
EndChar

StartChar: leftthreequartersblock
Encoding: 9610 9610 684
Width: 922
VWidth: 2441
GlyphClass: 1
Flags: HW
LayerCount: 2
Fore
SplineSet
16 -246 m 1,0,-1
 16 2441 l 1,1,-1
 665 2441 l 1,2,-1
 665 -246 l 1,3,-1
 16 -246 l 1,0,-1
EndSplineSet
EndChar

StartChar: leftseveneighthsblock
Encoding: 9609 9609 685
Width: 922
VWidth: 2441
GlyphClass: 1
Flags: HW
LayerCount: 2
Fore
SplineSet
16 -246 m 1,0,-1
 16 2441 l 1,1,-1
 772 2441 l 1,2,-1
 772 -246 l 1,3,-1
 16 -246 l 1,0,-1
EndSplineSet
EndChar

StartChar: righthalfblock
Encoding: 9616 9616 686
Width: 922
VWidth: 2441
GlyphClass: 1
Flags: HW
LayerCount: 2
Fore
SplineSet
414 -246 m 1,0,-1
 414 2441 l 1,1,-1
 846 2441 l 1,2,-1
 846 -246 l 1,3,-1
 414 -246 l 1,0,-1
EndSplineSet
EndChar

StartChar: righteighthblock
Encoding: 9621 9621 687
Width: 922
VWidth: 2441
GlyphClass: 1
Flags: HW
LayerCount: 2
Fore
SplineSet
738 -246 m 1,0,-1
 738 2441 l 1,1,-1
 846 2441 l 1,2,-1
 846 -246 l 1,3,-1
 738 -246 l 1,0,-1
EndSplineSet
EndChar

StartChar: dnleftquadrant
Encoding: 9622 9622 688
Width: 922
VWidth: 1709
GlyphClass: 1
Flags: HW
LayerCount: 2
Fore
SplineSet
16 -246 m 1,0,-1
 16 732 l 1,1,-1
 331 732 l 1,2,-1
 331 -246 l 1,3,-1
 16 -246 l 1,0,-1
EndSplineSet
EndChar

StartChar: dnrightquadrant
Encoding: 9623 9623 689
Width: 922
VWidth: 1709
GlyphClass: 1
Flags: HW
LayerCount: 2
Fore
SplineSet
297 -246 m 1,0,-1
 297 732 l 1,1,-1
 612 732 l 1,2,-1
 612 -246 l 1,3,-1
 297 -246 l 1,0,-1
EndSplineSet
EndChar

StartChar: upleftquadrant
Encoding: 9624 9624 690
Width: 922
VWidth: 2441
GlyphClass: 1
Flags: HW
LayerCount: 2
Fore
SplineSet
16 732 m 1,0,-1
 16 2441 l 1,1,-1
 566 2441 l 1,2,-1
 566 732 l 1,3,-1
 16 732 l 1,0,-1
EndSplineSet
EndChar

StartChar: upleftdnleftdnrightquadrant
Encoding: 9625 9625 691
Width: 922
VWidth: 2441
GlyphClass: 1
Flags: HW
LayerCount: 2
Fore
SplineSet
-18 -246 m 1,0,-1
 -18 2441 l 1,1,-1
 414 2441 l 1,2,-1
 414 1097 l 1,3,-1
 846 1097 l 1,4,-1
 846 -246 l 1,5,-1
 -18 -246 l 1,0,-1
EndSplineSet
EndChar

StartChar: upleftdnrightquadrant
Encoding: 9626 9626 692
Width: 922
VWidth: 2441
GlyphClass: 1
Flags: HW
LayerCount: 2
Fore
SplineSet
414 1097 m 1,0,-1
 846 1097 l 1,1,-1
 846 -246 l 1,2,-1
 414 -246 l 1,3,-1
 414 1097 l 1,0,-1
414 1097 m 1,4,-1
 -18 1097 l 1,5,-1
 -18 2441 l 1,6,-1
 414 2441 l 1,7,-1
 414 1097 l 1,4,-1
EndSplineSet
EndChar

StartChar: upleftuprightdnleftquadrant
Encoding: 9627 9627 693
Width: 922
VWidth: 2441
GlyphClass: 1
Flags: HW
LayerCount: 2
Fore
SplineSet
-18 -246 m 1,0,-1
 -18 2441 l 1,1,-1
 846 2441 l 1,2,-1
 846 1097 l 1,3,-1
 414 1097 l 1,4,-1
 414 -246 l 1,5,-1
 -18 -246 l 1,0,-1
EndSplineSet
EndChar

StartChar: upleftuprightdnrightquadrant
Encoding: 9628 9628 694
Width: 922
VWidth: 2441
GlyphClass: 1
Flags: HW
LayerCount: 2
Fore
SplineSet
414 -246 m 1,0,-1
 414 1097 l 1,1,-1
 -18 1097 l 1,2,-1
 -18 2441 l 1,3,-1
 846 2441 l 1,4,-1
 846 -246 l 1,5,-1
 414 -246 l 1,0,-1
EndSplineSet
EndChar

StartChar: uprightquadrant
Encoding: 9629 9629 695
Width: 922
VWidth: 2441
GlyphClass: 1
Flags: HW
LayerCount: 2
Fore
SplineSet
531 732 m 1,0,-1
 531 2441 l 1,1,-1
 1081 2441 l 1,2,-1
 1081 732 l 1,3,-1
 531 732 l 1,0,-1
EndSplineSet
EndChar

StartChar: uprightdnleftquadrant
Encoding: 9630 9630 696
Width: 922
VWidth: 2441
GlyphClass: 1
Flags: HW
LayerCount: 2
Fore
SplineSet
-18 -246 m 1,0,-1
 -18 1097 l 1,1,-1
 414 1097 l 1,2,-1
 414 -246 l 1,3,-1
 -18 -246 l 1,0,-1
414 1097 m 1,4,-1
 414 2441 l 1,5,-1
 846 2441 l 1,6,-1
 846 1097 l 1,7,-1
 414 1097 l 1,4,-1
EndSplineSet
EndChar

StartChar: uprightdnleftdnrightquadrant
Encoding: 9631 9631 697
Width: 922
VWidth: 2441
GlyphClass: 1
Flags: HW
LayerCount: 2
Fore
SplineSet
-18 -246 m 1,0,-1
 -18 1097 l 1,1,-1
 414 1097 l 1,2,-1
 414 2441 l 1,3,-1
 846 2441 l 1,4,-1
 846 -246 l 1,5,-1
 -18 -246 l 1,0,-1
EndSplineSet
EndChar

StartChar: lightshade
Encoding: 9617 9617 698
Width: 922
VWidth: 2427
GlyphClass: 1
Flags: HW
LayerCount: 2
Fore
SplineSet
29 -246 m 1
 29 -149 l 1
 117 -149 l 1
 117 -246 l 1
 29 -246 l 1
321 -246 m 1
 321 -149 l 1
 408 -149 l 1
 408 -246 l 1
 321 -246 l 1
613 -246 m 1
 613 -149 l 1
 700 -149 l 1
 700 -246 l 1
 613 -246 l 1
175 -51 m 1
 175 46 l 1
 262 46 l 1
 262 -51 l 1
 175 -51 l 1
467 -51 m 1
 467 46 l 1
 555 46 l 1
 555 -51 l 1
 467 -51 l 1
759 -51 m 1
 759 46 l 1
 846 46 l 1
 846 -51 l 1
 759 -51 l 1
29 143 m 1
 29 240 l 1
 117 240 l 1
 117 143 l 1
 29 143 l 1
321 143 m 1
 321 240 l 1
 408 240 l 1
 408 143 l 1
 321 143 l 1
613 143 m 1
 613 240 l 1
 700 240 l 1
 700 143 l 1
 613 143 l 1
759 337 m 1
 759 435 l 1
 846 435 l 1
 846 337 l 1
 759 337 l 1
467 337 m 1
 467 435 l 1
 555 435 l 1
 555 337 l 1
 467 337 l 1
175 337 m 1
 175 435 l 1
 262 435 l 1
 262 337 l 1
 175 337 l 1
29 532 m 1
 29 630 l 1
 117 630 l 1
 117 532 l 1
 29 532 l 1
321 532 m 1
 321 630 l 1
 408 630 l 1
 408 532 l 1
 321 532 l 1
613 532 m 1
 613 630 l 1
 700 630 l 1
 700 532 l 1
 613 532 l 1
175 727 m 1
 175 824 l 1
 262 824 l 1
 262 727 l 1
 175 727 l 1
467 727 m 1
 467 824 l 1
 555 824 l 1
 555 727 l 1
 467 727 l 1
759 727 m 1
 759 824 l 1
 846 824 l 1
 846 727 l 1
 759 727 l 1
29 921 m 1
 29 1018 l 1
 117 1018 l 1
 117 921 l 1
 29 921 l 1
321 921 m 1
 321 1018 l 1
 408 1018 l 1
 408 921 l 1
 321 921 l 1
613 921 m 1
 613 1018 l 1
 700 1018 l 1
 700 921 l 1
 613 921 l 1
175 1116 m 1
 175 1213 l 1
 262 1213 l 1
 262 1116 l 1
 175 1116 l 1
467 1116 m 1
 467 1213 l 1
 555 1213 l 1
 555 1116 l 1
 467 1116 l 1
759 1116 m 1
 759 1213 l 1
 846 1213 l 1
 846 1116 l 1
 759 1116 l 1
29 1310 m 1
 29 1408 l 1
 117 1408 l 1
 117 1310 l 1
 29 1310 l 1
321 1310 m 1
 321 1408 l 1
 408 1408 l 1
 408 1310 l 1
 321 1310 l 1
613 1310 m 1
 613 1408 l 1
 700 1408 l 1
 700 1310 l 1
 613 1310 l 1
175 1505 m 1
 175 1603 l 1
 262 1603 l 1
 262 1505 l 1
 175 1505 l 1
467 1505 m 1
 467 1603 l 1
 555 1603 l 1
 555 1505 l 1
 467 1505 l 1
759 1505 m 1
 759 1603 l 1
 846 1603 l 1
 846 1505 l 1
 759 1505 l 1
613 1699 m 1
 613 1796 l 1
 700 1796 l 1
 700 1699 l 1
 613 1699 l 1
321 1699 m 1
 321 1796 l 1
 408 1796 l 1
 408 1699 l 1
 321 1699 l 1
29 1699 m 1
 29 1796 l 1
 117 1796 l 1
 117 1699 l 1
 29 1699 l 1
175 1894 m 1
 175 1991 l 1
 262 1991 l 1
 262 1894 l 1
 175 1894 l 1
467 1894 m 1
 467 1991 l 1
 555 1991 l 1
 555 1894 l 1
 467 1894 l 1
759 1894 m 1
 759 1991 l 1
 846 1991 l 1
 846 1894 l 1
 759 1894 l 1
29 2089 m 1
 29 2186 l 1
 117 2186 l 1
 117 2089 l 1
 29 2089 l 1
321 2089 m 1
 321 2186 l 1
 408 2186 l 1
 408 2089 l 1
 321 2089 l 1
613 2089 m 1
 613 2186 l 1
 700 2186 l 1
 700 2089 l 1
 613 2089 l 1
175 2283 m 1
 175 2381 l 1
 262 2381 l 1
 262 2283 l 1
 175 2283 l 1
467 2283 m 1
 467 2381 l 1
 555 2381 l 1
 555 2283 l 1
 467 2283 l 1
759 2283 m 1
 759 2381 l 1
 846 2381 l 1
 846 2283 l 1
 759 2283 l 1
EndSplineSet
EndChar

